<?xml version="1.0" standalone="no"?>
<!DOCTYPE svg PUBLIC "-//W3C//DTD SVG 1.1//EN" "http://www.w3.org/Graphics/SVG/1.1/DTD/svg11.dtd" >
<svg xmlns="http://www.w3.org/2000/svg" xmlns:xlink="http://www.w3.org/1999/xlink" version="1.1">
<metadata>
Created by FontForge 20161003 at Sun Feb  4 13:57:28 2018
 By www-data
2005 Albert-Jan Pool published by FSI FontShop International GmbH
</metadata>
<defs>
<font id="iCielDINPro-Bold" horiz-adv-x="543" >
  <font-face 
    font-family="iCiel DIN Pro"
    font-weight="400"
    font-stretch="normal"
    units-per-em="1000"
    panose-1="2 11 8 4 2 1 1 2 1 2"
    ascent="800"
    descent="-200"
    x-height="521"
    cap-height="712"
    bbox="-371 -234 1167 1815"
    underline-thickness="87"
    underline-position="-135"
    stemh="110"
    stemv="94"
    unicode-range="U+001D-FB02"
  />
<missing-glyph horiz-adv-x="573" 
d="M73 0v712h427v-712h-427zM160 87h253v538h-253v-538z" />
    <glyph glyph-name=".notdef" horiz-adv-x="573" 
d="M73 0v712h427v-712h-427zM160 87h253v538h-253v-538z" />
    <glyph glyph-name="null" horiz-adv-x="0" 
 />
    <glyph glyph-name="null" horiz-adv-x="0" 
 />
    <glyph glyph-name="nonmarkingreturn" horiz-adv-x="232" 
 />
    <glyph glyph-name="space" unicode=" " horiz-adv-x="232" 
 />
    <glyph glyph-name="exclam" unicode="!" horiz-adv-x="347" 
d="M273 712l-33 -489h-96l-32 489h161zM267 0h-149v148h149v-148z" />
    <glyph glyph-name="quotedbl" unicode="&#x22;" horiz-adv-x="464" 
d="M190 501h-122v211h122v-211zM395 501h-121v211h121v-211z" />
    <glyph glyph-name="numbersign" unicode="#" horiz-adv-x="691" 
d="M643 420h-89l-16 -108h69v-122h-89l-30 -190h-137l31 190h-116l-30 -190h-137l30 190h-69v122h89l16 108h-70v121h89l28 177h137l-28 -177h116l28 177h136l-27 -177h69v-121zM417 420h-115l-17 -108h116z" />
    <glyph glyph-name="dollar" unicode="$" horiz-adv-x="619" 
d="M571 210c0 -59 -20 -108 -61 -146c-38 -36 -89 -58 -154 -66v-112h-101v108c-97 3 -176 34 -236 94l90 90c38 -38 91 -58 159 -60v181l-32 4c-60 8 -106 28 -138 60c-34 34 -51 80 -51 139c0 58 18 106 55 145s88 62 153 69v90h101v-89c81 -5 146 -33 197 -82l-88 -87
c-29 28 -70 44 -123 48v-174l38 -6c60 -9 105 -27 136 -56c37 -35 55 -85 55 -150zM435 206c0 26 -7 46 -22 60c-12 12 -36 21 -71 26v-172c62 7 93 36 93 86zM268 428v167c-58 -8 -87 -37 -87 -88c0 -21 7 -38 21 -51c15 -15 37 -24 66 -28z" />
    <glyph glyph-name="percent" unicode="%" horiz-adv-x="848" 
d="M248 486v91c0 38 -17 57 -50 57c-34 0 -51 -19 -51 -57v-91c0 -38 17 -57 51 -57c33 0 50 19 50 57zM342 581v-99c0 -43 -14 -77 -43 -102c-27 -23 -60 -35 -101 -35s-76 12 -103 35c-29 25 -43 59 -43 102v99c0 43 14 77 43 102c27 23 62 35 103 35s74 -12 101 -35
c29 -25 43 -59 43 -102zM702 134v92c0 38 -17 57 -51 57s-51 -19 -51 -57v-92c0 -37 17 -56 51 -56s51 19 51 56zM796 230v-99c0 -44 -14 -78 -43 -103c-27 -23 -61 -34 -102 -34s-75 11 -102 34c-29 25 -43 59 -43 103v99c0 43 14 77 43 102c27 23 61 35 102 35
s75 -12 102 -35c29 -25 43 -59 43 -102zM644 712l-337 -712h-102l337 712h102z" />
    <glyph glyph-name="ampersand" unicode="&#x26;" horiz-adv-x="721" 
d="M696 0h-165l-52 62c-57 -45 -118 -68 -184 -68c-78 0 -137 19 -176 58c-39 37 -59 90 -59 158c0 70 43 134 128 191c-47 55 -71 105 -71 151c0 49 17 89 50 119c35 31 82 47 140 47c56 0 100 -16 133 -48c33 -31 49 -71 49 -120c0 -48 -24 -89 -73 -124l-51 -37l120 -142
c22 29 34 70 36 125h123c-5 -95 -30 -169 -76 -221zM400 154l-142 167c-48 -33 -72 -69 -72 -109c0 -29 11 -53 32 -72c19 -19 45 -28 76 -28c39 0 74 14 106 42zM366 549c0 39 -20 58 -59 58s-59 -19 -59 -58c0 -16 16 -43 47 -80l30 20c27 19 41 39 41 60z" />
    <glyph glyph-name="quotesingle" unicode="'" horiz-adv-x="259" 
d="M191 501h-123v211h123v-211z" />
    <glyph glyph-name="parenleft" unicode="(" horiz-adv-x="336" 
d="M80 138v436c0 57 9 100 26 129c15 26 44 60 88 103l88 -88c-29 -29 -47 -51 -56 -66c-10 -19 -15 -47 -15 -84v-424c0 -37 5 -65 15 -84c9 -15 27 -37 56 -66l-88 -88c-44 43 -73 77 -88 103c-17 29 -26 72 -26 129z" />
    <glyph glyph-name="parenright" unicode=")" horiz-adv-x="336" 
d="M256 574v-436c0 -57 -9 -100 -26 -129c-15 -26 -44 -60 -88 -103l-88 88c29 29 47 51 56 66c10 19 15 47 15 84v424c0 37 -5 65 -15 84c-9 15 -27 37 -56 66l88 88c44 -43 73 -77 88 -103c17 -29 26 -72 26 -129z" />
    <glyph glyph-name="asterisk" unicode="*" horiz-adv-x="494" 
d="M440 460l-46 -79l-105 66l4 -125h-92l5 125l-106 -66l-45 79l110 58l-110 58l45 80l106 -67l-5 125h92l-4 -125l105 67l46 -80l-111 -58z" />
    <glyph glyph-name="plus" unicode="+" 
d="M493 216h-160v-160h-122v160h-161v122h161v160h122v-160h160v-122z" />
    <glyph glyph-name="comma" unicode="," horiz-adv-x="279" 
d="M211 -55l-143 -110v307h143v-197z" />
    <glyph glyph-name="hyphen" unicode="-" horiz-adv-x="426" 
d="M367 225h-308v121h308v-121z" />
    <glyph glyph-name="period" unicode="." horiz-adv-x="285" 
d="M217 0h-149v148h149v-148z" />
    <glyph glyph-name="slash" unicode="/" horiz-adv-x="403" 
d="M407 786l-285 -860h-122l285 860h122z" />
    <glyph glyph-name="zero" unicode="0" 
d="M488 506v-300c0 -66 -21 -118 -64 -157c-41 -37 -91 -55 -152 -55s-111 18 -152 55c-43 39 -65 92 -65 157v300c0 65 22 118 65 157c41 37 91 55 152 55s111 -18 152 -55c43 -39 64 -91 64 -157zM358 207v297c0 30 -8 54 -23 71c-16 17 -37 26 -63 26s-47 -9 -63 -26
s-24 -40 -24 -71v-297c0 -29 8 -53 24 -70s37 -26 63 -26s47 9 63 26c15 17 23 41 23 70z" />
    <glyph glyph-name="one" unicode="1" 
d="M378 0h-130v572l-145 -126v140l145 126h130v-712z" />
    <glyph glyph-name="two" unicode="2" 
d="M492 0h-433v117l266 309c25 29 37 57 37 86c0 59 -29 89 -86 89c-58 0 -87 -30 -87 -91h-130c0 63 21 114 63 153c39 37 91 55 154 55c65 0 116 -18 155 -55c41 -38 61 -89 61 -152c0 -50 -25 -104 -76 -163l-199 -231h275v-117z" />
    <glyph glyph-name="three" unicode="3" 
d="M495 206c0 -68 -22 -121 -67 -159c-41 -35 -94 -53 -159 -53c-63 0 -115 16 -156 49c-46 37 -70 90 -71 161h130c1 -31 11 -54 30 -70c17 -15 40 -23 67 -23c29 0 52 9 69 26c18 17 27 42 27 73c0 30 -9 54 -26 71c-18 18 -43 27 -74 27h-19v113h19c60 0 90 30 90 89
c0 28 -9 51 -26 68c-17 15 -37 23 -61 23s-44 -8 -61 -23s-26 -36 -27 -63h-130c1 62 23 112 65 149c41 36 92 54 153 54c63 0 115 -19 156 -57s61 -87 61 -147c0 -69 -27 -117 -82 -146c61 -33 92 -87 92 -162z" />
    <glyph glyph-name="four" unicode="4" 
d="M512 101h-65v-101h-125v101h-291v123l244 488h142l-244 -488h149v133h125v-133h65v-123z" />
    <glyph glyph-name="five" unicode="5" 
d="M494 240c0 -83 -21 -146 -63 -188c-39 -39 -91 -58 -157 -58c-68 0 -121 19 -159 57c-34 35 -53 84 -58 148h130c7 -59 36 -88 87 -88c26 0 47 8 62 23c19 19 28 54 28 106c0 85 -29 128 -87 128c-45 0 -73 -19 -86 -58h-119v402h406v-117h-288v-153c25 24 61 36 107 36
c57 0 101 -16 133 -48c43 -43 64 -106 64 -190z" />
    <glyph glyph-name="six" unicode="6" 
d="M492 216c0 -69 -21 -123 -64 -163c-41 -39 -94 -59 -158 -59s-117 19 -158 57c-43 40 -64 94 -64 163c0 46 20 109 60 190l150 308h142l-148 -294c15 6 33 9 53 9c51 0 94 -19 130 -56c38 -40 57 -92 57 -155zM362 215c0 32 -8 57 -25 76s-39 28 -67 28
c-27 0 -49 -9 -66 -27c-17 -19 -26 -45 -26 -77s9 -58 26 -77c17 -18 39 -27 66 -27s49 9 66 27c17 19 26 45 26 77z" />
    <glyph glyph-name="seven" unicode="7" 
d="M503 595l-231 -595h-141l231 595h-188v-112h-124v229h453v-117z" />
    <glyph glyph-name="eight" unicode="8" 
d="M500 207c0 -67 -22 -119 -67 -158c-41 -37 -94 -55 -161 -55s-120 18 -161 55c-45 39 -67 91 -67 158s30 121 89 160c-53 37 -80 87 -80 148s22 111 65 149c41 36 93 54 154 54c62 0 113 -18 154 -54c43 -38 64 -88 64 -149s-27 -111 -80 -148c60 -40 90 -93 90 -160z
M370 209c0 28 -9 51 -28 70s-43 29 -70 29s-51 -10 -70 -29s-28 -42 -28 -70s9 -51 28 -70s42 -28 70 -28s51 9 70 28s28 42 28 70zM360 511c0 26 -8 47 -25 64s-38 26 -63 26s-47 -9 -64 -26s-25 -38 -25 -64s8 -47 25 -64s39 -26 64 -26s46 9 63 26s25 38 25 64z" />
    <glyph glyph-name="nine" unicode="9" 
d="M495 498c0 -46 -20 -109 -59 -190l-151 -308h-141l148 294c-15 -6 -32 -9 -53 -9c-51 0 -94 19 -130 56c-39 39 -58 91 -58 155c0 69 21 123 64 164c41 39 93 58 158 58s117 -19 158 -57c43 -40 64 -94 64 -163zM365 497c0 32 -9 58 -26 77c-17 18 -39 27 -66 27
s-49 -9 -66 -27c-17 -19 -26 -45 -26 -77s8 -57 25 -76s39 -28 67 -28c27 0 49 9 66 27c17 19 26 45 26 77z" />
    <glyph glyph-name="colon" unicode=":" horiz-adv-x="309" 
d="M241 271h-148v148h148v-148zM241 0h-148v148h148v-148z" />
    <glyph glyph-name="semicolon" unicode=";" horiz-adv-x="309" 
d="M238 -55l-142 -110v307h142v-197zM241 271h-148v148h148v-148z" />
    <glyph glyph-name="less" unicode="&#x3c;" 
d="M475 42l-406 187v113l406 187v-137l-241 -107l241 -106v-137z" />
    <glyph glyph-name="equal" unicode="=" 
d="M493 333h-443v122h443v-122zM493 116h-443v122h443v-122z" />
    <glyph glyph-name="greater" unicode="&#x3e;" 
d="M475 229l-406 -187v137l241 106l-241 107v137l406 -187v-113z" />
    <glyph glyph-name="question" unicode="?" horiz-adv-x="523" 
d="M487 518c0 -41 -16 -82 -49 -125l-74 -98c-12 -15 -18 -32 -18 -51v-21h-130v30c0 36 13 71 38 104l74 95c19 25 29 48 29 67c0 25 -7 44 -22 59s-35 23 -59 23c-25 0 -45 -8 -60 -24c-13 -15 -20 -35 -20 -59h-130c0 61 21 110 62 147c39 35 89 53 148 53
c60 0 109 -17 148 -52c42 -37 63 -86 63 -148zM350 0h-138v133h138v-133z" />
    <glyph glyph-name="at" unicode="@" horiz-adv-x="758" 
d="M700 0h-121v46c-32 -35 -72 -52 -120 -52c-53 0 -95 17 -126 50s-47 96 -47 187c0 90 15 152 46 185c31 34 73 51 126 51c49 0 88 -16 118 -49v45c0 45 -12 79 -35 102s-57 35 -100 35h-124c-43 0 -77 -12 -100 -35s-35 -57 -35 -102v-289c0 -40 15 -73 44 -99l-90 -90
c-53 47 -79 107 -79 182v299c0 85 21 148 62 189s103 61 188 61h144c85 0 147 -20 188 -61s61 -104 61 -189v-466zM576 231c0 85 -28 128 -83 128s-82 -43 -82 -128c0 -86 27 -129 82 -129s83 43 83 129z" />
    <glyph glyph-name="A" unicode="A" horiz-adv-x="638" 
d="M633 0h-145l-42 126h-253l-43 -126h-145l259 712h109zM409 243l-87 259l-90 -259h177z" />
    <glyph glyph-name="B" unicode="B" horiz-adv-x="658" 
d="M599 205c0 -65 -20 -115 -61 -152c-39 -35 -92 -53 -157 -53h-298v712h286c69 0 123 -18 162 -54s58 -85 58 -146c0 -70 -29 -119 -88 -147c65 -31 98 -85 98 -160zM460 212c0 25 -8 45 -23 62c-17 17 -40 25 -70 25h-145v-175h145c29 0 53 9 70 26c15 17 23 37 23 62z
M450 506c0 55 -31 82 -92 82h-136v-164h136c61 0 92 27 92 82z" />
    <glyph glyph-name="C" unicode="C" horiz-adv-x="620" 
d="M442 219h141c-13 -73 -44 -129 -91 -168c-45 -38 -101 -57 -170 -57c-76 0 -140 25 -191 75c-33 33 -54 73 -63 119c-6 31 -9 87 -9 168s3 137 9 168c9 46 30 86 63 119c51 50 115 75 191 75c68 0 125 -19 171 -57c47 -39 77 -95 90 -168h-142c-16 67 -56 101 -119 101
c-39 0 -68 -12 -89 -37c-23 -27 -35 -94 -35 -201s12 -174 35 -201c21 -25 50 -37 89 -37c64 0 104 34 120 101z" />
    <glyph glyph-name="D" unicode="D" horiz-adv-x="659" 
d="M600 356c0 -127 -15 -211 -45 -252c-50 -69 -122 -104 -215 -104h-257v712h257c93 0 165 -35 215 -104c30 -41 45 -125 45 -252zM461 356c0 102 -10 165 -29 188c-23 29 -58 44 -104 44h-106v-464h106c46 0 81 15 104 44c19 23 29 86 29 188z" />
    <glyph glyph-name="E" unicode="E" horiz-adv-x="605" 
d="M552 0h-469v712h469v-124h-330v-167h281v-124h-281v-173h330v-124z" />
    <glyph glyph-name="F" unicode="F" horiz-adv-x="590" 
d="M552 588h-330v-175h281v-124h-281v-289h-139v712h469v-124z" />
    <glyph glyph-name="G" unicode="G" horiz-adv-x="649" 
d="M590 396v-104c0 -97 -23 -170 -68 -217c-51 -54 -118 -81 -201 -81c-75 0 -139 25 -190 75c-33 33 -54 73 -63 119c-6 31 -9 87 -9 168s3 137 9 168c9 46 30 86 63 119c51 50 115 75 190 75c78 0 141 -23 189 -69c41 -41 68 -94 79 -159h-140c-16 69 -59 104 -128 104
c-36 0 -66 -13 -89 -38s-34 -92 -34 -200c0 -109 11 -176 34 -201s52 -37 89 -37c43 0 76 13 99 40c21 25 32 56 32 95v26h-131v117h269z" />
    <glyph glyph-name="H" unicode="H" horiz-adv-x="685" 
d="M602 0h-139v298h-241v-298h-139v712h139v-291h241v291h139v-712z" />
    <glyph glyph-name="I" unicode="I" horiz-adv-x="305" 
d="M222 0h-139v712h139v-712z" />
    <glyph glyph-name="J" unicode="J" horiz-adv-x="511" 
d="M437 712v-478c0 -75 -25 -135 -76 -179c-47 -41 -105 -61 -175 -61c-73 0 -134 24 -183 73l92 91c27 -27 57 -40 91 -40c75 0 112 41 112 122v472h139z" />
    <glyph glyph-name="K" unicode="K" horiz-adv-x="665" 
d="M659 0h-162l-183 324l-92 -110v-214h-139v712h139v-310l251 310h169l-236 -283z" />
    <glyph glyph-name="L" unicode="L" horiz-adv-x="575" 
d="M545 0h-462v712h139v-588h323v-124z" />
    <glyph glyph-name="M" unicode="M" horiz-adv-x="811" 
d="M728 0h-139v415l-136 -270h-94l-137 270v-415h-139v712h137l186 -385l185 385h137v-712z" />
    <glyph glyph-name="N" unicode="N" horiz-adv-x="711" 
d="M628 0h-124l-282 437v-437h-139v712h124l282 -436v436h139v-712z" />
    <glyph glyph-name="O" unicode="O" horiz-adv-x="644" 
d="M585 356c0 -81 -3 -137 -10 -168c-9 -46 -30 -86 -63 -119c-50 -50 -113 -75 -190 -75s-141 25 -191 75c-33 33 -54 73 -63 119c-6 31 -9 87 -9 168s3 137 9 168c9 46 30 86 63 119c50 50 114 75 191 75s140 -25 190 -75c33 -33 54 -73 63 -119c7 -31 10 -87 10 -168z
M446 356c0 106 -12 173 -35 200c-22 25 -52 38 -89 38s-67 -13 -90 -38s-34 -92 -34 -200c0 -107 11 -174 34 -199c24 -26 54 -39 90 -39c37 0 66 13 89 39c23 27 35 94 35 199z" />
    <glyph glyph-name="P" unicode="P" horiz-adv-x="628" 
d="M594 490c0 -63 -21 -115 -62 -156c-43 -44 -100 -66 -173 -66h-137v-268h-139v712h276c73 0 130 -22 173 -66c41 -41 62 -93 62 -156zM455 490c0 29 -9 53 -28 71s-44 27 -75 27h-130v-195h130c31 0 56 9 75 27c19 17 28 40 28 70z" />
    <glyph glyph-name="Q" unicode="Q" horiz-adv-x="643" 
d="M585 356c0 -125 -15 -209 -44 -252l61 -61l-73 -73l-64 62c-41 -25 -88 -38 -143 -38c-76 0 -140 25 -191 75c-33 33 -54 73 -63 119c-6 31 -9 87 -9 168s3 137 9 168c9 46 30 86 63 119c51 50 115 75 191 75c77 0 140 -25 190 -75c33 -33 54 -73 63 -119
c7 -31 10 -87 10 -168zM446 356c0 106 -12 173 -35 200c-22 25 -52 38 -89 38s-67 -13 -90 -38s-34 -92 -34 -200c0 -107 11 -174 34 -199c24 -26 54 -39 90 -39c18 0 33 4 46 13l-62 61l73 74l54 -54c9 26 13 74 13 144z" />
    <glyph glyph-name="R" unicode="R" horiz-adv-x="654" 
d="M622 0h-161l-139 284h-100v-284h-139v712h279c71 0 127 -21 170 -64c41 -41 61 -92 61 -154c0 -94 -43 -156 -130 -187zM454 494c0 29 -9 51 -28 68s-44 26 -73 26h-131v-188h131c29 0 54 9 73 26s28 39 28 68z" />
    <glyph glyph-name="S" unicode="S" horiz-adv-x="591" 
d="M543 210c0 -68 -25 -121 -76 -160c-49 -37 -111 -56 -188 -56c-111 0 -198 31 -260 94l90 90c40 -40 97 -60 171 -60c85 0 127 30 127 89c0 25 -7 44 -22 59c-13 12 -35 20 -64 24l-85 13c-61 9 -107 29 -138 59c-34 33 -51 80 -51 140c0 65 22 117 66 156
c45 40 106 60 182 60c96 0 173 -28 230 -83l-88 -87c-33 33 -81 49 -146 49c-35 0 -63 -9 -82 -27c-18 -16 -27 -37 -27 -63c0 -21 7 -38 20 -51c15 -14 36 -23 65 -27l85 -13c61 -9 107 -28 136 -56c37 -34 55 -84 55 -150z" />
    <glyph glyph-name="T" unicode="T" horiz-adv-x="571" 
d="M541 588h-186v-588h-139v588h-186v124h511v-124z" />
    <glyph glyph-name="U" unicode="U" horiz-adv-x="668" 
d="M596 712v-468c0 -75 -25 -135 -76 -182c-49 -45 -111 -68 -186 -68s-137 23 -186 68c-51 47 -76 107 -76 182v468h139v-463c0 -41 11 -73 33 -96s52 -35 90 -35s68 12 90 35c23 23 34 55 34 96v463h138z" />
    <glyph glyph-name="V" unicode="V" horiz-adv-x="581" 
d="M578 712l-236 -712h-104l-235 712h144l143 -464l143 464h145z" />
    <glyph glyph-name="W" unicode="W" horiz-adv-x="887" 
d="M881 712l-191 -712h-116l-131 432l-131 -432h-116l-190 712h145l110 -449l130 449h104l130 -449l111 449h145z" />
    <glyph glyph-name="X" unicode="X" horiz-adv-x="603" 
d="M598 0h-159l-138 248l-137 -248h-159l221 365l-207 347h158l124 -230l125 230h157l-207 -347z" />
    <glyph glyph-name="Y" unicode="Y" horiz-adv-x="572" 
d="M569 712l-214 -420v-292h-138v292l-214 420h151l133 -287l131 287h151z" />
    <glyph glyph-name="Z" unicode="Z" horiz-adv-x="548" 
d="M508 0h-468v112l304 476h-291v124h455v-110l-305 -478h305v-124z" />
    <glyph glyph-name="bracketleft" unicode="[" horiz-adv-x="378" 
d="M337 -74h-257v860h257v-117h-127v-626h127v-117z" />
    <glyph glyph-name="backslash" unicode="\" horiz-adv-x="403" 
d="M403 -74h-122l-281 847h122z" />
    <glyph glyph-name="bracketright" unicode="]" horiz-adv-x="378" 
d="M299 -74h-257v116h127v628h-127v116h257v-860z" />
    <glyph glyph-name="asciicircum" unicode="^" horiz-adv-x="602" 
d="M539 389h-136l-102 188l-102 -188h-136l178 330h120z" />
    <glyph glyph-name="underscore" unicode="_" horiz-adv-x="602" 
d="M602 -178h-602v87h602v-87z" />
    <glyph glyph-name="grave" unicode="`" horiz-adv-x="500" 
d="M305 604h-87l-114 170h137z" />
    <glyph glyph-name="a" unicode="a" horiz-adv-x="534" 
d="M467 0h-127v45c-33 -33 -76 -50 -128 -50c-58 0 -102 15 -133 46c-29 29 -43 68 -43 117c0 44 15 80 44 107c33 29 78 44 136 44h121v26c0 55 -32 82 -97 82c-41 0 -74 -15 -100 -45l-82 81c45 49 108 74 187 74c148 0 222 -61 222 -184v-343zM337 192v28h-99
c-51 0 -77 -20 -77 -60c0 -39 26 -59 79 -59c35 0 60 8 77 25c13 11 20 33 20 66z" />
    <glyph glyph-name="b" unicode="b" horiz-adv-x="560" 
d="M509 261c0 -109 -18 -183 -54 -220c-30 -31 -72 -47 -126 -47s-97 18 -130 55v-49h-126v712h130v-237c30 35 72 52 126 52s96 -16 126 -47c36 -37 54 -110 54 -219zM379 261c0 50 -5 85 -15 106c-13 29 -37 43 -73 43s-60 -14 -73 -43c-10 -21 -15 -56 -15 -106
c0 -49 5 -85 15 -106c13 -29 38 -44 73 -44s60 15 73 44c10 21 15 57 15 106z" />
    <glyph glyph-name="c" unicode="c" horiz-adv-x="480" 
d="M364 152l88 -87c-45 -47 -103 -71 -172 -71c-63 0 -115 18 -155 54c-52 47 -78 118 -78 213s26 166 78 212c40 36 92 54 155 54c70 0 127 -23 172 -70l-88 -88c-25 27 -53 41 -84 41s-55 -11 -74 -34c-19 -25 -29 -63 -29 -115c0 -53 10 -91 29 -116
c19 -23 43 -34 74 -34s59 14 84 41z" />
    <glyph glyph-name="d" unicode="d" horiz-adv-x="561" 
d="M488 0h-127v49c-33 -37 -76 -55 -129 -55c-55 0 -97 16 -127 47c-36 37 -54 110 -54 220c0 109 18 182 54 219c30 31 72 47 126 47s96 -17 127 -52v237h130v-712zM358 261c0 49 -5 84 -15 106c-13 29 -37 43 -74 43c-36 0 -60 -14 -73 -43c-10 -21 -15 -56 -15 -106
c0 -49 5 -85 15 -106c13 -29 38 -44 73 -44c36 0 61 15 74 44c10 21 15 57 15 106z" />
    <glyph glyph-name="e" unicode="e" horiz-adv-x="548" 
d="M501 220h-326c0 -34 10 -62 29 -83c21 -22 50 -33 85 -33c45 0 85 16 118 49l79 -77c-53 -55 -119 -82 -198 -82c-161 0 -241 89 -241 267c0 83 21 149 63 197c41 46 96 69 164 69c71 0 127 -23 168 -70c39 -47 59 -107 59 -182v-55zM175 309h198c-1 22 -5 41 -12 56
c-16 36 -45 54 -87 54s-71 -18 -87 -54c-7 -15 -11 -34 -12 -56z" />
    <glyph glyph-name="f" unicode="f" horiz-adv-x="342" 
d="M315 407h-96v-407h-130v407h-54v99h54v65c0 41 12 75 36 102c28 31 67 47 116 47h74v-110h-51c-30 0 -45 -16 -45 -47v-57h96v-99z" />
    <glyph glyph-name="g" unicode="g" horiz-adv-x="555" 
d="M482 521v-502c0 -63 -21 -115 -62 -155c-41 -41 -97 -61 -167 -61c-79 0 -142 23 -189 68l81 82c27 -27 61 -40 102 -40c36 0 63 11 82 34c15 19 23 44 23 74v53c-31 -35 -72 -52 -124 -52s-93 15 -124 46c-35 35 -53 104 -53 207c0 102 18 171 53 206
c31 31 72 46 125 46c52 0 94 -18 127 -55v49h126zM352 275c0 41 -5 72 -14 93c-13 28 -37 42 -72 42c-34 0 -58 -14 -71 -42c-9 -20 -14 -51 -14 -93s5 -73 14 -94c13 -28 37 -42 71 -42c35 0 59 14 72 42c9 21 14 52 14 94z" />
    <glyph glyph-name="h" unicode="h" horiz-adv-x="573" 
d="M506 0h-130v315c0 33 -9 57 -28 74c-15 14 -34 21 -58 21s-44 -7 -59 -21c-19 -17 -28 -41 -28 -74v-315h-130v712h130v-239c33 36 76 54 127 54s92 -15 123 -46c35 -35 53 -85 53 -148v-333z" />
    <glyph glyph-name="i" unicode="i" horiz-adv-x="275" 
d="M203 0h-130v506h130v-506zM204 610h-133v106h133v-106z" />
    <glyph glyph-name="j" unicode="j" horiz-adv-x="275" 
d="M203 506v-552c0 -41 -12 -75 -36 -102c-27 -31 -66 -47 -116 -47h-74v110h50c31 0 46 16 46 47v544h130zM204 610h-133v106h133v-106z" />
    <glyph glyph-name="k" unicode="k" horiz-adv-x="559" 
d="M547 0h-161l-128 217l-55 -62v-155h-130v712h130v-404l173 213h157l-186 -210z" />
    <glyph glyph-name="l" unicode="l" horiz-adv-x="325" 
d="M294 0h-74c-50 0 -89 16 -116 47c-24 27 -36 61 -36 102v563h130v-555c0 -31 15 -47 46 -47h50v-110z" />
    <glyph glyph-name="m" unicode="m" horiz-adv-x="876" 
d="M809 0h-130v315c0 33 -9 57 -28 74c-15 14 -34 21 -58 21c-23 0 -43 -7 -58 -20c-19 -17 -29 -41 -29 -72v-318h-130v315c0 33 -9 57 -28 74c-15 14 -34 21 -58 21s-44 -7 -59 -21c-19 -17 -28 -41 -28 -74v-315h-130v521h127v-48c35 36 79 54 130 54
c60 0 106 -22 138 -66c42 44 94 66 156 66c55 0 97 -15 128 -46c38 -38 57 -87 57 -148v-333z" />
    <glyph glyph-name="n" unicode="n" horiz-adv-x="573" 
d="M506 0h-130v315c0 33 -9 57 -28 74c-15 14 -34 21 -58 21s-44 -7 -59 -21c-19 -17 -28 -41 -28 -74v-315h-130v521h127v-48c34 36 77 54 130 54c51 0 92 -15 123 -46c35 -35 53 -85 53 -148v-333z" />
    <glyph glyph-name="o" unicode="o" 
d="M492 261c0 -95 -20 -162 -59 -203c-41 -43 -95 -64 -162 -64s-120 21 -161 64c-39 43 -59 110 -59 203c0 92 20 159 59 202c41 43 94 64 161 64c68 0 122 -21 162 -64c39 -43 59 -110 59 -202zM362 261c0 65 -10 107 -30 126c-15 15 -36 23 -61 23s-45 -8 -60 -23
c-20 -19 -30 -61 -30 -126s10 -108 30 -127c15 -15 35 -23 60 -23s46 8 61 23c20 19 30 62 30 127z" />
    <glyph glyph-name="p" unicode="p" horiz-adv-x="560" 
d="M509 261c0 -109 -18 -183 -54 -220c-30 -31 -72 -47 -126 -47s-96 17 -126 52v-237h-130v712h126v-49c33 37 76 55 130 55s96 -16 126 -47c36 -37 54 -110 54 -219zM379 261c0 50 -5 85 -15 106c-13 29 -37 43 -73 43s-60 -14 -73 -43c-10 -21 -15 -56 -15 -106
c0 -49 5 -85 15 -106c13 -29 38 -44 73 -44s60 15 73 44c10 21 15 57 15 106z" />
    <glyph glyph-name="q" unicode="q" horiz-adv-x="561" 
d="M488 -191h-130v237c-31 -35 -73 -52 -127 -52s-96 16 -126 47c-36 37 -54 110 -54 220c0 109 18 182 54 219c30 31 72 47 127 47c53 0 96 -18 129 -55v49h127v-712zM358 261c0 49 -5 84 -15 106c-13 29 -37 43 -74 43c-36 0 -60 -14 -73 -43c-10 -21 -15 -56 -15 -106
c0 -49 5 -85 15 -106c13 -29 38 -44 73 -44c37 0 61 14 74 43c10 22 15 58 15 107z" />
    <glyph glyph-name="r" unicode="r" horiz-adv-x="455" 
d="M454 478l-98 -99c-21 21 -44 31 -69 31c-21 0 -40 -8 -57 -23c-18 -18 -27 -42 -27 -73v-314h-130v521h127v-50c31 37 75 56 131 56c49 0 90 -16 123 -49z" />
    <glyph glyph-name="s" unicode="s" horiz-adv-x="501" 
d="M465 164c0 -55 -21 -98 -64 -128c-40 -28 -92 -42 -157 -42c-97 0 -171 25 -222 75l85 85c32 -33 78 -49 139 -49s92 18 92 54c0 29 -18 45 -55 48l-84 8c-100 10 -150 59 -150 146c0 52 20 93 61 124c37 28 84 42 140 42c89 0 156 -20 199 -61l-80 -81
c-27 23 -67 35 -121 35c-49 0 -74 -17 -74 -50c0 -26 18 -41 54 -45l82 -8c103 -10 155 -61 155 -153z" />
    <glyph glyph-name="t" unicode="t" horiz-adv-x="352" 
d="M307 0h-71c-49 0 -88 16 -115 47c-24 27 -36 61 -36 102v258h-55v99h55v154h130v-154h92v-99h-92v-250c0 -31 15 -47 45 -47h47v-110z" />
    <glyph glyph-name="u" unicode="u" horiz-adv-x="573" 
d="M500 0h-127v48c-34 -36 -77 -54 -130 -54c-51 0 -92 15 -123 46c-35 35 -53 85 -53 148v333h130v-315c0 -33 9 -57 28 -74c15 -14 35 -21 58 -21c25 0 44 7 59 21c19 17 28 41 28 74v315h130v-521z" />
    <glyph glyph-name="v" unicode="v" horiz-adv-x="493" 
d="M489 521l-191 -521h-102l-192 521h137l106 -322l105 322h137z" />
    <glyph glyph-name="w" unicode="w" horiz-adv-x="759" 
d="M755 521l-159 -521h-107l-109 327l-109 -327h-107l-160 521h138l84 -322l106 322h95l107 -322l84 322h137z" />
    <glyph glyph-name="x" unicode="x" horiz-adv-x="527" 
d="M515 0h-156l-96 156l-95 -156h-156l180 266l-173 255h156l88 -149l89 149h156l-173 -255z" />
    <glyph glyph-name="y" unicode="y" horiz-adv-x="494" 
d="M490 521l-223 -605c-11 -29 -24 -52 -39 -67c-27 -27 -64 -40 -112 -40h-51v117h30c32 0 54 16 65 47l22 64l-178 484h137l108 -322l104 322h137z" />
    <glyph glyph-name="z" unicode="z" horiz-adv-x="478" 
d="M434 0h-397v99l231 305h-218v117h384v-99l-234 -305h234v-117z" />
    <glyph glyph-name="braceleft" unicode="{" horiz-adv-x="457" 
d="M414 -74h-102c-50 0 -87 12 -112 37c-28 28 -42 65 -42 111v145c0 29 -6 49 -17 60c-13 13 -30 19 -52 19h-46v116h46c22 0 39 6 52 19c11 11 17 31 17 60v145c0 46 14 83 42 111c25 25 62 37 112 37h102v-117h-53c-29 0 -48 -5 -57 -14c-11 -11 -16 -32 -16 -64v-135
c0 -49 -23 -82 -69 -100c46 -18 69 -51 69 -100v-135c0 -32 5 -53 16 -64c9 -9 28 -14 57 -14h53v-117z" />
    <glyph glyph-name="bar" unicode="|" horiz-adv-x="350" 
d="M240 -74h-130v860h130v-860z" />
    <glyph glyph-name="braceright" unicode="}" horiz-adv-x="457" 
d="M414 298h-46c-22 0 -39 -6 -52 -19c-11 -11 -17 -31 -17 -60v-145c0 -46 -14 -83 -42 -111c-25 -25 -62 -37 -112 -37h-102v117h53c29 0 48 5 57 14c11 11 16 32 16 64v135c0 49 23 82 69 100c-46 18 -69 51 -69 100v135c0 32 -5 53 -16 64c-9 9 -28 14 -57 14h-53v117
h102c50 0 87 -12 112 -37c28 -28 42 -65 42 -111v-145c0 -29 6 -49 17 -60c13 -13 30 -19 52 -19h46v-116z" />
    <glyph glyph-name="asciitilde" unicode="~" horiz-adv-x="606" 
d="M486 363l83 -82c-57 -57 -112 -86 -165 -86c-35 0 -74 11 -117 34c-31 16 -58 24 -82 24c-29 0 -58 -14 -86 -42l-82 82c57 57 112 86 164 86c35 0 74 -11 117 -34c31 -16 58 -24 81 -24c30 0 59 14 87 42z" />
    <glyph glyph-name="uni00A0" unicode="&#xa0;" horiz-adv-x="232" 
 />
    <glyph glyph-name="exclamdown" unicode="&#xa1;" horiz-adv-x="347" 
d="M236 -191h-161l32 489h97zM224 388h-137v133h137v-133z" />
    <glyph glyph-name="cent" unicode="&#xa2;" horiz-adv-x="499" 
d="M383 264l86 -84c-39 -41 -85 -66 -136 -75v-105h-101v105c-55 11 -99 38 -132 81c-35 47 -53 107 -53 180s18 133 53 180c33 43 77 70 132 81v85h101v-85c51 -9 97 -34 136 -75l-86 -84c-21 21 -43 35 -64 41v-286c21 6 43 20 64 41zM246 225v282c-14 -4 -27 -13 -38 -26
c-21 -25 -31 -64 -31 -115s10 -90 31 -115c10 -13 23 -22 38 -26z" />
    <glyph glyph-name="sterling" unicode="&#xa3;" horiz-adv-x="579" 
d="M534 0h-433v297h-61v100h61v81c0 75 25 135 76 179c47 41 105 61 175 61c73 0 133 -24 182 -73l-91 -91c-27 27 -57 40 -91 40c-75 0 -113 -41 -113 -122v-75h113v-100h-113v-173h295v-124z" />
    <glyph glyph-name="currency" unicode="&#xa4;" horiz-adv-x="669" 
d="M610 96l-85 -86l-74 73c-37 -21 -76 -32 -117 -32s-79 11 -116 32l-74 -73l-86 86l74 73c-22 37 -33 76 -33 117s11 80 33 117l-74 73l86 86l74 -73c37 21 75 32 116 32s80 -11 117 -32l74 73l85 -86l-73 -73c21 -37 32 -76 32 -117s-11 -80 -32 -117zM452 286
c0 32 -12 60 -35 83s-50 34 -83 34s-60 -11 -83 -34s-34 -50 -34 -83s11 -60 34 -83s50 -34 83 -34s60 11 83 34s35 51 35 83z" />
    <glyph glyph-name="yen" unicode="&#xa5;" horiz-adv-x="571" 
d="M568 712l-136 -270h74v-100h-125l-26 -50v-51h151v-100h-151v-141h-138v141h-152v100h152v51l-26 50h-126v100h75l-137 270h151l132 -288l132 288h150z" />
    <glyph glyph-name="brokenbar" unicode="&#xa6;" horiz-adv-x="353" 
d="M240 436h-130v350h130v-350zM240 -74h-130v350h130v-350z" />
    <glyph glyph-name="section" unicode="&#xa7;" horiz-adv-x="531" 
d="M473 274c0 -65 -30 -115 -90 -149c54 -27 81 -73 81 -139c0 -58 -21 -104 -62 -138c-37 -30 -82 -45 -136 -45c-53 0 -98 14 -135 41c-41 32 -63 78 -64 137h125c2 -42 27 -63 74 -63c49 0 73 21 73 64c0 35 -23 59 -70 74l-62 21c-97 33 -146 96 -146 188
c0 67 30 116 91 149c-51 27 -76 70 -76 131c0 49 16 89 47 120c35 35 84 53 145 53c62 0 110 -17 145 -50c31 -30 46 -71 47 -122h-122c-2 41 -25 61 -70 61c-47 0 -70 -20 -70 -59c0 -29 22 -51 67 -66l62 -20c97 -31 146 -94 146 -188zM348 269c0 29 -8 51 -25 68
c-15 14 -33 21 -56 21c-24 0 -43 -7 -57 -21c-16 -16 -24 -39 -24 -68s8 -51 24 -67c14 -14 33 -21 57 -21c23 0 42 7 56 21c17 17 25 39 25 67z" />
    <glyph glyph-name="dieresis" unicode="&#xa8;" horiz-adv-x="500" 
d="M416 606h-111v125h111v-125zM195 606h-111v125h111v-125z" />
    <glyph glyph-name="copyright" unicode="&#xa9;" horiz-adv-x="844" 
d="M784 356c0 -100 -35 -185 -106 -256s-156 -106 -256 -106s-185 35 -256 106s-106 156 -106 256s35 185 106 256s156 106 256 106s185 -35 256 -106s106 -156 106 -256zM697 356c0 81 -26 148 -79 201s-119 80 -196 80s-143 -27 -196 -80c-53 -55 -80 -122 -80 -201
s27 -146 80 -201c53 -53 119 -80 196 -80s143 27 196 80s79 120 79 201zM505 268l56 -56c-39 -35 -83 -52 -132 -52c-51 0 -94 17 -127 50c-35 35 -52 83 -52 146s17 112 52 147c33 33 76 50 127 50c47 0 91 -18 132 -53l-56 -56c-25 21 -51 32 -76 32
c-63 0 -94 -40 -94 -120s31 -120 94 -120c25 0 51 11 76 32z" />
    <glyph glyph-name="ordfeminine" unicode="&#xaa;" horiz-adv-x="454" 
d="M392 296h-103v36c-27 -27 -60 -40 -101 -40c-46 0 -81 13 -105 38c-23 23 -35 54 -35 92c0 35 12 64 35 85c25 24 61 36 107 36h97v20c0 43 -26 65 -77 65c-33 0 -59 -11 -79 -34l-67 65c35 39 85 58 151 58c118 0 177 -49 177 -147v-274zM287 449v23h-81
c-37 0 -56 -16 -56 -47s19 -46 57 -46c31 0 52 6 65 19c10 9 15 26 15 51z" />
    <glyph glyph-name="guillemotleft" unicode="&#xab;" horiz-adv-x="628" 
d="M562 27l-250 248l250 248v-155l-96 -93l96 -93v-155zM283 27l-249 248l249 248v-155l-94 -93l94 -93v-155z" />
    <glyph glyph-name="logicalnot" unicode="&#xac;" 
d="M497 94h-121v145h-330v121h451v-266z" />
    <glyph glyph-name="uni00AD" unicode="&#xad;" horiz-adv-x="426" 
d="M367 225h-308v121h308v-121z" />
    <glyph glyph-name="registered" unicode="&#xae;" horiz-adv-x="844" 
d="M784 356c0 -100 -35 -185 -106 -256s-156 -106 -256 -106s-185 35 -256 106s-106 156 -106 256s35 185 106 256s156 106 256 106s185 -35 256 -106s106 -156 106 -256zM698 356c0 81 -26 148 -79 201s-119 80 -197 80c-77 0 -143 -27 -196 -80c-53 -55 -80 -122 -80 -201
s27 -146 80 -201c53 -53 119 -80 196 -80c78 0 144 27 197 80s79 120 79 201zM585 164h-98l-70 149h-41v-149h-86v385h157c38 0 69 -12 93 -36c23 -23 35 -52 35 -85c0 -49 -24 -83 -71 -102zM489 428c0 14 -5 26 -14 35c-11 10 -24 15 -39 15h-60v-100h60c15 0 28 5 39 15
c9 9 14 21 14 35z" />
    <glyph glyph-name="overscore" unicode="&#xaf;" horiz-adv-x="500" 
d="M408 623h-317v88h317v-88z" />
    <glyph glyph-name="degree" unicode="&#xb0;" horiz-adv-x="478" 
d="M423 542c0 -51 -18 -94 -54 -130c-35 -36 -78 -54 -130 -54c-51 0 -94 18 -130 54s-54 79 -54 130s18 95 54 131s79 54 130 54s94 -18 130 -54s54 -80 54 -131zM318 542c0 23 -8 42 -23 57c-17 15 -36 23 -57 23s-40 -8 -55 -23s-23 -34 -23 -57s8 -42 23 -57
s34 -23 56 -23s41 8 56 23s23 34 23 57z" />
    <glyph glyph-name="plusminus" unicode="&#xb1;" 
d="M493 341h-160v-161h-122v161h-161v121h161v161h122v-161h160v-121zM493 0h-443v122h443v-122z" />
    <glyph glyph-name="uni00B2" unicode="&#xb2;" horiz-adv-x="332" 
d="M306 285h-272v85l156 171c15 15 22 30 22 47c0 29 -14 43 -42 43s-42 -15 -42 -44h-94c0 40 13 72 40 96c25 22 57 33 96 33c40 0 72 -11 97 -34c26 -23 39 -54 39 -94c0 -32 -17 -67 -52 -104l-105 -114h157v-85z" />
    <glyph glyph-name="uni00B3" unicode="&#xb3;" horiz-adv-x="332" 
d="M310 412c0 -42 -14 -75 -42 -99c-27 -21 -60 -32 -99 -32c-40 0 -72 10 -97 31c-29 23 -44 57 -44 101h94c0 -32 16 -48 47 -48s47 17 47 50c0 32 -16 48 -49 48h-13v81h13c29 0 44 14 44 43s-14 44 -42 44s-42 -14 -42 -42h-94c0 39 13 70 40 93c25 23 57 34 96 34
s72 -12 97 -35c26 -24 39 -54 39 -91c0 -38 -15 -66 -45 -84c33 -21 50 -53 50 -94z" />
    <glyph glyph-name="acute" unicode="&#xb4;" horiz-adv-x="500" 
d="M396 774l-114 -170h-87l64 170h137z" />
    <glyph glyph-name="mu" unicode="&#xb5;" horiz-adv-x="576" 
d="M503 0h-127v48c-34 -36 -77 -54 -130 -54c-17 0 -33 5 -46 14v-199h-130v712h130v-315c0 -33 9 -57 28 -74c15 -14 35 -21 58 -21c25 0 44 7 59 21c19 17 28 41 28 74v315h130v-521z" />
    <glyph glyph-name="paragraph" unicode="&#xb6;" horiz-adv-x="668" 
d="M585 -191h-130v779h-100v-779h-130v499c-51 0 -95 20 -132 59c-39 39 -58 87 -58 142c0 65 21 115 64 151c41 35 96 52 167 52h319v-903z" />
    <glyph glyph-name="middot" unicode="&#xb7;" horiz-adv-x="285" 
d="M217 212h-149v148h149v-148z" />
    <glyph glyph-name="cedilla" unicode="&#xb8;" horiz-adv-x="500" 
d="M325 -60l-44 -146h-121l69 146h96z" />
    <glyph glyph-name="uni00B9" unicode="&#xb9;" horiz-adv-x="332" 
d="M239 285h-95v321l-90 -78v106l90 78h95v-427z" />
    <glyph glyph-name="ordmasculine" unicode="&#xba;" horiz-adv-x="462" 
d="M407 504c0 -73 -16 -127 -48 -161c-33 -34 -75 -51 -128 -51c-52 0 -95 17 -128 51c-32 34 -48 88 -48 161c0 74 16 128 48 162c33 34 76 51 128 51c53 0 95 -17 128 -51c32 -34 48 -88 48 -162zM302 504c0 52 -8 86 -23 101c-12 12 -28 18 -48 18s-36 -6 -48 -18
c-15 -15 -23 -49 -23 -101c0 -51 8 -85 23 -100c12 -12 28 -18 48 -18s36 6 48 18c15 15 23 49 23 100z" />
    <glyph glyph-name="guillemotright" unicode="&#xbb;" horiz-adv-x="628" 
d="M595 275l-250 -248v155l94 93l-94 93v155zM316 275l-249 -248v155l95 93l-95 93v155z" />
    <glyph glyph-name="onequarter" unicode="&#xbc;" horiz-adv-x="872" 
d="M239 285h-95v321l-90 -78v106l90 78h95v-427zM655 712l-337 -712h-101l337 712h101zM857 57h-33v-57h-90v57h-176v89l143 281h103l-144 -281h74v62h90v-62h33v-89z" />
    <glyph glyph-name="onehalf" unicode="&#xbd;" horiz-adv-x="872" 
d="M239 285h-95v321l-90 -78v106l90 78h95v-427zM655 712l-337 -712h-101l337 712h101zM846 0h-272v85l156 171c15 15 22 30 22 47c0 29 -14 43 -42 43s-42 -15 -42 -44h-94c0 40 13 72 40 96c25 22 57 33 96 33c40 0 72 -11 97 -34c26 -23 39 -54 39 -94
c0 -32 -17 -67 -52 -104l-105 -114h157v-85z" />
    <glyph glyph-name="threequarters" unicode="&#xbe;" horiz-adv-x="872" 
d="M310 412c0 -42 -14 -75 -42 -99c-27 -21 -60 -32 -99 -32c-40 0 -72 10 -97 31c-29 23 -44 57 -44 101h94c0 -32 16 -48 47 -48s47 17 47 50c0 32 -16 48 -49 48h-13v81h13c29 0 44 14 44 43s-14 44 -42 44s-42 -14 -42 -42h-94c0 39 13 70 40 93c25 23 57 34 96 34
s72 -12 97 -35c26 -24 39 -54 39 -91c0 -38 -15 -66 -45 -84c33 -21 50 -53 50 -94zM655 712l-337 -712h-101l337 712h101zM857 57h-33v-57h-90v57h-176v89l143 281h103l-144 -281h74v62h90v-62h33v-89z" />
    <glyph glyph-name="questiondown" unicode="&#xbf;" horiz-adv-x="523" 
d="M327 4h130c0 -61 -21 -110 -62 -147c-39 -36 -88 -54 -149 -54c-59 0 -108 17 -147 52c-42 37 -63 86 -63 148c0 41 16 82 49 125l74 99c12 15 18 32 18 51v20h130v-30c0 -36 -13 -71 -38 -104l-74 -95c-19 -25 -29 -48 -29 -67c0 -25 7 -44 21 -59c15 -15 35 -23 59 -23
c25 0 45 8 60 25c14 15 21 34 21 59zM311 388h-138v133h138v-133z" />
    <glyph glyph-name="Agrave" unicode="&#xc0;" horiz-adv-x="638" 
d="M633 0h-145l-42 126h-253l-43 -126h-145l259 712h109zM409 243l-87 259l-90 -259h177zM372 781h-87l-114 170h137z" />
    <glyph glyph-name="Aacute" unicode="&#xc1;" horiz-adv-x="638" 
d="M633 0h-145l-42 126h-253l-43 -126h-145l259 712h109zM409 243l-87 259l-90 -259h177zM463 951l-114 -170h-87l64 170h137z" />
    <glyph glyph-name="Acircumflex" unicode="&#xc2;" horiz-adv-x="638" 
d="M633 0h-145l-42 126h-253l-43 -126h-145l259 712h109zM409 243l-87 259l-90 -259h177zM501 781h-101l-83 91l-83 -91h-101l132 169h104z" />
    <glyph glyph-name="Atilde" unicode="&#xc3;" horiz-adv-x="638" 
d="M633 0h-145l-42 126h-253l-43 -126h-145l259 712h109zM409 243l-87 259l-90 -259h177zM439 906l58 -57c-39 -39 -77 -59 -113 -59c-27 0 -53 8 -78 23c-21 12 -39 18 -56 18c-19 0 -39 -10 -58 -29l-56 57c39 39 77 59 112 59c26 0 52 -8 77 -23c20 -12 38 -18 55 -18
c20 0 40 10 59 29z" />
    <glyph glyph-name="Adieresis" unicode="&#xc4;" horiz-adv-x="638" 
d="M633 0h-145l-42 126h-253l-43 -126h-145l259 712h109zM409 243l-87 259l-90 -259h177zM485 783h-111v125h111v-125zM264 783h-111v125h111v-125z" />
    <glyph glyph-name="Aring" unicode="&#xc5;" horiz-adv-x="638" 
d="M633 0h-145l-42 126h-253l-43 -126h-145l259 712h109zM409 243l-87 259l-90 -259h177zM448 884c0 -36 -13 -67 -38 -92c-26 -26 -57 -39 -93 -39s-67 13 -92 39c-26 25 -39 56 -39 92s13 67 39 93c25 25 56 38 92 38c35 0 66 -13 93 -38c25 -25 38 -56 38 -93zM375 884
c0 16 -6 30 -17 41s-25 17 -41 17s-30 -6 -41 -17s-17 -25 -17 -41s6 -30 17 -41c11 -12 25 -18 41 -18c17 0 30 6 41 18c11 11 17 25 17 41z" />
    <glyph glyph-name="AE" unicode="&#xc6;" horiz-adv-x="979" 
d="M926 0h-468v156h-225l-81 -156h-149l372 712h551v-124h-330v-168h282v-124h-282v-172h330v-124zM458 273v315l-165 -315h165z" />
    <glyph glyph-name="Ccedilla" unicode="&#xc7;" horiz-adv-x="620" 
d="M442 219h141c-13 -73 -44 -129 -91 -168c-45 -38 -101 -57 -170 -57c-76 0 -140 25 -191 75c-33 33 -54 73 -63 119c-6 31 -9 87 -9 168s3 137 9 168c9 46 30 86 63 119c51 50 115 75 191 75c68 0 125 -19 171 -57c47 -39 77 -95 90 -168h-142c-16 67 -56 101 -119 101
c-39 0 -68 -12 -89 -37c-23 -27 -35 -94 -35 -201s12 -174 35 -201c21 -25 50 -37 89 -37c64 0 104 34 120 101zM379 -60l-44 -146h-121l69 146h96z" />
    <glyph glyph-name="Egrave" unicode="&#xc8;" horiz-adv-x="605" 
d="M552 0h-469v712h469v-124h-330v-167h281v-124h-281v-173h330v-124zM365 781h-87l-114 170h137z" />
    <glyph glyph-name="Eacute" unicode="&#xc9;" horiz-adv-x="605" 
d="M552 0h-469v712h469v-124h-330v-167h281v-124h-281v-173h330v-124zM455 951l-114 -170h-87l64 170h137z" />
    <glyph glyph-name="Ecircumflex" unicode="&#xca;" horiz-adv-x="605" 
d="M552 0h-469v712h469v-124h-330v-167h281v-124h-281v-173h330v-124zM494 781h-101l-83 91l-83 -91h-101l132 169h104z" />
    <glyph glyph-name="Edieresis" unicode="&#xcb;" horiz-adv-x="605" 
d="M552 0h-469v712h469v-124h-330v-167h281v-124h-281v-173h330v-124zM476 783h-111v125h111v-125zM255 783h-111v125h111v-125z" />
    <glyph glyph-name="Igrave" unicode="&#xcc;" horiz-adv-x="305" 
d="M222 0h-139v712h139v-712zM222 781h-87l-114 170h137z" />
    <glyph glyph-name="Iacute" unicode="&#xcd;" horiz-adv-x="305" 
d="M222 0h-139v712h139v-712zM284 951l-114 -170h-87l64 170h137z" />
    <glyph glyph-name="Icircumflex" unicode="&#xce;" horiz-adv-x="305" 
d="M222 0h-139v712h139v-712zM336 781h-101l-83 91l-83 -91h-101l132 169h104z" />
    <glyph glyph-name="Idieresis" unicode="&#xcf;" horiz-adv-x="305" 
d="M222 0h-139v712h139v-712zM319 783h-111v125h111v-125zM98 783h-111v125h111v-125z" />
    <glyph glyph-name="Eth" unicode="&#xd0;" horiz-adv-x="682" 
d="M623 356c0 -127 -15 -211 -45 -252c-50 -69 -122 -104 -215 -104h-257v306h-69v106h69v300h257c93 0 165 -35 215 -104c30 -41 45 -125 45 -252zM484 356c0 102 -10 165 -29 188c-23 29 -58 44 -104 44h-106v-176h116v-106h-116v-182h106c46 0 81 15 104 44
c19 23 29 86 29 188z" />
    <glyph glyph-name="Ntilde" unicode="&#xd1;" horiz-adv-x="711" 
d="M628 0h-124l-282 437v-437h-139v712h124l282 -436v436h139v-712zM478 906l58 -57c-39 -39 -77 -59 -113 -59c-27 0 -53 8 -78 23c-21 12 -39 18 -56 18c-19 0 -39 -10 -58 -29l-56 57c39 39 77 59 112 59c26 0 52 -8 77 -23c20 -12 38 -18 55 -18c20 0 40 10 59 29z" />
    <glyph glyph-name="Ograve" unicode="&#xd2;" horiz-adv-x="644" 
d="M585 356c0 -81 -3 -137 -10 -168c-9 -46 -30 -86 -63 -119c-50 -50 -113 -75 -190 -75s-141 25 -191 75c-33 33 -54 73 -63 119c-6 31 -9 87 -9 168s3 137 9 168c9 46 30 86 63 119c50 50 114 75 191 75s140 -25 190 -75c33 -33 54 -73 63 -119c7 -31 10 -87 10 -168z
M446 356c0 106 -12 173 -35 200c-22 25 -52 38 -89 38s-67 -13 -90 -38s-34 -92 -34 -200c0 -107 11 -174 34 -199c24 -26 54 -39 90 -39c37 0 66 13 89 39c23 27 35 94 35 199zM377 781h-87l-114 170h137z" />
    <glyph glyph-name="Oacute" unicode="&#xd3;" horiz-adv-x="644" 
d="M585 356c0 -81 -3 -137 -10 -168c-9 -46 -30 -86 -63 -119c-50 -50 -113 -75 -190 -75s-141 25 -191 75c-33 33 -54 73 -63 119c-6 31 -9 87 -9 168s3 137 9 168c9 46 30 86 63 119c50 50 114 75 191 75s140 -25 190 -75c33 -33 54 -73 63 -119c7 -31 10 -87 10 -168z
M446 356c0 106 -12 173 -35 200c-22 25 -52 38 -89 38s-67 -13 -90 -38s-34 -92 -34 -200c0 -107 11 -174 34 -199c24 -26 54 -39 90 -39c37 0 66 13 89 39c23 27 35 94 35 199zM468 951l-114 -170h-87l64 170h137z" />
    <glyph glyph-name="Ocircumflex" unicode="&#xd4;" horiz-adv-x="644" 
d="M585 356c0 -81 -3 -137 -10 -168c-9 -46 -30 -86 -63 -119c-50 -50 -113 -75 -190 -75s-141 25 -191 75c-33 33 -54 73 -63 119c-6 31 -9 87 -9 168s3 137 9 168c9 46 30 86 63 119c50 50 114 75 191 75s140 -25 190 -75c33 -33 54 -73 63 -119c7 -31 10 -87 10 -168z
M446 356c0 106 -12 173 -35 200c-22 25 -52 38 -89 38s-67 -13 -90 -38s-34 -92 -34 -200c0 -107 11 -174 34 -199c24 -26 54 -39 90 -39c37 0 66 13 89 39c23 27 35 94 35 199zM506 781h-101l-83 91l-83 -91h-101l132 169h104z" />
    <glyph glyph-name="Otilde" unicode="&#xd5;" horiz-adv-x="644" 
d="M585 356c0 -81 -3 -137 -10 -168c-9 -46 -30 -86 -63 -119c-50 -50 -113 -75 -190 -75s-141 25 -191 75c-33 33 -54 73 -63 119c-6 31 -9 87 -9 168s3 137 9 168c9 46 30 86 63 119c50 50 114 75 191 75s140 -25 190 -75c33 -33 54 -73 63 -119c7 -31 10 -87 10 -168z
M446 356c0 106 -12 173 -35 200c-22 25 -52 38 -89 38s-67 -13 -90 -38s-34 -92 -34 -200c0 -107 11 -174 34 -199c24 -26 54 -39 90 -39c37 0 66 13 89 39c23 27 35 94 35 199zM444 906l58 -57c-39 -39 -77 -59 -113 -59c-27 0 -53 8 -78 23c-21 12 -39 18 -56 18
c-19 0 -39 -10 -58 -29l-56 57c39 39 77 59 112 59c26 0 52 -8 77 -23c20 -12 38 -18 55 -18c20 0 40 10 59 29z" />
    <glyph glyph-name="Odieresis" unicode="&#xd6;" horiz-adv-x="644" 
d="M585 356c0 -81 -3 -137 -10 -168c-9 -46 -30 -86 -63 -119c-50 -50 -113 -75 -190 -75s-141 25 -191 75c-33 33 -54 73 -63 119c-6 31 -9 87 -9 168s3 137 9 168c9 46 30 86 63 119c50 50 114 75 191 75s140 -25 190 -75c33 -33 54 -73 63 -119c7 -31 10 -87 10 -168z
M446 356c0 106 -12 173 -35 200c-22 25 -52 38 -89 38s-67 -13 -90 -38s-34 -92 -34 -200c0 -107 11 -174 34 -199c24 -26 54 -39 90 -39c37 0 66 13 89 39c23 27 35 94 35 199zM488 783h-111v125h111v-125zM267 783h-111v125h111v-125z" />
    <glyph glyph-name="multiply" unicode="&#xd7;" 
d="M494 145l-82 -82l-141 141l-140 -141l-82 82l141 141l-141 141l82 82l140 -141l141 141l82 -82l-141 -141z" />
    <glyph glyph-name="Oslash" unicode="&#xd8;" horiz-adv-x="644" 
d="M585 356c0 -81 -3 -137 -10 -168c-9 -46 -30 -86 -63 -119c-50 -50 -113 -75 -190 -75c-43 0 -81 7 -113 21l-29 -59h-99l53 110l-3 3c-33 33 -54 73 -63 119c-6 31 -9 87 -9 168s3 137 9 168c9 46 30 86 63 119c50 50 114 75 191 75c41 0 79 -7 113 -22l29 60h98
l-53 -110l3 -3c33 -33 54 -73 63 -119c7 -31 10 -87 10 -168zM446 356c0 74 -3 124 -10 150l-178 -371c19 -11 41 -17 64 -17c37 0 66 13 89 39c23 27 35 94 35 199zM198 356c0 -75 3 -125 9 -150l178 371c-19 11 -40 17 -63 17c-37 0 -67 -13 -90 -38s-34 -92 -34 -200z
" />
    <glyph glyph-name="Ugrave" unicode="&#xd9;" horiz-adv-x="668" 
d="M596 712v-468c0 -75 -25 -135 -76 -182c-49 -45 -111 -68 -186 -68s-137 23 -186 68c-51 47 -76 107 -76 182v468h139v-463c0 -41 11 -73 33 -96s52 -35 90 -35s68 12 90 35c23 23 34 55 34 96v463h138zM389 781h-87l-114 170h137z" />
    <glyph glyph-name="Uacute" unicode="&#xda;" horiz-adv-x="668" 
d="M596 712v-468c0 -75 -25 -135 -76 -182c-49 -45 -111 -68 -186 -68s-137 23 -186 68c-51 47 -76 107 -76 182v468h139v-463c0 -41 11 -73 33 -96s52 -35 90 -35s68 12 90 35c23 23 34 55 34 96v463h138zM480 951l-114 -170h-87l64 170h137z" />
    <glyph glyph-name="Ucircumflex" unicode="&#xdb;" horiz-adv-x="668" 
d="M596 712v-468c0 -75 -25 -135 -76 -182c-49 -45 -111 -68 -186 -68s-137 23 -186 68c-51 47 -76 107 -76 182v468h139v-463c0 -41 11 -73 33 -96s52 -35 90 -35s68 12 90 35c23 23 34 55 34 96v463h138zM518 781h-101l-83 91l-83 -91h-101l132 169h104z" />
    <glyph glyph-name="Udieresis" unicode="&#xdc;" horiz-adv-x="668" 
d="M596 712v-468c0 -75 -25 -135 -76 -182c-49 -45 -111 -68 -186 -68s-137 23 -186 68c-51 47 -76 107 -76 182v468h139v-463c0 -41 11 -73 33 -96s52 -35 90 -35s68 12 90 35c23 23 34 55 34 96v463h138zM500 783h-111v125h111v-125zM279 783h-111v125h111v-125z" />
    <glyph glyph-name="Yacute" unicode="&#xdd;" horiz-adv-x="572" 
d="M569 712l-214 -420v-292h-138v292l-214 420h151l133 -287l131 287h151zM431 951l-114 -170h-87l64 170h137z" />
    <glyph glyph-name="Thorn" unicode="&#xde;" horiz-adv-x="633" 
d="M594 360c0 -63 -21 -115 -62 -156c-44 -44 -102 -66 -173 -66h-137v-138h-139v712h139v-131h137c71 0 128 -22 173 -65c41 -41 62 -93 62 -156zM455 360c0 30 -9 53 -28 70c-19 18 -44 27 -75 27h-130v-195h130c31 0 56 9 75 27s28 42 28 71z" />
    <glyph glyph-name="germandbls" unicode="&#xdf;" horiz-adv-x="574" 
d="M516 321v-160c0 -50 -14 -90 -41 -119c-27 -28 -69 -42 -126 -42h-52v110h26c19 0 33 5 44 15c12 10 18 26 18 47v144c0 20 -5 35 -15 45c-10 11 -25 16 -45 16h-28v102h28c40 0 60 20 60 60c0 19 -6 34 -19 46c-15 13 -39 20 -70 20c-62 0 -93 -31 -93 -94v-511h-130
v521c0 67 21 117 64 151c39 31 92 46 161 46c66 0 118 -14 156 -42c41 -31 61 -75 61 -133c0 -51 -20 -88 -61 -113c41 -20 62 -56 62 -109z" />
    <glyph glyph-name="agrave" unicode="&#xe0;" horiz-adv-x="534" 
d="M467 0h-127v45c-33 -33 -76 -50 -128 -50c-58 0 -102 15 -133 46c-29 29 -43 68 -43 117c0 44 15 80 44 107c33 29 78 44 136 44h121v26c0 55 -32 82 -97 82c-41 0 -74 -15 -100 -45l-82 81c45 49 108 74 187 74c148 0 222 -61 222 -184v-343zM337 192v28h-99
c-51 0 -77 -20 -77 -60c0 -39 26 -59 79 -59c35 0 60 8 77 25c13 11 20 33 20 66zM316 604h-87l-114 170h137z" />
    <glyph glyph-name="aacute" unicode="&#xe1;" horiz-adv-x="534" 
d="M467 0h-127v45c-33 -33 -76 -50 -128 -50c-58 0 -102 15 -133 46c-29 29 -43 68 -43 117c0 44 15 80 44 107c33 29 78 44 136 44h121v26c0 55 -32 82 -97 82c-41 0 -74 -15 -100 -45l-82 81c45 49 108 74 187 74c148 0 222 -61 222 -184v-343zM337 192v28h-99
c-51 0 -77 -20 -77 -60c0 -39 26 -59 79 -59c35 0 60 8 77 25c13 11 20 33 20 66zM407 774l-114 -170h-87l64 170h137z" />
    <glyph glyph-name="acircumflex" unicode="&#xe2;" horiz-adv-x="534" 
d="M467 0h-127v45c-33 -33 -76 -50 -128 -50c-58 0 -102 15 -133 46c-29 29 -43 68 -43 117c0 44 15 80 44 107c33 29 78 44 136 44h121v26c0 55 -32 82 -97 82c-41 0 -74 -15 -100 -45l-82 81c45 49 108 74 187 74c148 0 222 -61 222 -184v-343zM337 192v28h-99
c-51 0 -77 -20 -77 -60c0 -39 26 -59 79 -59c35 0 60 8 77 25c13 11 20 33 20 66zM445 604h-101l-83 91l-83 -91h-101l132 169h104z" />
    <glyph glyph-name="atilde" unicode="&#xe3;" horiz-adv-x="534" 
d="M467 0h-127v45c-33 -33 -76 -50 -128 -50c-58 0 -102 15 -133 46c-29 29 -43 68 -43 117c0 44 15 80 44 107c33 29 78 44 136 44h121v26c0 55 -32 82 -97 82c-41 0 -74 -15 -100 -45l-82 81c45 49 108 74 187 74c148 0 222 -61 222 -184v-343zM337 192v28h-99
c-51 0 -77 -20 -77 -60c0 -39 26 -59 79 -59c35 0 60 8 77 25c13 11 20 33 20 66zM378 728l58 -57c-39 -39 -76 -58 -113 -58c-26 0 -52 7 -77 22c-21 12 -39 18 -56 18c-20 0 -39 -9 -58 -28l-57 57c39 39 76 58 112 58c27 0 53 -7 78 -22c19 -13 38 -19 55 -19
c19 0 39 10 58 29z" />
    <glyph glyph-name="adieresis" unicode="&#xe4;" horiz-adv-x="534" 
d="M467 0h-127v45c-33 -33 -76 -50 -128 -50c-58 0 -102 15 -133 46c-29 29 -43 68 -43 117c0 44 15 80 44 107c33 29 78 44 136 44h121v26c0 55 -32 82 -97 82c-41 0 -74 -15 -100 -45l-82 81c45 49 108 74 187 74c148 0 222 -61 222 -184v-343zM337 192v28h-99
c-51 0 -77 -20 -77 -60c0 -39 26 -59 79 -59c35 0 60 8 77 25c13 11 20 33 20 66zM428 606h-111v125h111v-125zM207 606h-111v125h111v-125z" />
    <glyph glyph-name="aring" unicode="&#xe5;" horiz-adv-x="534" 
d="M467 0h-127v45c-33 -33 -76 -50 -128 -50c-58 0 -102 15 -133 46c-29 29 -43 68 -43 117c0 44 15 80 44 107c33 29 78 44 136 44h121v26c0 55 -32 82 -97 82c-41 0 -74 -15 -100 -45l-82 81c45 49 108 74 187 74c148 0 222 -61 222 -184v-343zM337 192v28h-99
c-51 0 -77 -20 -77 -60c0 -39 26 -59 79 -59c35 0 60 8 77 25c13 11 20 33 20 66zM392 715c0 -36 -13 -67 -38 -92c-26 -26 -57 -39 -93 -39s-67 13 -92 39c-26 25 -39 56 -39 92s13 67 39 93c25 25 56 38 92 38c35 0 66 -13 93 -38c25 -25 38 -56 38 -93zM319 715
c0 16 -6 30 -17 41s-25 17 -41 17s-30 -6 -41 -17s-17 -25 -17 -41s6 -30 17 -41c11 -12 25 -18 41 -18c17 0 30 6 41 18c11 11 17 25 17 41z" />
    <glyph glyph-name="ae" unicode="&#xe6;" horiz-adv-x="838" 
d="M337 192v28h-99c-51 0 -77 -20 -77 -60c0 -39 26 -59 79 -59c35 0 60 8 77 25c13 11 20 33 20 66zM465 309h198c-1 22 -5 41 -12 56c-15 36 -44 54 -87 54s-72 -18 -87 -54c-7 -15 -11 -34 -12 -56zM395 67c-46 -49 -107 -73 -183 -73c-57 0 -102 16 -133 47
c-29 29 -43 68 -43 117c0 44 15 80 44 107c33 29 78 44 136 44h121v26c0 55 -32 82 -97 82c-41 0 -74 -15 -100 -45l-82 81c45 49 108 74 187 74s136 -19 171 -57c36 38 85 57 148 57c71 0 127 -23 168 -70c39 -47 59 -107 59 -182v-55h-326c0 -34 10 -62 29 -83
c21 -22 50 -33 85 -33c45 0 85 16 118 49l79 -77c-53 -55 -119 -82 -198 -82c-80 0 -141 24 -183 73z" />
    <glyph glyph-name="ccedilla" unicode="&#xe7;" horiz-adv-x="480" 
d="M364 152l88 -87c-45 -47 -103 -71 -172 -71c-63 0 -115 18 -155 54c-52 47 -78 118 -78 213s26 166 78 212c40 36 92 54 155 54c70 0 127 -23 172 -70l-88 -88c-25 27 -53 41 -84 41s-55 -11 -74 -34c-19 -25 -29 -63 -29 -115c0 -53 10 -91 29 -116
c19 -23 43 -34 74 -34s59 14 84 41zM325 -60l-44 -146h-121l69 146h96z" />
    <glyph glyph-name="egrave" unicode="&#xe8;" horiz-adv-x="548" 
d="M501 220h-326c0 -34 10 -62 29 -83c21 -22 50 -33 85 -33c45 0 85 16 118 49l79 -77c-53 -55 -119 -82 -198 -82c-161 0 -241 89 -241 267c0 83 21 149 63 197c41 46 96 69 164 69c71 0 127 -23 168 -70c39 -47 59 -107 59 -182v-55zM175 309h198c-1 22 -5 41 -12 56
c-16 36 -45 54 -87 54s-71 -18 -87 -54c-7 -15 -11 -34 -12 -56zM332 604h-87l-114 170h137z" />
    <glyph glyph-name="eacute" unicode="&#xe9;" horiz-adv-x="548" 
d="M501 220h-326c0 -34 10 -62 29 -83c21 -22 50 -33 85 -33c45 0 85 16 118 49l79 -77c-53 -55 -119 -82 -198 -82c-161 0 -241 89 -241 267c0 83 21 149 63 197c41 46 96 69 164 69c71 0 127 -23 168 -70c39 -47 59 -107 59 -182v-55zM175 309h198c-1 22 -5 41 -12 56
c-16 36 -45 54 -87 54s-71 -18 -87 -54c-7 -15 -11 -34 -12 -56zM423 774l-114 -170h-87l64 170h137z" />
    <glyph glyph-name="ecircumflex" unicode="&#xea;" horiz-adv-x="548" 
d="M501 220h-326c0 -34 10 -62 29 -83c21 -22 50 -33 85 -33c45 0 85 16 118 49l79 -77c-53 -55 -119 -82 -198 -82c-161 0 -241 89 -241 267c0 83 21 149 63 197c41 46 96 69 164 69c71 0 127 -23 168 -70c39 -47 59 -107 59 -182v-55zM175 309h198c-1 22 -5 41 -12 56
c-16 36 -45 54 -87 54s-71 -18 -87 -54c-7 -15 -11 -34 -12 -56zM461 604h-101l-83 91l-83 -91h-101l132 169h104z" />
    <glyph glyph-name="edieresis" unicode="&#xeb;" horiz-adv-x="548" 
d="M501 220h-326c0 -34 10 -62 29 -83c21 -22 50 -33 85 -33c45 0 85 16 118 49l79 -77c-53 -55 -119 -82 -198 -82c-161 0 -241 89 -241 267c0 83 21 149 63 197c41 46 96 69 164 69c71 0 127 -23 168 -70c39 -47 59 -107 59 -182v-55zM175 309h198c-1 22 -5 41 -12 56
c-16 36 -45 54 -87 54s-71 -18 -87 -54c-7 -15 -11 -34 -12 -56zM443 606h-111v125h111v-125zM222 606h-111v125h111v-125z" />
    <glyph glyph-name="igrave" unicode="&#xec;" horiz-adv-x="275" 
d="M203 0h-130v506h130v-506zM202 604h-87l-114 170h137z" />
    <glyph glyph-name="iacute" unicode="&#xed;" horiz-adv-x="275" 
d="M203 0h-130v506h130v-506zM273 774l-114 -170h-87l64 170h137z" />
    <glyph glyph-name="icircumflex" unicode="&#xee;" horiz-adv-x="275" 
d="M203 0h-130v506h130v-506zM321 604h-101l-83 91l-83 -91h-101l132 169h104z" />
    <glyph glyph-name="idieresis" unicode="&#xef;" horiz-adv-x="275" 
d="M203 0h-130v506h130v-506zM304 606h-111v125h111v-125zM83 606h-111v125h111v-125z" />
    <glyph glyph-name="eth" unicode="&#xf0;" 
d="M486 254c0 -91 -19 -157 -58 -198c-40 -41 -92 -62 -157 -62s-117 21 -157 62c-39 41 -58 107 -58 198s19 156 58 197c21 23 50 39 89 49c20 5 39 8 58 8c9 0 15 0 18 -1l-34 62h-114v91h68l-31 60h139l31 -60h92v-91h-46l40 -77c41 -81 62 -160 62 -238zM356 254
c0 61 -9 101 -27 120c-15 15 -34 22 -58 22c-23 0 -42 -7 -57 -22c-19 -19 -28 -59 -28 -120c0 -62 9 -102 28 -121c15 -15 34 -22 57 -22c24 0 43 7 58 22c18 19 27 60 27 121z" />
    <glyph glyph-name="ntilde" unicode="&#xf1;" horiz-adv-x="573" 
d="M506 0h-130v315c0 33 -9 57 -28 74c-15 14 -34 21 -58 21s-44 -7 -59 -21c-19 -17 -28 -41 -28 -74v-315h-130v521h127v-48c34 36 77 54 130 54c51 0 92 -15 123 -46c35 -35 53 -85 53 -148v-333zM407 728l58 -57c-39 -39 -76 -58 -113 -58c-26 0 -52 7 -77 22
c-21 12 -39 18 -56 18c-20 0 -39 -9 -58 -28l-57 57c39 39 76 58 112 58c27 0 53 -7 78 -22c19 -13 38 -19 55 -19c19 0 39 10 58 29z" />
    <glyph glyph-name="ograve" unicode="&#xf2;" 
d="M492 261c0 -95 -20 -162 -59 -203c-41 -43 -95 -64 -162 -64s-120 21 -161 64c-39 43 -59 110 -59 203c0 92 20 159 59 202c41 43 94 64 161 64c68 0 122 -21 162 -64c39 -43 59 -110 59 -202zM362 261c0 65 -10 107 -30 126c-15 15 -36 23 -61 23s-45 -8 -60 -23
c-20 -19 -30 -61 -30 -126s10 -108 30 -127c15 -15 35 -23 60 -23s46 8 61 23c20 19 30 62 30 127zM323 604h-87l-114 170h137z" />
    <glyph glyph-name="oacute" unicode="&#xf3;" 
d="M492 261c0 -95 -20 -162 -59 -203c-41 -43 -95 -64 -162 -64s-120 21 -161 64c-39 43 -59 110 -59 203c0 92 20 159 59 202c41 43 94 64 161 64c68 0 122 -21 162 -64c39 -43 59 -110 59 -202zM362 261c0 65 -10 107 -30 126c-15 15 -36 23 -61 23s-45 -8 -60 -23
c-20 -19 -30 -61 -30 -126s10 -108 30 -127c15 -15 35 -23 60 -23s46 8 61 23c20 19 30 62 30 127zM418 774l-114 -170h-87l64 170h137z" />
    <glyph glyph-name="ocircumflex" unicode="&#xf4;" 
d="M492 261c0 -95 -20 -162 -59 -203c-41 -43 -95 -64 -162 -64s-120 21 -161 64c-39 43 -59 110 -59 203c0 92 20 159 59 202c41 43 94 64 161 64c68 0 122 -21 162 -64c39 -43 59 -110 59 -202zM362 261c0 65 -10 107 -30 126c-15 15 -36 23 -61 23s-45 -8 -60 -23
c-20 -19 -30 -61 -30 -126s10 -108 30 -127c15 -15 35 -23 60 -23s46 8 61 23c20 19 30 62 30 127zM456 604h-101l-83 91l-83 -91h-101l132 169h104z" />
    <glyph glyph-name="otilde" unicode="&#xf5;" 
d="M492 261c0 -95 -20 -162 -59 -203c-41 -43 -95 -64 -162 -64s-120 21 -161 64c-39 43 -59 110 -59 203c0 92 20 159 59 202c41 43 94 64 161 64c68 0 122 -21 162 -64c39 -43 59 -110 59 -202zM362 261c0 65 -10 107 -30 126c-15 15 -36 23 -61 23s-45 -8 -60 -23
c-20 -19 -30 -61 -30 -126s10 -108 30 -127c15 -15 35 -23 60 -23s46 8 61 23c20 19 30 62 30 127zM389 728l58 -57c-39 -39 -76 -58 -113 -58c-26 0 -52 7 -77 22c-21 12 -39 18 -56 18c-20 0 -39 -9 -58 -28l-57 57c39 39 76 58 112 58c27 0 53 -7 78 -22
c19 -13 38 -19 55 -19c19 0 39 10 58 29z" />
    <glyph glyph-name="odieresis" unicode="&#xf6;" 
d="M492 261c0 -95 -20 -162 -59 -203c-41 -43 -95 -64 -162 -64s-120 21 -161 64c-39 43 -59 110 -59 203c0 92 20 159 59 202c41 43 94 64 161 64c68 0 122 -21 162 -64c39 -43 59 -110 59 -202zM362 261c0 65 -10 107 -30 126c-15 15 -36 23 -61 23s-45 -8 -60 -23
c-20 -19 -30 -61 -30 -126s10 -108 30 -127c15 -15 35 -23 60 -23s46 8 61 23c20 19 30 62 30 127zM438 606h-111v125h111v-125zM217 606h-111v125h111v-125z" />
    <glyph glyph-name="divide" unicode="&#xf7;" 
d="M497 225h-451v121h451v-121zM337 423h-130v130h130v-130zM337 18h-130v130h130v-130z" />
    <glyph glyph-name="oslash" unicode="&#xf8;" 
d="M492 261c0 -94 -20 -162 -59 -203c-40 -43 -94 -64 -162 -64c-37 0 -72 8 -104 23l-36 -61h-79l59 101c-40 41 -60 109 -60 204c0 93 20 161 59 202c40 43 94 64 161 64c41 0 76 -7 105 -22l35 60h80l-59 -100c40 -44 60 -112 60 -204zM362 261c0 34 -3 62 -8 85
l-131 -222c13 -9 29 -13 48 -13c25 0 46 8 61 23c20 20 30 62 30 127zM188 175l132 222c-13 9 -30 13 -49 13c-25 0 -45 -8 -60 -23c-20 -20 -30 -62 -30 -126c0 -39 2 -68 7 -86z" />
    <glyph glyph-name="ugrave" unicode="&#xf9;" horiz-adv-x="573" 
d="M500 0h-127v48c-34 -36 -77 -54 -130 -54c-51 0 -92 15 -123 46c-35 35 -53 85 -53 148v333h130v-315c0 -33 9 -57 28 -74c15 -14 35 -21 58 -21c25 0 44 7 59 21c19 17 28 41 28 74v315h130v-521zM338 604h-87l-114 170h137z" />
    <glyph glyph-name="uacute" unicode="&#xfa;" horiz-adv-x="573" 
d="M500 0h-127v48c-34 -36 -77 -54 -130 -54c-51 0 -92 15 -123 46c-35 35 -53 85 -53 148v333h130v-315c0 -33 9 -57 28 -74c15 -14 35 -21 58 -21c25 0 44 7 59 21c19 17 28 41 28 74v315h130v-521zM429 774l-114 -170h-87l64 170h137z" />
    <glyph glyph-name="ucircumflex" unicode="&#xfb;" horiz-adv-x="573" 
d="M500 0h-127v48c-34 -36 -77 -54 -130 -54c-51 0 -92 15 -123 46c-35 35 -53 85 -53 148v333h130v-315c0 -33 9 -57 28 -74c15 -14 35 -21 58 -21c25 0 44 7 59 21c19 17 28 41 28 74v315h130v-521zM467 604h-101l-83 91l-83 -91h-101l132 169h104z" />
    <glyph glyph-name="udieresis" unicode="&#xfc;" horiz-adv-x="573" 
d="M500 0h-127v48c-34 -36 -77 -54 -130 -54c-51 0 -92 15 -123 46c-35 35 -53 85 -53 148v333h130v-315c0 -33 9 -57 28 -74c15 -14 35 -21 58 -21c25 0 44 7 59 21c19 17 28 41 28 74v315h130v-521zM450 606h-111v125h111v-125zM229 606h-111v125h111v-125z" />
    <glyph glyph-name="yacute" unicode="&#xfd;" horiz-adv-x="494" 
d="M490 521l-223 -605c-11 -29 -24 -52 -39 -67c-27 -27 -64 -40 -112 -40h-51v117h30c32 0 54 16 65 47l22 64l-178 484h137l108 -322l104 322h137zM390 774l-114 -170h-87l64 170h137z" />
    <glyph glyph-name="thorn" unicode="&#xfe;" horiz-adv-x="562" 
d="M509 261c0 -109 -18 -183 -54 -220c-30 -31 -72 -47 -126 -47s-96 17 -126 52v-237h-130v903h130v-237c30 35 72 52 126 52s96 -16 126 -47c36 -37 54 -110 54 -219zM379 261c0 50 -5 85 -15 106c-13 29 -37 43 -73 43s-60 -14 -73 -43c-10 -21 -15 -56 -15 -106
c0 -49 5 -85 15 -106c13 -29 38 -44 73 -44s60 15 73 44c10 21 15 57 15 106z" />
    <glyph glyph-name="ydieresis" unicode="&#xff;" horiz-adv-x="494" 
d="M490 521l-223 -605c-11 -29 -24 -52 -39 -67c-27 -27 -64 -40 -112 -40h-51v117h30c32 0 54 16 65 47l22 64l-178 484h137l108 -322l104 322h137zM415 606h-111v125h111v-125zM194 606h-111v125h111v-125z" />
    <glyph glyph-name="Amacron" unicode="&#x100;" horiz-adv-x="638" 
d="M633 0h-145l-42 126h-253l-43 -126h-145l259 712h109zM409 243l-87 259l-90 -259h177zM159 793v88h317v-88h-317z" />
    <glyph glyph-name="amacron" unicode="&#x101;" horiz-adv-x="534" 
d="M467 0h-127v45c-33 -33 -76 -50 -128 -50c-58 0 -102 15 -133 46c-29 29 -43 68 -43 117c0 44 15 80 44 107c33 29 78 44 136 44h121v26c0 55 -32 82 -97 82c-41 0 -74 -15 -100 -45l-82 81c45 49 108 74 187 74c148 0 222 -61 222 -184v-343zM337 192v28h-99
c-51 0 -77 -20 -77 -60c0 -39 26 -59 79 -59c35 0 60 8 77 25c13 11 20 33 20 66zM424 623h-317v88h317v-88z" />
    <glyph glyph-name="Abreve" unicode="&#x102;" horiz-adv-x="638" 
d="M633 0h-145l-42 126h-253l-43 -126h-145l259 712h109zM409 243l-87 259l-90 -259h177zM395 930h87c-3 -51 -21 -90 -52 -116c-29 -23 -66 -35 -112 -35s-84 12 -113 35c-32 26 -49 65 -51 116h87c5 -40 31 -60 77 -60c47 0 72 20 77 60z" />
    <glyph glyph-name="abreve" unicode="&#x103;" horiz-adv-x="534" 
d="M467 0h-127v45c-33 -33 -76 -50 -128 -50c-58 0 -102 15 -133 46c-29 29 -43 68 -43 117c0 44 15 80 44 107c33 29 78 44 136 44h121v26c0 55 -32 82 -97 82c-41 0 -74 -15 -100 -45l-82 81c45 49 108 74 187 74c148 0 222 -61 222 -184v-343zM337 192v28h-99
c-51 0 -77 -20 -77 -60c0 -39 26 -59 79 -59c35 0 60 8 77 25c13 11 20 33 20 66zM332 748h87c-3 -51 -21 -90 -52 -116c-29 -23 -66 -35 -112 -35s-84 12 -113 35c-32 26 -49 65 -51 116h87c5 -40 31 -60 77 -60c47 0 72 20 77 60z" />
    <glyph glyph-name="Aogonek" unicode="&#x104;" horiz-adv-x="638" 
d="M633 0h-145l-42 126h-253l-43 -126h-145l259 712h109zM409 243l-87 259l-90 -259h177zM584 -60l-44 -146h-121l69 146h96z" />
    <glyph glyph-name="aogonek" unicode="&#x105;" horiz-adv-x="534" 
d="M467 0h-127v45c-33 -33 -76 -50 -128 -50c-58 0 -102 15 -133 46c-29 29 -43 68 -43 117c0 44 15 80 44 107c33 29 78 44 136 44h121v26c0 55 -32 82 -97 82c-41 0 -74 -15 -100 -45l-82 81c45 49 108 74 187 74c148 0 222 -61 222 -184v-343zM337 192v28h-99
c-51 0 -77 -20 -77 -60c0 -39 26 -59 79 -59c35 0 60 8 77 25c13 11 20 33 20 66zM436 -60l-44 -146h-121l69 146h96z" />
    <glyph glyph-name="Cacute" unicode="&#x106;" horiz-adv-x="620" 
d="M442 219h141c-13 -73 -44 -129 -91 -168c-45 -38 -101 -57 -170 -57c-76 0 -140 25 -191 75c-33 33 -54 73 -63 119c-6 31 -9 87 -9 168s3 137 9 168c9 46 30 86 63 119c51 50 115 75 191 75c68 0 125 -19 171 -57c47 -39 77 -95 90 -168h-142c-16 67 -56 101 -119 101
c-39 0 -68 -12 -89 -37c-23 -27 -35 -94 -35 -201s12 -174 35 -201c21 -25 50 -37 89 -37c64 0 104 34 120 101zM456 951l-114 -170h-87l64 170h137z" />
    <glyph glyph-name="cacute" unicode="&#x107;" horiz-adv-x="480" 
d="M364 152l88 -87c-45 -47 -103 -71 -172 -71c-63 0 -115 18 -155 54c-52 47 -78 118 -78 213s26 166 78 212c40 36 92 54 155 54c70 0 127 -23 172 -70l-88 -88c-25 27 -53 41 -84 41s-55 -11 -74 -34c-19 -25 -29 -63 -29 -115c0 -53 10 -91 29 -116
c19 -23 43 -34 74 -34s59 14 84 41zM411 774l-114 -170h-87l64 170h137z" />
    <glyph glyph-name="Ccircumflex" unicode="&#x108;" horiz-adv-x="620" 
d="M442 219h141c-13 -73 -44 -129 -91 -168c-45 -38 -101 -57 -170 -57c-76 0 -140 25 -191 75c-33 33 -54 73 -63 119c-6 31 -9 87 -9 168s3 137 9 168c9 46 30 86 63 119c51 50 115 75 191 75c68 0 125 -19 171 -57c47 -39 77 -95 90 -168h-142c-16 67 -56 101 -119 101
c-39 0 -68 -12 -89 -37c-23 -27 -35 -94 -35 -201s12 -174 35 -201c21 -25 50 -37 89 -37c64 0 104 34 120 101zM506 781h-101l-83 91l-83 -91h-101l132 169h104z" />
    <glyph glyph-name="ccircumflex" unicode="&#x109;" horiz-adv-x="480" 
d="M364 152l88 -87c-45 -47 -103 -71 -172 -71c-63 0 -115 18 -155 54c-52 47 -78 118 -78 213s26 166 78 212c40 36 92 54 155 54c70 0 127 -23 172 -70l-88 -88c-25 27 -53 41 -84 41s-55 -11 -74 -34c-19 -25 -29 -63 -29 -115c0 -53 10 -91 29 -116
c19 -23 43 -34 74 -34s59 14 84 41zM464 604h-101l-83 91l-83 -91h-101l132 169h104z" />
    <glyph glyph-name="Cdotaccent" unicode="&#x10a;" horiz-adv-x="620" 
d="M442 219h141c-13 -73 -44 -129 -91 -168c-45 -38 -101 -57 -170 -57c-76 0 -140 25 -191 75c-33 33 -54 73 -63 119c-6 31 -9 87 -9 168s3 137 9 168c9 46 30 86 63 119c51 50 115 75 191 75c68 0 125 -19 171 -57c47 -39 77 -95 90 -168h-142c-16 67 -56 101 -119 101
c-39 0 -68 -12 -89 -37c-23 -27 -35 -94 -35 -201s12 -174 35 -201c21 -25 50 -37 89 -37c64 0 104 34 120 101zM261 789v116h115v-116h-115z" />
    <glyph glyph-name="cdotaccent" unicode="&#x10b;" horiz-adv-x="480" 
d="M364 152l88 -87c-45 -47 -103 -71 -172 -71c-63 0 -115 18 -155 54c-52 47 -78 118 -78 213s26 166 78 212c40 36 92 54 155 54c70 0 127 -23 172 -70l-88 -88c-25 27 -53 41 -84 41s-55 -11 -74 -34c-19 -25 -29 -63 -29 -115c0 -53 10 -91 29 -116
c19 -23 43 -34 74 -34s59 14 84 41zM222 612v115h115v-115h-115z" />
    <glyph glyph-name="Ccaron" unicode="&#x10c;" horiz-adv-x="620" 
d="M442 219h141c-13 -73 -44 -129 -91 -168c-45 -38 -101 -57 -170 -57c-76 0 -140 25 -191 75c-33 33 -54 73 -63 119c-6 31 -9 87 -9 168s3 137 9 168c9 46 30 86 63 119c51 50 115 75 191 75c68 0 125 -19 171 -57c47 -39 77 -95 90 -168h-142c-16 67 -56 101 -119 101
c-39 0 -68 -12 -89 -37c-23 -27 -35 -94 -35 -201s12 -174 35 -201c21 -25 50 -37 89 -37c64 0 104 34 120 101zM506 950l-132 -169h-104l-132 169h101l83 -90l83 90h101z" />
    <glyph glyph-name="ccaron" unicode="&#x10d;" horiz-adv-x="480" 
d="M364 152l88 -87c-45 -47 -103 -71 -172 -71c-63 0 -115 18 -155 54c-52 47 -78 118 -78 213s26 166 78 212c40 36 92 54 155 54c70 0 127 -23 172 -70l-88 -88c-25 27 -53 41 -84 41s-55 -11 -74 -34c-19 -25 -29 -63 -29 -115c0 -53 10 -91 29 -116
c19 -23 43 -34 74 -34s59 14 84 41zM464 773l-132 -169h-104l-132 169h101l83 -90l83 90h101z" />
    <glyph glyph-name="Dcaron" unicode="&#x10e;" horiz-adv-x="659" 
d="M600 356c0 -127 -15 -211 -45 -252c-50 -69 -122 -104 -215 -104h-257v712h257c93 0 165 -35 215 -104c30 -41 45 -125 45 -252zM461 356c0 102 -10 165 -29 188c-23 29 -58 44 -104 44h-106v-464h106c46 0 81 15 104 44c19 23 29 86 29 188zM513 950l-132 -169h-104
l-132 169h101l83 -90l83 90h101z" />
    <glyph glyph-name="dcaron" unicode="&#x10f;" horiz-adv-x="561" 
d="M488 0h-127v49c-33 -37 -76 -55 -129 -55c-55 0 -97 16 -127 47c-36 37 -54 110 -54 220c0 109 18 182 54 219c30 31 72 47 126 47s96 -17 127 -52v237h130v-712zM358 261c0 49 -5 84 -15 106c-13 29 -37 43 -74 43c-36 0 -60 -14 -73 -43c-10 -21 -15 -56 -15 -106
c0 -49 5 -85 15 -106c13 -29 38 -44 73 -44c36 0 61 15 74 44c10 21 15 57 15 106zM698 741l-60 -166h-91l36 166h115z" />
    <glyph glyph-name="Dcroat" unicode="&#x110;" horiz-adv-x="682" 
d="M623 356c0 -127 -15 -211 -45 -252c-50 -69 -122 -104 -215 -104h-257v306h-69v106h69v300h257c93 0 165 -35 215 -104c30 -41 45 -125 45 -252zM484 356c0 102 -10 165 -29 188c-23 29 -58 44 -104 44h-106v-176h116v-106h-116v-182h106c46 0 81 15 104 44
c19 23 29 86 29 188z" />
    <glyph glyph-name="dslash" unicode="&#x111;" horiz-adv-x="581" 
d="M488 0h-127v49c-33 -37 -76 -55 -129 -55c-55 0 -97 16 -127 47c-36 37 -54 110 -54 220c0 109 18 182 54 219c30 31 72 47 126 47s96 -17 127 -52v92h-89v82h89v63h130v-63h60v-82h-60v-567zM358 261c0 49 -5 84 -15 106c-13 29 -37 43 -74 43c-36 0 -60 -14 -73 -43
c-10 -21 -15 -56 -15 -106c0 -49 5 -85 15 -106c13 -29 38 -44 73 -44c36 0 61 15 74 44c10 21 15 57 15 106z" />
    <glyph glyph-name="Emacron" unicode="&#x112;" horiz-adv-x="605" 
d="M552 0h-469v712h469v-124h-330v-167h281v-124h-281v-173h330v-124zM148 793v88h317v-88h-317z" />
    <glyph glyph-name="emacron" unicode="&#x113;" horiz-adv-x="548" 
d="M501 220h-326c0 -34 10 -62 29 -83c21 -22 50 -33 85 -33c45 0 85 16 118 49l79 -77c-53 -55 -119 -82 -198 -82c-161 0 -241 89 -241 267c0 83 21 149 63 197c41 46 96 69 164 69c71 0 127 -23 168 -70c39 -47 59 -107 59 -182v-55zM175 309h198c-1 22 -5 41 -12 56
c-16 36 -45 54 -87 54s-71 -18 -87 -54c-7 -15 -11 -34 -12 -56zM431 623h-317v88h317v-88z" />
    <glyph glyph-name="Ebreve" unicode="&#x114;" horiz-adv-x="605" 
d="M552 0h-469v712h469v-124h-330v-167h281v-124h-281v-173h330v-124zM387 930h87c-3 -51 -21 -90 -52 -116c-29 -23 -66 -35 -112 -35s-84 12 -113 35c-32 26 -49 65 -51 116h87c5 -40 31 -60 77 -60c47 0 72 20 77 60z" />
    <glyph glyph-name="ebreve" unicode="&#x115;" horiz-adv-x="548" 
d="M501 220h-326c0 -34 10 -62 29 -83c21 -22 50 -33 85 -33c45 0 85 16 118 49l79 -77c-53 -55 -119 -82 -198 -82c-161 0 -241 89 -241 267c0 83 21 149 63 197c41 46 96 69 164 69c71 0 127 -23 168 -70c39 -47 59 -107 59 -182v-55zM175 309h198c-1 22 -5 41 -12 56
c-16 36 -45 54 -87 54s-71 -18 -87 -54c-7 -15 -11 -34 -12 -56zM354 748h87c-3 -51 -21 -90 -52 -116c-29 -23 -66 -35 -112 -35s-84 12 -113 35c-32 26 -49 65 -51 116h87c5 -40 31 -60 77 -60c47 0 72 20 77 60z" />
    <glyph glyph-name="Edotaccent" unicode="&#x116;" horiz-adv-x="605" 
d="M552 0h-469v712h469v-124h-330v-167h281v-124h-281v-173h330v-124zM249 789v116h115v-116h-115z" />
    <glyph glyph-name="edotaccent" unicode="&#x117;" horiz-adv-x="548" 
d="M501 220h-326c0 -34 10 -62 29 -83c21 -22 50 -33 85 -33c45 0 85 16 118 49l79 -77c-53 -55 -119 -82 -198 -82c-161 0 -241 89 -241 267c0 83 21 149 63 197c41 46 96 69 164 69c71 0 127 -23 168 -70c39 -47 59 -107 59 -182v-55zM175 309h198c-1 22 -5 41 -12 56
c-16 36 -45 54 -87 54s-71 -18 -87 -54c-7 -15 -11 -34 -12 -56zM215 612v115h115v-115h-115z" />
    <glyph glyph-name="Eogonek" unicode="&#x118;" horiz-adv-x="605" 
d="M552 0h-469v712h469v-124h-330v-167h281v-124h-281v-173h330v-124zM552 -60l-44 -146h-121l69 146h96z" />
    <glyph glyph-name="eogonek" unicode="&#x119;" horiz-adv-x="548" 
d="M501 220h-326c0 -34 10 -62 29 -83c21 -22 50 -33 85 -33c45 0 85 16 118 49l79 -77c-53 -55 -119 -82 -198 -82c-161 0 -241 89 -241 267c0 83 21 149 63 197c41 46 96 69 164 69c71 0 127 -23 168 -70c39 -47 59 -107 59 -182v-55zM175 309h198c-1 22 -5 41 -12 56
c-16 36 -45 54 -87 54s-71 -18 -87 -54c-7 -15 -11 -34 -12 -56zM407 -60l-44 -146h-121l69 146h96z" />
    <glyph glyph-name="Ecaron" unicode="&#x11a;" horiz-adv-x="605" 
d="M552 0h-469v712h469v-124h-330v-167h281v-124h-281v-173h330v-124zM490 950l-132 -169h-104l-132 169h101l83 -90l83 90h101z" />
    <glyph glyph-name="ecaron" unicode="&#x11b;" horiz-adv-x="548" 
d="M501 220h-326c0 -34 10 -62 29 -83c21 -22 50 -33 85 -33c45 0 85 16 118 49l79 -77c-53 -55 -119 -82 -198 -82c-161 0 -241 89 -241 267c0 83 21 149 63 197c41 46 96 69 164 69c71 0 127 -23 168 -70c39 -47 59 -107 59 -182v-55zM175 309h198c-1 22 -5 41 -12 56
c-16 36 -45 54 -87 54s-71 -18 -87 -54c-7 -15 -11 -34 -12 -56zM458 773l-132 -169h-104l-132 169h101l83 -90l83 90h101z" />
    <glyph glyph-name="Gcircumflex" unicode="&#x11c;" horiz-adv-x="649" 
d="M590 396v-104c0 -97 -23 -170 -68 -217c-51 -54 -118 -81 -201 -81c-75 0 -139 25 -190 75c-33 33 -54 73 -63 119c-6 31 -9 87 -9 168s3 137 9 168c9 46 30 86 63 119c51 50 115 75 190 75c78 0 141 -23 189 -69c41 -41 68 -94 79 -159h-140c-16 69 -59 104 -128 104
c-36 0 -66 -13 -89 -38s-34 -92 -34 -200c0 -109 11 -176 34 -201s52 -37 89 -37c43 0 76 13 99 40c21 25 32 56 32 95v26h-131v117h269zM506 781h-101l-83 91l-83 -91h-101l132 169h104z" />
    <glyph glyph-name="gcircumflex" unicode="&#x11d;" horiz-adv-x="555" 
d="M482 521v-502c0 -63 -21 -115 -62 -155c-41 -41 -97 -61 -167 -61c-79 0 -142 23 -189 68l81 82c27 -27 61 -40 102 -40c36 0 63 11 82 34c15 19 23 44 23 74v53c-31 -35 -72 -52 -124 -52s-93 15 -124 46c-35 35 -53 104 -53 207c0 102 18 171 53 206
c31 31 72 46 125 46c52 0 94 -18 127 -55v49h126zM352 275c0 41 -5 72 -14 93c-13 28 -37 42 -72 42c-34 0 -58 -14 -71 -42c-9 -20 -14 -51 -14 -93s5 -73 14 -94c13 -28 37 -42 71 -42c35 0 59 14 72 42c9 21 14 52 14 94zM450 604h-101l-83 91l-83 -91h-101l132 169h104z
" />
    <glyph glyph-name="Gbreve" unicode="&#x11e;" horiz-adv-x="649" 
d="M590 396v-104c0 -97 -23 -170 -68 -217c-51 -54 -118 -81 -201 -81c-75 0 -139 25 -190 75c-33 33 -54 73 -63 119c-6 31 -9 87 -9 168s3 137 9 168c9 46 30 86 63 119c51 50 115 75 190 75c78 0 141 -23 189 -69c41 -41 68 -94 79 -159h-140c-16 69 -59 104 -128 104
c-36 0 -66 -13 -89 -38s-34 -92 -34 -200c0 -109 11 -176 34 -201s52 -37 89 -37c43 0 76 13 99 40c21 25 32 56 32 95v26h-131v117h269zM398 930h87c-3 -51 -21 -90 -52 -116c-29 -23 -66 -35 -112 -35s-84 12 -113 35c-32 26 -49 65 -51 116h87c5 -40 31 -60 77 -60
c47 0 72 20 77 60z" />
    <glyph glyph-name="gbreve" unicode="&#x11f;" horiz-adv-x="555" 
d="M482 521v-502c0 -63 -21 -115 -62 -155c-41 -41 -97 -61 -167 -61c-79 0 -142 23 -189 68l81 82c27 -27 61 -40 102 -40c36 0 63 11 82 34c15 19 23 44 23 74v53c-31 -35 -72 -52 -124 -52s-93 15 -124 46c-35 35 -53 104 -53 207c0 102 18 171 53 206
c31 31 72 46 125 46c52 0 94 -18 127 -55v49h126zM352 275c0 41 -5 72 -14 93c-13 28 -37 42 -72 42c-34 0 -58 -14 -71 -42c-9 -20 -14 -51 -14 -93s5 -73 14 -94c13 -28 37 -42 71 -42c35 0 59 14 72 42c9 21 14 52 14 94zM343 748h87c-3 -51 -21 -90 -52 -116
c-29 -23 -66 -35 -112 -35s-84 12 -113 35c-32 26 -49 65 -51 116h87c5 -40 31 -60 77 -60c47 0 72 20 77 60z" />
    <glyph glyph-name="Gdotaccent" unicode="&#x120;" horiz-adv-x="649" 
d="M590 396v-104c0 -97 -23 -170 -68 -217c-51 -54 -118 -81 -201 -81c-75 0 -139 25 -190 75c-33 33 -54 73 -63 119c-6 31 -9 87 -9 168s3 137 9 168c9 46 30 86 63 119c51 50 115 75 190 75c78 0 141 -23 189 -69c41 -41 68 -94 79 -159h-140c-16 69 -59 104 -128 104
c-36 0 -66 -13 -89 -38s-34 -92 -34 -200c0 -109 11 -176 34 -201s52 -37 89 -37c43 0 76 13 99 40c21 25 32 56 32 95v26h-131v117h269zM263 789v116h115v-116h-115z" />
    <glyph glyph-name="gdotaccent" unicode="&#x121;" horiz-adv-x="555" 
d="M482 521v-502c0 -63 -21 -115 -62 -155c-41 -41 -97 -61 -167 -61c-79 0 -142 23 -189 68l81 82c27 -27 61 -40 102 -40c36 0 63 11 82 34c15 19 23 44 23 74v53c-31 -35 -72 -52 -124 -52s-93 15 -124 46c-35 35 -53 104 -53 207c0 102 18 171 53 206
c31 31 72 46 125 46c52 0 94 -18 127 -55v49h126zM352 275c0 41 -5 72 -14 93c-13 28 -37 42 -72 42c-34 0 -58 -14 -71 -42c-9 -20 -14 -51 -14 -93s5 -73 14 -94c13 -28 37 -42 71 -42c35 0 59 14 72 42c9 21 14 52 14 94zM208 612v115h115v-115h-115z" />
    <glyph glyph-name="uni0122" unicode="&#x122;" horiz-adv-x="649" 
d="M590 396v-104c0 -97 -23 -170 -68 -217c-51 -54 -118 -81 -201 -81c-75 0 -139 25 -190 75c-33 33 -54 73 -63 119c-6 31 -9 87 -9 168s3 137 9 168c9 46 30 86 63 119c51 50 115 75 190 75c78 0 141 -23 189 -69c41 -41 68 -94 79 -159h-140c-16 69 -59 104 -128 104
c-36 0 -66 -13 -89 -38s-34 -92 -34 -200c0 -109 11 -176 34 -201s52 -37 89 -37c43 0 76 13 99 40c21 25 32 56 32 95v26h-131v117h269zM399 -60l-44 -146h-121l69 146h96z" />
    <glyph glyph-name="uni0123" unicode="&#x123;" horiz-adv-x="555" 
d="M482 521v-502c0 -63 -21 -115 -62 -155c-41 -41 -97 -61 -167 -61c-79 0 -142 23 -189 68l81 82c27 -27 61 -40 102 -40c36 0 63 11 82 34c15 19 23 44 23 74v53c-31 -35 -72 -52 -124 -52s-93 15 -124 46c-35 35 -53 104 -53 207c0 102 18 171 53 206
c31 31 72 46 125 46c52 0 94 -18 127 -55v49h126zM352 275c0 41 -5 72 -14 93c-13 28 -37 42 -72 42c-34 0 -58 -14 -71 -42c-9 -20 -14 -51 -14 -93s5 -73 14 -94c13 -28 37 -42 71 -42c35 0 59 14 72 42c9 21 14 52 14 94zM423 774l-114 -170h-87l64 170h137z" />
    <glyph glyph-name="Hcircumflex" unicode="&#x124;" horiz-adv-x="685" 
d="M602 0h-139v298h-241v-298h-139v712h139v-291h241v291h139v-712zM527 781h-101l-83 91l-83 -91h-101l132 169h104z" />
    <glyph glyph-name="hcircumflex" unicode="&#x125;" horiz-adv-x="573" 
d="M506 0h-130v315c0 33 -9 57 -28 74c-15 14 -34 21 -58 21s-44 -7 -59 -21c-19 -17 -28 -41 -28 -74v-315h-130v712h130v-239c33 36 76 54 127 54s92 -15 123 -46c35 -35 53 -85 53 -148v-333zM323 781h-101l-83 91l-83 -91h-101l132 169h104z" />
    <glyph glyph-name="Hbar" unicode="&#x126;" horiz-adv-x="731" 
d="M694 508h-69v-508h-139v298h-241v-298h-139v508h-69v106h69v98h139v-98h241v98h139v-98h69v-106zM486 422v86h-241v-86h241z" />
    <glyph glyph-name="hbar" unicode="&#x127;" horiz-adv-x="588" 
d="M521 0h-130v315c0 33 -9 57 -28 74c-15 14 -34 21 -58 21s-44 -7 -59 -21c-19 -17 -28 -41 -28 -74v-315h-130v567h-51v82h51v63h130v-63h85v-82h-85v-94c33 36 76 54 127 54s92 -15 123 -46c35 -35 53 -85 53 -148v-333z" />
    <glyph glyph-name="Itilde" unicode="&#x128;" horiz-adv-x="305" 
d="M222 0h-139v712h139v-712zM274 906l58 -57c-39 -39 -77 -59 -113 -59c-27 0 -53 8 -78 23c-21 12 -39 18 -56 18c-19 0 -39 -10 -58 -29l-56 57c39 39 77 59 112 59c26 0 52 -8 77 -23c20 -12 38 -18 55 -18c20 0 40 10 59 29z" />
    <glyph glyph-name="itilde" unicode="&#x129;" horiz-adv-x="275" 
d="M203 0h-130v506h130v-506zM261 728l58 -57c-39 -39 -76 -58 -113 -58c-26 0 -52 7 -77 22c-21 12 -39 18 -56 18c-20 0 -39 -9 -58 -28l-57 57c39 39 76 58 112 58c27 0 53 -7 78 -22c19 -13 38 -19 55 -19c19 0 39 10 58 29z" />
    <glyph glyph-name="Imacron" unicode="&#x12a;" horiz-adv-x="305" 
d="M222 0h-139v712h139v-712zM-5 793v88h317v-88h-317z" />
    <glyph glyph-name="imacron" unicode="&#x12b;" horiz-adv-x="275" 
d="M203 0h-130v506h130v-506zM296 623h-317v88h317v-88z" />
    <glyph glyph-name="Ibreve" unicode="&#x12c;" horiz-adv-x="305" 
d="M222 0h-139v712h139v-712zM229 930h87c-3 -51 -21 -90 -52 -116c-29 -23 -66 -35 -112 -35s-84 12 -113 35c-32 26 -49 65 -51 116h87c5 -40 31 -60 77 -60c47 0 72 20 77 60z" />
    <glyph glyph-name="ibreve" unicode="&#x12d;" horiz-adv-x="275" 
d="M203 0h-130v506h130v-506zM215 748h87c-3 -51 -21 -90 -52 -116c-29 -23 -66 -35 -112 -35s-84 12 -113 35c-32 26 -49 65 -51 116h87c5 -40 31 -60 77 -60c47 0 72 20 77 60z" />
    <glyph glyph-name="Iogonek" unicode="&#x12e;" horiz-adv-x="305" 
d="M222 0h-139v712h139v-712zM179 -60l-44 -146h-121l69 146h96z" />
    <glyph glyph-name="iogonek" unicode="&#x12f;" horiz-adv-x="275" 
d="M203 0h-130v506h130v-506zM204 610h-133v106h133v-106zM169 -60l-44 -146h-121l69 146h96z" />
    <glyph glyph-name="Idotaccent" unicode="&#x130;" horiz-adv-x="305" 
d="M222 0h-139v712h139v-712zM94 789v116h115v-116h-115z" />
    <glyph glyph-name="dotlessi" unicode="&#x131;" horiz-adv-x="275" 
d="M203 0h-130v506h130v-506z" />
    <glyph glyph-name="IJ" unicode="&#x132;" horiz-adv-x="816" 
d="M222 0h-139v712h139v-712zM742 712v-478c0 -75 -25 -135 -76 -179c-47 -41 -105 -61 -175 -61c-73 0 -134 24 -183 73l92 91c27 -27 57 -40 91 -40c75 0 112 41 112 122v472h139z" />
    <glyph glyph-name="ij" unicode="&#x133;" horiz-adv-x="550" 
d="M203 0h-130v506h130v-506zM204 610h-133v106h133v-106zM478 506v-552c0 -41 -12 -75 -36 -102c-27 -31 -66 -47 -116 -47h-74v110h50c31 0 46 16 46 47v544h130zM479 610h-133v106h133v-106z" />
    <glyph glyph-name="Jcircumflex" unicode="&#x134;" horiz-adv-x="511" 
d="M437 712v-478c0 -75 -25 -135 -76 -179c-47 -41 -105 -61 -175 -61c-73 0 -134 24 -183 73l92 91c27 -27 57 -40 91 -40c75 0 112 41 112 122v472h139zM551 781h-101l-83 91l-83 -91h-101l132 169h104z" />
    <glyph glyph-name="jcircumflex" unicode="&#x135;" horiz-adv-x="275" 
d="M203 506v-552c0 -41 -12 -75 -36 -102c-27 -31 -66 -47 -116 -47h-74v110h50c31 0 46 16 46 47v544h130zM322 604h-101l-83 91l-83 -91h-101l132 169h104z" />
    <glyph glyph-name="uni0136" unicode="&#x136;" horiz-adv-x="665" 
d="M659 0h-162l-183 324l-92 -110v-214h-139v712h139v-310l251 310h169l-236 -283zM431 -60l-44 -146h-121l69 146h96z" />
    <glyph glyph-name="uni0137" unicode="&#x137;" horiz-adv-x="559" 
d="M547 0h-161l-128 217l-55 -62v-155h-130v712h130v-404l173 213h157l-186 -210zM354 -60l-44 -146h-121l69 146h96z" />
    <glyph glyph-name="kgreenlandic" unicode="&#x138;" horiz-adv-x="559" 
d="M547 0h-161l-128 217l-55 -62v-155h-130v521h130v-213l173 213h157l-186 -210z" />
    <glyph glyph-name="Lacute" unicode="&#x139;" horiz-adv-x="575" 
d="M545 0h-462v712h139v-588h323v-124zM284 951l-114 -170h-87l64 170h137z" />
    <glyph glyph-name="lacute" unicode="&#x13a;" horiz-adv-x="325" 
d="M294 0h-74c-50 0 -89 16 -116 47c-24 27 -36 61 -36 102v563h130v-555c0 -31 15 -47 46 -47h50v-110zM268 951l-114 -170h-87l64 170h137z" />
    <glyph glyph-name="uni013B" unicode="&#x13b;" horiz-adv-x="575" 
d="M545 0h-462v712h139v-588h323v-124zM362 -60l-44 -146h-121l69 146h96z" />
    <glyph glyph-name="uni013C" unicode="&#x13c;" horiz-adv-x="325" 
d="M294 0h-74c-50 0 -89 16 -116 47c-24 27 -36 61 -36 102v563h130v-555c0 -31 15 -47 46 -47h50v-110zM238 -60l-44 -146h-121l69 146h96z" />
    <glyph glyph-name="Lcaron" unicode="&#x13d;" horiz-adv-x="575" 
d="M545 0h-462v712h139v-588h323v-124zM468 712l-60 -166h-91l36 166h115z" />
    <glyph glyph-name="lcaron" unicode="&#x13e;" horiz-adv-x="325" 
d="M294 0h-74c-50 0 -89 16 -116 47c-24 27 -36 61 -36 102v563h130v-555c0 -31 15 -47 46 -47h50v-110zM409 741l-60 -166h-91l36 166h115z" />
    <glyph glyph-name="Ldot" unicode="&#x13f;" horiz-adv-x="575" 
d="M545 0h-462v712h139v-588h323v-124zM380 300v116h115v-116h-115z" />
    <glyph glyph-name="ldot" unicode="&#x140;" horiz-adv-x="414" 
d="M294 0h-74c-50 0 -89 16 -116 47c-24 27 -36 61 -36 102v563h130v-555c0 -31 15 -47 46 -47h50v-110zM282 228v115h115v-115h-115z" />
    <glyph glyph-name="Lslash" unicode="&#x141;" horiz-adv-x="593" 
d="M563 0h-462v244l-64 -41v116l64 41v352h139v-265l128 81v-115l-128 -81v-208h323v-124z" />
    <glyph glyph-name="lslash" unicode="&#x142;" horiz-adv-x="336" 
d="M309 0h-74c-50 0 -89 16 -116 47c-23 27 -35 61 -35 102v153l-54 -33v109l54 34v300h130v-222l60 37v-109l-60 -38v-223c0 -31 15 -47 45 -47h50v-110z" />
    <glyph glyph-name="Nacute" unicode="&#x143;" horiz-adv-x="711" 
d="M628 0h-124l-282 437v-437h-139v712h124l282 -436v436h139v-712zM501 951l-114 -170h-87l64 170h137z" />
    <glyph glyph-name="nacute" unicode="&#x144;" horiz-adv-x="573" 
d="M506 0h-130v315c0 33 -9 57 -28 74c-15 14 -34 21 -58 21s-44 -7 -59 -21c-19 -17 -28 -41 -28 -74v-315h-130v521h127v-48c34 36 77 54 130 54c51 0 92 -15 123 -46c35 -35 53 -85 53 -148v-333zM429 774l-114 -170h-87l64 170h137z" />
    <glyph glyph-name="uni0145" unicode="&#x145;" horiz-adv-x="711" 
d="M628 0h-124l-282 437v-437h-139v712h124l282 -436v436h139v-712zM430 -60l-44 -146h-121l69 146h96z" />
    <glyph glyph-name="uni0146" unicode="&#x146;" horiz-adv-x="573" 
d="M506 0h-130v315c0 33 -9 57 -28 74c-15 14 -34 21 -58 21s-44 -7 -59 -21c-19 -17 -28 -41 -28 -74v-315h-130v521h127v-48c34 36 77 54 130 54c51 0 92 -15 123 -46c35 -35 53 -85 53 -148v-333zM361 -60l-44 -146h-121l69 146h96z" />
    <glyph glyph-name="Ncaron" unicode="&#x147;" horiz-adv-x="711" 
d="M628 0h-124l-282 437v-437h-139v712h124l282 -436v436h139v-712zM539 950l-132 -169h-104l-132 169h101l83 -90l83 90h101z" />
    <glyph glyph-name="ncaron" unicode="&#x148;" horiz-adv-x="573" 
d="M506 0h-130v315c0 33 -9 57 -28 74c-15 14 -34 21 -58 21s-44 -7 -59 -21c-19 -17 -28 -41 -28 -74v-315h-130v521h127v-48c34 36 77 54 130 54c51 0 92 -15 123 -46c35 -35 53 -85 53 -148v-333zM470 773l-132 -169h-104l-132 169h101l83 -90l83 90h101z" />
    <glyph glyph-name="napostrophe" unicode="&#x149;" horiz-adv-x="573" 
d="M506 0h-130v315c0 33 -9 57 -28 74c-15 14 -34 21 -58 21s-44 -7 -59 -21c-19 -17 -28 -41 -28 -74v-315h-130v521h127v-48c34 36 77 54 130 54c51 0 92 -15 123 -46c35 -35 53 -85 53 -148v-333zM75 623l-113 -88v206h113v-118z" />
    <glyph glyph-name="Eng" unicode="&#x14a;" horiz-adv-x="711" 
d="M489 23l-267 414v-437h-139v712h124l282 -436v436h139v-769c0 -41 -12 -75 -36 -102c-27 -31 -66 -47 -116 -47h-74v110h41c31 0 46 16 46 47v72z" />
    <glyph glyph-name="eng" unicode="&#x14b;" horiz-adv-x="573" 
d="M376 -49v364c0 33 -9 57 -28 74c-15 14 -34 21 -58 21s-44 -7 -59 -21c-19 -17 -28 -41 -28 -74v-315h-130v521h127v-48c34 36 77 54 130 54c51 0 92 -15 123 -46c35 -35 53 -85 53 -148v-390c0 -41 -12 -75 -36 -102c-27 -31 -66 -47 -116 -47h-74v110h50
c31 0 46 16 46 47z" />
    <glyph glyph-name="Omacron" unicode="&#x14c;" horiz-adv-x="644" 
d="M585 356c0 -81 -3 -137 -10 -168c-9 -46 -30 -86 -63 -119c-50 -50 -113 -75 -190 -75s-141 25 -191 75c-33 33 -54 73 -63 119c-6 31 -9 87 -9 168s3 137 9 168c9 46 30 86 63 119c50 50 114 75 191 75s140 -25 190 -75c33 -33 54 -73 63 -119c7 -31 10 -87 10 -168z
M446 356c0 106 -12 173 -35 200c-22 25 -52 38 -89 38s-67 -13 -90 -38s-34 -92 -34 -200c0 -107 11 -174 34 -199c24 -26 54 -39 90 -39c37 0 66 13 89 39c23 27 35 94 35 199zM162 793v88h317v-88h-317z" />
    <glyph glyph-name="omacron" unicode="&#x14d;" 
d="M492 261c0 -95 -20 -162 -59 -203c-41 -43 -95 -64 -162 -64s-120 21 -161 64c-39 43 -59 110 -59 203c0 92 20 159 59 202c41 43 94 64 161 64c68 0 122 -21 162 -64c39 -43 59 -110 59 -202zM362 261c0 65 -10 107 -30 126c-15 15 -36 23 -61 23s-45 -8 -60 -23
c-20 -19 -30 -61 -30 -126s10 -108 30 -127c15 -15 35 -23 60 -23s46 8 61 23c20 19 30 62 30 127zM429 623h-317v88h317v-88z" />
    <glyph glyph-name="Obreve" unicode="&#x14e;" horiz-adv-x="644" 
d="M585 356c0 -81 -3 -137 -10 -168c-9 -46 -30 -86 -63 -119c-50 -50 -113 -75 -190 -75s-141 25 -191 75c-33 33 -54 73 -63 119c-6 31 -9 87 -9 168s3 137 9 168c9 46 30 86 63 119c50 50 114 75 191 75s140 -25 190 -75c33 -33 54 -73 63 -119c7 -31 10 -87 10 -168z
M446 356c0 106 -12 173 -35 200c-22 25 -52 38 -89 38s-67 -13 -90 -38s-34 -92 -34 -200c0 -107 11 -174 34 -199c24 -26 54 -39 90 -39c37 0 66 13 89 39c23 27 35 94 35 199zM399 932h87c-3 -51 -21 -90 -52 -116c-29 -23 -66 -35 -112 -35s-84 12 -113 35
c-32 26 -49 65 -51 116h87c5 -40 31 -60 77 -60c47 0 72 20 77 60z" />
    <glyph glyph-name="obreve" unicode="&#x14f;" 
d="M492 261c0 -95 -20 -162 -59 -203c-41 -43 -95 -64 -162 -64s-120 21 -161 64c-39 43 -59 110 -59 203c0 92 20 159 59 202c41 43 94 64 161 64c68 0 122 -21 162 -64c39 -43 59 -110 59 -202zM362 261c0 65 -10 107 -30 126c-15 15 -36 23 -61 23s-45 -8 -60 -23
c-20 -19 -30 -61 -30 -126s10 -108 30 -127c15 -15 35 -23 60 -23s46 8 61 23c20 19 30 62 30 127zM349 748h87c-3 -51 -21 -90 -52 -116c-29 -23 -66 -35 -112 -35s-84 12 -113 35c-32 26 -49 65 -51 116h87c5 -40 31 -60 77 -60c47 0 72 20 77 60z" />
    <glyph glyph-name="Ohungarumlaut" unicode="&#x150;" horiz-adv-x="644" 
d="M585 356c0 -81 -3 -137 -10 -168c-9 -46 -30 -86 -63 -119c-50 -50 -113 -75 -190 -75s-141 25 -191 75c-33 33 -54 73 -63 119c-6 31 -9 87 -9 168s3 137 9 168c9 46 30 86 63 119c50 50 114 75 191 75s140 -25 190 -75c33 -33 54 -73 63 -119c7 -31 10 -87 10 -168z
M446 356c0 106 -12 173 -35 200c-22 25 -52 38 -89 38s-67 -13 -90 -38s-34 -92 -34 -200c0 -107 11 -174 34 -199c24 -26 54 -39 90 -39c37 0 66 13 89 39c23 27 35 94 35 199zM359 951l-113 -170h-88l64 170h137zM561 951l-115 -170h-86l63 170h138z" />
    <glyph glyph-name="ohungarumlaut" unicode="&#x151;" 
d="M492 261c0 -95 -20 -162 -59 -203c-41 -43 -95 -64 -162 -64s-120 21 -161 64c-39 43 -59 110 -59 203c0 92 20 159 59 202c41 43 94 64 161 64c68 0 122 -21 162 -64c39 -43 59 -110 59 -202zM362 261c0 65 -10 107 -30 126c-15 15 -36 23 -61 23s-45 -8 -60 -23
c-20 -19 -30 -61 -30 -126s10 -108 30 -127c15 -15 35 -23 60 -23s46 8 61 23c20 19 30 62 30 127zM309 774l-113 -170h-88l64 170h137zM511 774l-115 -170h-86l63 170h138z" />
    <glyph glyph-name="OE" unicode="&#x152;" horiz-adv-x="966" 
d="M912 0h-466v44c-29 -33 -71 -50 -124 -50c-76 0 -140 25 -191 75c-33 33 -54 73 -63 119c-6 31 -9 87 -9 168s3 137 9 168c9 46 30 86 63 119c51 50 115 75 191 75c51 0 93 -17 124 -50v44h465v-124h-326v-167h278v-124h-278v-173h327v-124zM446 356
c0 107 -12 173 -35 200c-22 25 -52 38 -89 38s-67 -13 -90 -38s-34 -92 -34 -200c0 -107 11 -174 34 -199c24 -26 54 -39 90 -39c37 0 66 13 89 39c23 27 35 93 35 199z" />
    <glyph glyph-name="oe" unicode="&#x153;" horiz-adv-x="863" 
d="M816 220h-326c0 -34 10 -62 29 -83c21 -22 50 -33 85 -33c45 0 84 16 117 49l80 -77c-53 -55 -119 -82 -198 -82c-77 0 -134 22 -173 67c-37 -45 -90 -67 -159 -67c-67 0 -120 21 -161 64c-39 43 -59 110 -59 203c0 92 20 159 59 202c41 43 94 64 161 64
c70 0 124 -23 161 -68c38 45 90 68 157 68c71 0 127 -24 168 -71c39 -45 59 -105 59 -178v-58zM490 309h198c-1 22 -5 41 -12 56c-16 36 -45 54 -87 54s-71 -18 -87 -54c-7 -15 -11 -34 -12 -56zM362 261c0 65 -10 107 -30 126c-15 15 -36 23 -61 23s-45 -8 -60 -23
c-20 -19 -30 -61 -30 -126s10 -108 30 -127c15 -15 35 -23 60 -23s46 8 61 23c20 19 30 62 30 127z" />
    <glyph glyph-name="Racute" unicode="&#x154;" horiz-adv-x="654" 
d="M622 0h-161l-139 284h-100v-284h-139v712h279c71 0 127 -21 170 -64c41 -41 61 -92 61 -154c0 -94 -43 -156 -130 -187zM454 494c0 29 -9 51 -28 68s-44 26 -73 26h-131v-188h131c29 0 54 9 73 26s28 39 28 68zM473 951l-114 -170h-87l64 170h137z" />
    <glyph glyph-name="racute" unicode="&#x155;" horiz-adv-x="455" 
d="M454 478l-98 -99c-21 21 -44 31 -69 31c-21 0 -40 -8 -57 -23c-18 -18 -27 -42 -27 -73v-314h-130v521h127v-50c31 37 75 56 131 56c49 0 90 -16 123 -49zM372 774l-114 -170h-87l64 170h137z" />
    <glyph glyph-name="uni0156" unicode="&#x156;" horiz-adv-x="654" 
d="M622 0h-161l-139 284h-100v-284h-139v712h279c71 0 127 -21 170 -64c41 -41 61 -92 61 -154c0 -94 -43 -156 -130 -187zM454 494c0 29 -9 51 -28 68s-44 26 -73 26h-131v-188h131c29 0 54 9 73 26s28 39 28 68zM402 -60l-44 -146h-121l69 146h96z" />
    <glyph glyph-name="uni0157" unicode="&#x157;" horiz-adv-x="455" 
d="M454 478l-98 -99c-21 21 -44 31 -69 31c-21 0 -40 -8 -57 -23c-18 -18 -27 -42 -27 -73v-314h-130v521h127v-50c31 37 75 56 131 56c49 0 90 -16 123 -49zM188 -60l-44 -146h-121l69 146h96z" />
    <glyph glyph-name="Rcaron" unicode="&#x158;" horiz-adv-x="654" 
d="M622 0h-161l-139 284h-100v-284h-139v712h279c71 0 127 -21 170 -64c41 -41 61 -92 61 -154c0 -94 -43 -156 -130 -187zM454 494c0 29 -9 51 -28 68s-44 26 -73 26h-131v-188h131c29 0 54 9 73 26s28 39 28 68zM511 950l-132 -169h-104l-132 169h101l83 -90l83 90h101z
" />
    <glyph glyph-name="rcaron" unicode="&#x159;" horiz-adv-x="455" 
d="M454 478l-98 -99c-21 21 -44 31 -69 31c-21 0 -40 -8 -57 -23c-18 -18 -27 -42 -27 -73v-314h-130v521h127v-50c31 37 75 56 131 56c49 0 90 -16 123 -49zM412 773l-132 -169h-104l-132 169h101l83 -90l83 90h101z" />
    <glyph glyph-name="Sacute" unicode="&#x15a;" horiz-adv-x="591" 
d="M543 210c0 -68 -25 -121 -76 -160c-49 -37 -111 -56 -188 -56c-111 0 -198 31 -260 94l90 90c40 -40 97 -60 171 -60c85 0 127 30 127 89c0 25 -7 44 -22 59c-13 12 -35 20 -64 24l-85 13c-61 9 -107 29 -138 59c-34 33 -51 80 -51 140c0 65 22 117 66 156
c45 40 106 60 182 60c96 0 173 -28 230 -83l-88 -87c-33 33 -81 49 -146 49c-35 0 -63 -9 -82 -27c-18 -16 -27 -37 -27 -63c0 -21 7 -38 20 -51c15 -14 36 -23 65 -27l85 -13c61 -9 107 -28 136 -56c37 -34 55 -84 55 -150zM448 951l-114 -170h-87l64 170h137z" />
    <glyph glyph-name="sacute" unicode="&#x15b;" horiz-adv-x="501" 
d="M465 164c0 -55 -21 -98 -64 -128c-40 -28 -92 -42 -157 -42c-97 0 -171 25 -222 75l85 85c32 -33 78 -49 139 -49s92 18 92 54c0 29 -18 45 -55 48l-84 8c-100 10 -150 59 -150 146c0 52 20 93 61 124c37 28 84 42 140 42c89 0 156 -20 199 -61l-80 -81
c-27 23 -67 35 -121 35c-49 0 -74 -17 -74 -50c0 -26 18 -41 54 -45l82 -8c103 -10 155 -61 155 -153zM393 774l-114 -170h-87l64 170h137z" />
    <glyph glyph-name="Scircumflex" unicode="&#x15c;" horiz-adv-x="591" 
d="M543 210c0 -68 -25 -121 -76 -160c-49 -37 -111 -56 -188 -56c-111 0 -198 31 -260 94l90 90c40 -40 97 -60 171 -60c85 0 127 30 127 89c0 25 -7 44 -22 59c-13 12 -35 20 -64 24l-85 13c-61 9 -107 29 -138 59c-34 33 -51 80 -51 140c0 65 22 117 66 156
c45 40 106 60 182 60c96 0 173 -28 230 -83l-88 -87c-33 33 -81 49 -146 49c-35 0 -63 -9 -82 -27c-18 -16 -27 -37 -27 -63c0 -21 7 -38 20 -51c15 -14 36 -23 65 -27l85 -13c61 -9 107 -28 136 -56c37 -34 55 -84 55 -150zM480 781h-101l-83 91l-83 -91h-101l132 169h104z
" />
    <glyph glyph-name="scircumflex" unicode="&#x15d;" horiz-adv-x="501" 
d="M465 164c0 -55 -21 -98 -64 -128c-40 -28 -92 -42 -157 -42c-97 0 -171 25 -222 75l85 85c32 -33 78 -49 139 -49s92 18 92 54c0 29 -18 45 -55 48l-84 8c-100 10 -150 59 -150 146c0 52 20 93 61 124c37 28 84 42 140 42c89 0 156 -20 199 -61l-80 -81
c-27 23 -67 35 -121 35c-49 0 -74 -17 -74 -50c0 -26 18 -41 54 -45l82 -8c103 -10 155 -61 155 -153zM446 604h-101l-83 91l-83 -91h-101l132 169h104z" />
    <glyph glyph-name="Scedilla" unicode="&#x15e;" horiz-adv-x="591" 
d="M543 210c0 -68 -25 -121 -76 -160c-49 -37 -111 -56 -188 -56c-111 0 -198 31 -260 94l90 90c40 -40 97 -60 171 -60c85 0 127 30 127 89c0 25 -7 44 -22 59c-13 12 -35 20 -64 24l-85 13c-61 9 -107 29 -138 59c-34 33 -51 80 -51 140c0 65 22 117 66 156
c45 40 106 60 182 60c96 0 173 -28 230 -83l-88 -87c-33 33 -81 49 -146 49c-35 0 -63 -9 -82 -27c-18 -16 -27 -37 -27 -63c0 -21 7 -38 20 -51c15 -14 36 -23 65 -27l85 -13c61 -9 107 -28 136 -56c37 -34 55 -84 55 -150zM370 -60l-44 -146h-121l69 146h96z" />
    <glyph glyph-name="scedilla" unicode="&#x15f;" horiz-adv-x="501" 
d="M465 164c0 -55 -21 -98 -64 -128c-40 -28 -92 -42 -157 -42c-97 0 -171 25 -222 75l85 85c32 -33 78 -49 139 -49s92 18 92 54c0 29 -18 45 -55 48l-84 8c-100 10 -150 59 -150 146c0 52 20 93 61 124c37 28 84 42 140 42c89 0 156 -20 199 -61l-80 -81
c-27 23 -67 35 -121 35c-49 0 -74 -17 -74 -50c0 -26 18 -41 54 -45l82 -8c103 -10 155 -61 155 -153zM325 -60l-44 -146h-121l69 146h96z" />
    <glyph glyph-name="Scaron" unicode="&#x160;" horiz-adv-x="591" 
d="M543 210c0 -68 -25 -121 -76 -160c-49 -37 -111 -56 -188 -56c-111 0 -198 31 -260 94l90 90c40 -40 97 -60 171 -60c85 0 127 30 127 89c0 25 -7 44 -22 59c-13 12 -35 20 -64 24l-85 13c-61 9 -107 29 -138 59c-34 33 -51 80 -51 140c0 65 22 117 66 156
c45 40 106 60 182 60c96 0 173 -28 230 -83l-88 -87c-33 33 -81 49 -146 49c-35 0 -63 -9 -82 -27c-18 -16 -27 -37 -27 -63c0 -21 7 -38 20 -51c15 -14 36 -23 65 -27l85 -13c61 -9 107 -28 136 -56c37 -34 55 -84 55 -150zM478 950l-132 -169h-104l-132 169h101l83 -90
l83 90h101z" />
    <glyph glyph-name="scaron" unicode="&#x161;" horiz-adv-x="501" 
d="M465 164c0 -55 -21 -98 -64 -128c-40 -28 -92 -42 -157 -42c-97 0 -171 25 -222 75l85 85c32 -33 78 -49 139 -49s92 18 92 54c0 29 -18 45 -55 48l-84 8c-100 10 -150 59 -150 146c0 52 20 93 61 124c37 28 84 42 140 42c89 0 156 -20 199 -61l-80 -81
c-27 23 -67 35 -121 35c-49 0 -74 -17 -74 -50c0 -26 18 -41 54 -45l82 -8c103 -10 155 -61 155 -153zM434 773l-132 -169h-104l-132 169h101l83 -90l83 90h101z" />
    <glyph glyph-name="uni0162" unicode="&#x162;" horiz-adv-x="571" 
d="M541 588h-186v-588h-139v588h-186v124h511v-124zM333 -60l-44 -146h-121l69 146h96z" />
    <glyph glyph-name="uni0163" unicode="&#x163;" horiz-adv-x="352" 
d="M307 0h-71c-49 0 -88 16 -115 47c-24 27 -36 61 -36 102v258h-55v99h55v154h130v-154h92v-99h-92v-250c0 -31 15 -47 45 -47h47v-110zM251 -60l-44 -146h-121l69 146h96z" />
    <glyph glyph-name="Tcaron" unicode="&#x164;" horiz-adv-x="571" 
d="M541 588h-186v-588h-139v588h-186v124h511v-124zM461 950l-132 -169h-104l-132 169h101l83 -90l83 90h101z" />
    <glyph glyph-name="tcaron" unicode="&#x165;" horiz-adv-x="352" 
d="M307 0h-71c-49 0 -88 16 -115 47c-24 27 -36 61 -36 102v258h-55v99h55v154h130v-154h92v-99h-92v-250c0 -31 15 -47 45 -47h47v-110zM425 741l-60 -166h-91l36 166h115z" />
    <glyph glyph-name="Tbar" unicode="&#x166;" horiz-adv-x="571" 
d="M541 588h-186v-176h92v-106h-92v-306h-139v306h-93v106h93v176h-186v124h511v-124z" />
    <glyph glyph-name="tbar" unicode="&#x167;" horiz-adv-x="352" 
d="M307 0h-71c-49 0 -88 16 -115 47c-24 27 -36 61 -36 102v88h-55v99h55v71h-55v99h55v154h130v-154h92v-99h-92v-71h92v-99h-92v-80c0 -31 15 -47 45 -47h47v-110z" />
    <glyph glyph-name="Utilde" unicode="&#x168;" horiz-adv-x="668" 
d="M596 712v-468c0 -75 -25 -135 -76 -182c-49 -45 -111 -68 -186 -68s-137 23 -186 68c-51 47 -76 107 -76 182v468h139v-463c0 -41 11 -73 33 -96s52 -35 90 -35s68 12 90 35c23 23 34 55 34 96v463h138zM456 906l58 -57c-39 -39 -77 -59 -113 -59c-27 0 -53 8 -78 23
c-21 12 -39 18 -56 18c-19 0 -39 -10 -58 -29l-56 57c39 39 77 59 112 59c26 0 52 -8 77 -23c20 -12 38 -18 55 -18c20 0 40 10 59 29z" />
    <glyph glyph-name="utilde" unicode="&#x169;" horiz-adv-x="573" 
d="M500 0h-127v48c-34 -36 -77 -54 -130 -54c-51 0 -92 15 -123 46c-35 35 -53 85 -53 148v333h130v-315c0 -33 9 -57 28 -74c15 -14 35 -21 58 -21c25 0 44 7 59 21c19 17 28 41 28 74v315h130v-521zM407 728l58 -57c-39 -39 -76 -58 -113 -58c-26 0 -52 7 -77 22
c-21 12 -39 18 -56 18c-20 0 -39 -9 -58 -28l-57 57c39 39 76 58 112 58c27 0 53 -7 78 -22c19 -13 38 -19 55 -19c19 0 39 10 58 29z" />
    <glyph glyph-name="Umacron" unicode="&#x16a;" horiz-adv-x="668" 
d="M596 712v-468c0 -75 -25 -135 -76 -182c-49 -45 -111 -68 -186 -68s-137 23 -186 68c-51 47 -76 107 -76 182v468h139v-463c0 -41 11 -73 33 -96s52 -35 90 -35s68 12 90 35c23 23 34 55 34 96v463h138zM175 793v88h317v-88h-317z" />
    <glyph glyph-name="umacron" unicode="&#x16b;" horiz-adv-x="573" 
d="M500 0h-127v48c-34 -36 -77 -54 -130 -54c-51 0 -92 15 -123 46c-35 35 -53 85 -53 148v333h130v-315c0 -33 9 -57 28 -74c15 -14 35 -21 58 -21c25 0 44 7 59 21c19 17 28 41 28 74v315h130v-521zM444 623h-317v88h317v-88z" />
    <glyph glyph-name="Ubreve" unicode="&#x16c;" horiz-adv-x="668" 
d="M596 712v-468c0 -75 -25 -135 -76 -182c-49 -45 -111 -68 -186 -68s-137 23 -186 68c-51 47 -76 107 -76 182v468h139v-463c0 -41 11 -73 33 -96s52 -35 90 -35s68 12 90 35c23 23 34 55 34 96v463h138zM411 930h87c-3 -51 -21 -90 -52 -116c-29 -23 -66 -35 -112 -35
s-84 12 -113 35c-32 26 -49 65 -51 116h87c5 -40 31 -60 77 -60c47 0 72 20 77 60z" />
    <glyph glyph-name="ubreve" unicode="&#x16d;" horiz-adv-x="573" 
d="M500 0h-127v48c-34 -36 -77 -54 -130 -54c-51 0 -92 15 -123 46c-35 35 -53 85 -53 148v333h130v-315c0 -33 9 -57 28 -74c15 -14 35 -21 58 -21c25 0 44 7 59 21c19 17 28 41 28 74v315h130v-521zM360 748h87c-3 -51 -21 -90 -52 -116c-29 -23 -66 -35 -112 -35
s-84 12 -113 35c-32 26 -49 65 -51 116h87c5 -40 31 -60 77 -60c47 0 72 20 77 60z" />
    <glyph glyph-name="Uring" unicode="&#x16e;" horiz-adv-x="668" 
d="M596 712v-468c0 -75 -25 -135 -76 -182c-49 -45 -111 -68 -186 -68s-137 23 -186 68c-51 47 -76 107 -76 182v468h139v-463c0 -41 11 -73 33 -96s52 -35 90 -35s68 12 90 35c23 23 34 55 34 96v463h138zM465 892c0 -36 -13 -67 -38 -92c-26 -26 -57 -39 -93 -39
s-67 13 -92 39c-26 25 -39 56 -39 92s13 67 39 93c25 25 56 38 92 38c35 0 66 -13 93 -38c25 -25 38 -56 38 -93zM392 892c0 16 -6 30 -17 41s-25 17 -41 17s-30 -6 -41 -17s-17 -25 -17 -41s6 -30 17 -41c11 -12 25 -18 41 -18c17 0 30 6 41 18c11 11 17 25 17 41z" />
    <glyph glyph-name="uring" unicode="&#x16f;" horiz-adv-x="573" 
d="M500 0h-127v48c-34 -36 -77 -54 -130 -54c-51 0 -92 15 -123 46c-35 35 -53 85 -53 148v333h130v-315c0 -33 9 -57 28 -74c15 -14 35 -21 58 -21c25 0 44 7 59 21c19 17 28 41 28 74v315h130v-521zM417 715c0 -36 -13 -67 -38 -92c-26 -26 -57 -39 -93 -39s-67 13 -92 39
c-26 25 -39 56 -39 92s13 67 39 93c25 25 56 38 92 38c35 0 66 -13 93 -38c25 -25 38 -56 38 -93zM344 715c0 16 -6 30 -17 41s-25 17 -41 17s-30 -6 -41 -17s-17 -25 -17 -41s6 -30 17 -41c11 -12 25 -18 41 -18c17 0 30 6 41 18c11 11 17 25 17 41z" />
    <glyph glyph-name="Uhungarumlaut" unicode="&#x170;" horiz-adv-x="668" 
d="M596 712v-468c0 -75 -25 -135 -76 -182c-49 -45 -111 -68 -186 -68s-137 23 -186 68c-51 47 -76 107 -76 182v468h139v-463c0 -41 11 -73 33 -96s52 -35 90 -35s68 12 90 35c23 23 34 55 34 96v463h138zM364 951l-113 -170h-88l64 170h137zM566 951l-115 -170h-86l63 170
h138z" />
    <glyph glyph-name="uhungarumlaut" unicode="&#x171;" horiz-adv-x="573" 
d="M500 0h-127v48c-34 -36 -77 -54 -130 -54c-51 0 -92 15 -123 46c-35 35 -53 85 -53 148v333h130v-315c0 -33 9 -57 28 -74c15 -14 35 -21 58 -21c25 0 44 7 59 21c19 17 28 41 28 74v315h130v-521zM316 774l-113 -170h-88l64 170h137zM518 774l-115 -170h-86l63 170h138z
" />
    <glyph glyph-name="Uogonek" unicode="&#x172;" horiz-adv-x="668" 
d="M596 712v-468c0 -75 -25 -135 -76 -182c-49 -45 -111 -68 -186 -68s-137 23 -186 68c-51 47 -76 107 -76 182v468h139v-463c0 -41 11 -73 33 -96s52 -35 90 -35s68 12 90 35c23 23 34 55 34 96v463h138zM500 -60l-44 -146h-121l69 146h96z" />
    <glyph glyph-name="uogonek" unicode="&#x173;" horiz-adv-x="573" 
d="M500 0h-127v48c-34 -36 -77 -54 -130 -54c-51 0 -92 15 -123 46c-35 35 -53 85 -53 148v333h130v-315c0 -33 9 -57 28 -74c15 -14 35 -21 58 -21c25 0 44 7 59 21c19 17 28 41 28 74v315h130v-521zM469 -60l-44 -146h-121l69 146h96z" />
    <glyph glyph-name="Wcircumflex" unicode="&#x174;" horiz-adv-x="887" 
d="M881 712l-191 -712h-116l-131 432l-131 -432h-116l-190 712h145l110 -449l130 449h104l130 -449l111 449h145zM627 781h-101l-83 91l-83 -91h-101l132 169h104z" />
    <glyph glyph-name="wcircumflex" unicode="&#x175;" horiz-adv-x="759" 
d="M755 521l-159 -521h-107l-109 327l-109 -327h-107l-160 521h138l84 -322l106 322h95l107 -322l84 322h137zM564 604h-101l-83 91l-83 -91h-101l132 169h104z" />
    <glyph glyph-name="Ycircumflex" unicode="&#x176;" horiz-adv-x="572" 
d="M569 712l-214 -420v-292h-138v292l-214 420h151l133 -287l131 287h151zM470 781h-101l-83 91l-83 -91h-101l132 169h104z" />
    <glyph glyph-name="ycircumflex" unicode="&#x177;" horiz-adv-x="494" 
d="M490 521l-223 -605c-11 -29 -24 -52 -39 -67c-27 -27 -64 -40 -112 -40h-51v117h30c32 0 54 16 65 47l22 64l-178 484h137l108 -322l104 322h137zM433 604h-101l-83 91l-83 -91h-101l132 169h104z" />
    <glyph glyph-name="Ydieresis" unicode="&#x178;" horiz-adv-x="572" 
d="M569 712l-214 -420v-292h-138v292l-214 420h151l133 -287l131 287h151zM452 783h-111v125h111v-125zM231 783h-111v125h111v-125z" />
    <glyph glyph-name="Zacute" unicode="&#x179;" horiz-adv-x="548" 
d="M508 0h-468v112l304 476h-291v124h455v-110l-305 -478h305v-124zM428 951l-114 -170h-87l64 170h137z" />
    <glyph glyph-name="zacute" unicode="&#x17a;" horiz-adv-x="478" 
d="M434 0h-397v99l231 305h-218v117h384v-99l-234 -305h234v-117zM381 774l-114 -170h-87l64 170h137z" />
    <glyph glyph-name="Zdotaccent" unicode="&#x17b;" horiz-adv-x="548" 
d="M508 0h-468v112l304 476h-291v124h455v-110l-305 -478h305v-124zM215 789v116h115v-116h-115z" />
    <glyph glyph-name="zdotaccent" unicode="&#x17c;" horiz-adv-x="478" 
d="M434 0h-397v99l231 305h-218v117h384v-99l-234 -305h234v-117zM182 612v115h115v-115h-115z" />
    <glyph glyph-name="Zcaron" unicode="&#x17d;" horiz-adv-x="548" 
d="M508 0h-468v112l304 476h-291v124h455v-110l-305 -478h305v-124zM461 950l-132 -169h-104l-132 169h101l83 -90l83 90h101z" />
    <glyph glyph-name="zcaron" unicode="&#x17e;" horiz-adv-x="478" 
d="M434 0h-397v99l231 305h-218v117h384v-99l-234 -305h234v-117zM426 773l-132 -169h-104l-132 169h101l83 -90l83 90h101z" />
    <glyph glyph-name="longs" unicode="&#x17f;" horiz-adv-x="275" 
d="M203 563v-563h-130v571c0 41 12 75 36 102c28 31 67 47 116 47h74v-110h-51c-30 0 -45 -16 -45 -47z" />
    <glyph glyph-name="uni018F" unicode="&#x18f;" horiz-adv-x="649" 
d="M590 356c0 -81 -3 -137 -9 -168c-9 -47 -30 -87 -63 -119c-51 -50 -114 -75 -190 -75c-83 0 -150 27 -201 81c-45 49 -68 121 -68 217v104h391c-1 82 -13 135 -34 160c-22 25 -51 38 -88 38c-69 0 -112 -35 -128 -104h-140c10 65 36 118 79 159c48 46 111 69 189 69
c76 0 139 -25 190 -75c31 -31 52 -71 62 -118c7 -33 10 -89 10 -169zM449 279h-252v-26c0 -39 11 -70 32 -95c23 -27 56 -40 99 -40c38 0 67 12 88 37c19 21 30 62 33 124z" />
    <glyph glyph-name="florin" unicode="&#x192;" horiz-adv-x="427" 
d="M397 610h-69c-31 0 -49 -16 -54 -47l-29 -166h96v-100h-113l-87 -488h-130l87 488h-67v100h84l31 174c7 44 27 80 59 107c31 27 70 41 115 41h77v-109z" />
    <glyph glyph-name="Ohorn" unicode="&#x1a0;" horiz-adv-x="644" 
d="M411 556c-22 25 -52 38 -89 38s-67 -13 -90 -38s-34 -92 -34 -200c0 -107 11 -174 34 -199c24 -26 54 -39 90 -39c37 0 66 13 89 39c23 27 35 94 35 199c0 106 -12 173 -35 200zM517 638c29 -31 49 -69 58 -114c7 -31 10 -87 10 -168s-3 -137 -10 -168
c-9 -46 -30 -86 -63 -119c-50 -50 -113 -75 -190 -75s-141 25 -191 75c-33 33 -54 73 -63 119c-6 31 -9 87 -9 168s3 137 9 168c9 46 30 86 63 119c50 50 114 75 191 75c26 0 50 -3 73 -9c49 -5 82 -3 97 7c9 9 14 18 14 26c0 9 -3 16 -10 21c-5 7 -20 10 -46 10v82
c50 0 86 -11 109 -32s34 -48 34 -81s-11 -60 -34 -81c-11 -11 -25 -18 -42 -23z" />
    <glyph glyph-name="ohorn" unicode="&#x1a1;" 
d="M332 387c-15 15 -36 23 -61 23s-45 -8 -60 -23c-20 -19 -30 -61 -30 -126s10 -108 30 -127c15 -15 35 -23 60 -23s46 8 61 23c20 19 30 62 30 127s-10 107 -30 126zM443 451c33 -41 49 -105 49 -190c0 -95 -20 -162 -59 -203c-41 -43 -95 -64 -162 -64s-120 21 -161 64
c-39 43 -59 110 -59 203c0 92 20 159 59 202c41 43 94 64 161 64c21 0 41 -2 59 -6c41 -2 69 1 82 8c7 7 10 14 10 23s-3 16 -10 21c-5 7 -20 10 -46 10v82c50 0 86 -11 109 -32s34 -48 34 -81s-11 -60 -34 -81c-9 -8 -19 -15 -32 -20z" />
    <glyph glyph-name="Uhorn" unicode="&#x1af;" horiz-adv-x="668" 
d="M596 630v-386c0 -75 -25 -135 -76 -182c-49 -45 -111 -68 -186 -68s-137 23 -186 68c-51 47 -76 107 -76 182v468h139v-463c0 -41 11 -73 33 -96s52 -35 90 -35s68 12 90 35c23 23 34 55 34 96v463h136c11 1 19 3 23 7c7 7 10 14 10 23s-3 16 -10 21c-5 7 -20 10 -46 10
v82c50 0 86 -11 109 -32s34 -48 34 -81s-11 -60 -34 -81c-19 -18 -47 -28 -84 -31z" />
    <glyph glyph-name="uhorn" unicode="&#x1b0;" horiz-adv-x="573" 
d="M500 439v-439h-127v48c-34 -36 -77 -54 -130 -54c-51 0 -92 15 -123 46c-35 35 -53 85 -53 148v333h130v-315c0 -33 9 -57 28 -74c15 -14 35 -21 58 -21c25 0 44 7 59 21c19 17 28 41 28 74v315h114c25 0 41 3 46 8c7 7 10 14 10 23s-3 16 -10 21c-5 7 -20 10 -46 10v82
c50 0 86 -11 109 -32s34 -48 34 -81s-11 -60 -34 -81c-19 -19 -50 -30 -93 -32z" />
    <glyph glyph-name="uni01B5" unicode="&#x1b5;" horiz-adv-x="548" 
d="M508 0h-468v112l124 195h-50v106h118l112 175h-291v124h455v-110l-121 -189h51v-106h-118l-117 -183h305v-124z" />
    <glyph glyph-name="uni01B6" unicode="&#x1b6;" horiz-adv-x="478" 
d="M434 0h-397v99l90 119h-23v82h85l79 104h-218v117h384v-99l-94 -122h43v-82h-106l-77 -101h234v-117z" />
    <glyph glyph-name="uni01C4" unicode="&#x1c4;" horiz-adv-x="1207" 
d="M600 356c0 -127 -15 -211 -45 -252c-50 -69 -122 -104 -215 -104h-257v712h257c93 0 165 -35 215 -104c30 -41 45 -125 45 -252zM461 356c0 102 -10 165 -29 188c-23 29 -58 44 -104 44h-106v-464h106c46 0 81 15 104 44c19 23 29 86 29 188zM1167 0h-468v112l304 476
h-291v124h455v-110l-305 -478h305v-124zM1120 950l-132 -169h-104l-132 169h101l83 -90l83 90h101z" />
    <glyph glyph-name="uni01C5" unicode="&#x1c5;" horiz-adv-x="1137" 
d="M600 356c0 -127 -15 -211 -45 -252c-50 -69 -122 -104 -215 -104h-257v712h257c93 0 165 -35 215 -104c30 -41 45 -125 45 -252zM461 356c0 102 -10 165 -29 188c-23 29 -58 44 -104 44h-106v-464h106c46 0 81 15 104 44c19 23 29 86 29 188zM1093 0h-397v99l231 305
h-218v117h384v-99l-234 -305h234v-117zM1085 773l-132 -169h-104l-132 169h101l83 -90l83 90h101z" />
    <glyph glyph-name="uni01C6" unicode="&#x1c6;" horiz-adv-x="1039" 
d="M488 0h-127v49c-33 -37 -76 -55 -129 -55c-55 0 -97 16 -127 47c-36 37 -54 110 -54 220c0 109 18 182 54 219c30 31 72 47 126 47s96 -17 127 -52v237h130v-712zM358 261c0 49 -5 84 -15 106c-13 29 -37 43 -74 43c-36 0 -60 -14 -73 -43c-10 -21 -15 -56 -15 -106
c0 -49 5 -85 15 -106c13 -29 38 -44 73 -44c36 0 61 15 74 44c10 21 15 57 15 106zM995 0h-397v99l231 305h-218v117h384v-99l-234 -305h234v-117zM987 773l-132 -169h-104l-132 169h101l83 -90l83 90h101z" />
    <glyph glyph-name="uni01C7" unicode="&#x1c7;" horiz-adv-x="1086" 
d="M545 0h-462v712h139v-588h323v-124zM1012 712v-478c0 -75 -25 -135 -76 -179c-47 -41 -105 -61 -175 -61c-73 0 -134 24 -183 73l92 91c27 -27 57 -40 91 -40c75 0 112 41 112 122v472h139z" />
    <glyph glyph-name="uni01C8" unicode="&#x1c8;" horiz-adv-x="850" 
d="M545 0h-462v712h139v-588h323v-124zM778 506v-552c0 -41 -12 -75 -36 -102c-27 -31 -66 -47 -116 -47h-74v110h50c31 0 46 16 46 47v544h130zM779 610h-133v106h133v-106z" />
    <glyph glyph-name="uni01C9" unicode="&#x1c9;" horiz-adv-x="600" 
d="M294 0h-74c-50 0 -89 16 -116 47c-24 27 -36 61 -36 102v563h130v-555c0 -31 15 -47 46 -47h50v-110zM528 506v-552c0 -41 -12 -75 -36 -102c-27 -31 -66 -47 -116 -47h-74v110h50c31 0 46 16 46 47v544h130zM529 610h-133v106h133v-106z" />
    <glyph glyph-name="uni01CA" unicode="&#x1ca;" horiz-adv-x="1222" 
d="M628 0h-124l-282 437v-437h-139v712h124l282 -436v436h139v-712zM1148 712v-478c0 -75 -25 -135 -76 -179c-47 -41 -105 -61 -175 -61c-73 0 -134 24 -183 73l92 91c27 -27 57 -40 91 -40c75 0 112 41 112 122v472h139z" />
    <glyph glyph-name="uni01CB" unicode="&#x1cb;" horiz-adv-x="986" 
d="M628 0h-124l-282 437v-437h-139v712h124l282 -436v436h139v-712zM914 506v-552c0 -41 -12 -75 -36 -102c-27 -31 -66 -47 -116 -47h-74v110h50c31 0 46 16 46 47v544h130zM915 610h-133v106h133v-106z" />
    <glyph glyph-name="uni01CC" unicode="&#x1cc;" horiz-adv-x="848" 
d="M506 0h-130v315c0 33 -9 57 -28 74c-15 14 -34 21 -58 21s-44 -7 -59 -21c-19 -17 -28 -41 -28 -74v-315h-130v521h127v-48c34 36 77 54 130 54c51 0 92 -15 123 -46c35 -35 53 -85 53 -148v-333zM776 506v-552c0 -41 -12 -75 -36 -102c-27 -31 -66 -47 -116 -47h-74v110
h50c31 0 46 16 46 47v544h130zM777 610h-133v106h133v-106z" />
    <glyph glyph-name="uni01F1" unicode="&#x1f1;" horiz-adv-x="1207" 
d="M600 356c0 -127 -15 -211 -45 -252c-50 -69 -122 -104 -215 -104h-257v712h257c93 0 165 -35 215 -104c30 -41 45 -125 45 -252zM461 356c0 102 -10 165 -29 188c-23 29 -58 44 -104 44h-106v-464h106c46 0 81 15 104 44c19 23 29 86 29 188zM1167 0h-468v112l304 476
h-291v124h455v-110l-305 -478h305v-124z" />
    <glyph glyph-name="uni01F2" unicode="&#x1f2;" horiz-adv-x="1137" 
d="M600 356c0 -127 -15 -211 -45 -252c-50 -69 -122 -104 -215 -104h-257v712h257c93 0 165 -35 215 -104c30 -41 45 -125 45 -252zM461 356c0 102 -10 165 -29 188c-23 29 -58 44 -104 44h-106v-464h106c46 0 81 15 104 44c19 23 29 86 29 188zM1093 0h-397v99l231 305
h-218v117h384v-99l-234 -305h234v-117z" />
    <glyph glyph-name="uni01F3" unicode="&#x1f3;" horiz-adv-x="1039" 
d="M488 0h-127v49c-33 -37 -76 -55 -129 -55c-55 0 -97 16 -127 47c-36 37 -54 110 -54 220c0 109 18 182 54 219c30 31 72 47 126 47s96 -17 127 -52v237h130v-712zM358 261c0 49 -5 84 -15 106c-13 29 -37 43 -74 43c-36 0 -60 -14 -73 -43c-10 -21 -15 -56 -15 -106
c0 -49 5 -85 15 -106c13 -29 38 -44 73 -44c36 0 61 15 74 44c10 21 15 57 15 106zM995 0h-397v99l231 305h-218v117h384v-99l-234 -305h234v-117z" />
    <glyph glyph-name="Aringacute" unicode="&#x1fa;" horiz-adv-x="638" 
d="M633 0h-145l-42 126h-253l-43 -126h-145l259 712h109zM409 243l-87 259l-90 -259h177zM448 884c0 -36 -13 -67 -38 -92c-26 -26 -57 -39 -93 -39s-67 13 -92 39c-26 25 -39 56 -39 92s13 67 39 93c25 25 56 38 92 38c35 0 66 -13 93 -38c25 -25 38 -56 38 -93zM375 884
c0 16 -6 30 -17 41s-25 17 -41 17s-30 -6 -41 -17s-17 -25 -17 -41s6 -30 17 -41c11 -12 25 -18 41 -18c17 0 30 6 41 18c11 11 17 25 17 41zM463 1195l-114 -170h-87l64 170h137z" />
    <glyph glyph-name="aringacute" unicode="&#x1fb;" horiz-adv-x="534" 
d="M467 0h-127v45c-33 -33 -76 -50 -128 -50c-58 0 -102 15 -133 46c-29 29 -43 68 -43 117c0 44 15 80 44 107c33 29 78 44 136 44h121v26c0 55 -32 82 -97 82c-41 0 -74 -15 -100 -45l-82 81c45 49 108 74 187 74c148 0 222 -61 222 -184v-343zM337 192v28h-99
c-51 0 -77 -20 -77 -60c0 -39 26 -59 79 -59c35 0 60 8 77 25c13 11 20 33 20 66zM392 715c0 -36 -13 -67 -38 -92c-26 -26 -57 -39 -93 -39s-67 13 -92 39c-26 25 -39 56 -39 92s13 67 39 93c25 25 56 38 92 38c35 0 66 -13 93 -38c25 -25 38 -56 38 -93zM319 715
c0 16 -6 30 -17 41s-25 17 -41 17s-30 -6 -41 -17s-17 -25 -17 -41s6 -30 17 -41c11 -12 25 -18 41 -18c17 0 30 6 41 18c11 11 17 25 17 41zM407 1026l-114 -170h-87l64 170h137z" />
    <glyph glyph-name="AEacute" unicode="&#x1fc;" horiz-adv-x="979" 
d="M926 0h-468v156h-225l-81 -156h-149l372 712h551v-124h-330v-168h282v-124h-282v-172h330v-124zM458 273v315l-165 -315h165zM659 951l-114 -170h-87l64 170h137z" />
    <glyph glyph-name="aeacute" unicode="&#x1fd;" horiz-adv-x="838" 
d="M337 192v28h-99c-51 0 -77 -20 -77 -60c0 -39 26 -59 79 -59c35 0 60 8 77 25c13 11 20 33 20 66zM465 309h198c-1 22 -5 41 -12 56c-15 36 -44 54 -87 54s-72 -18 -87 -54c-7 -15 -11 -34 -12 -56zM395 67c-46 -49 -107 -73 -183 -73c-57 0 -102 16 -133 47
c-29 29 -43 68 -43 117c0 44 15 80 44 107c33 29 78 44 136 44h121v26c0 55 -32 82 -97 82c-41 0 -74 -15 -100 -45l-82 81c45 49 108 74 187 74s136 -19 171 -57c36 38 85 57 148 57c71 0 127 -23 168 -70c39 -47 59 -107 59 -182v-55h-326c0 -34 10 -62 29 -83
c21 -22 50 -33 85 -33c45 0 85 16 118 49l79 -77c-53 -55 -119 -82 -198 -82c-80 0 -141 24 -183 73zM536 774l-114 -170h-87l64 170h137z" />
    <glyph glyph-name="Oslashacute" unicode="&#x1fe;" horiz-adv-x="644" 
d="M585 356c0 -81 -3 -137 -10 -168c-9 -46 -30 -86 -63 -119c-50 -50 -113 -75 -190 -75c-43 0 -81 7 -113 21l-29 -59h-99l53 110l-3 3c-33 33 -54 73 -63 119c-6 31 -9 87 -9 168s3 137 9 168c9 46 30 86 63 119c50 50 114 75 191 75c41 0 79 -7 113 -22l29 60h98
l-53 -110l3 -3c33 -33 54 -73 63 -119c7 -31 10 -87 10 -168zM446 356c0 74 -3 124 -10 150l-178 -371c19 -11 41 -17 64 -17c37 0 66 13 89 39c23 27 35 94 35 199zM198 356c0 -75 3 -125 9 -150l178 371c-19 11 -40 17 -63 17c-37 0 -67 -13 -90 -38s-34 -92 -34 -200z
M468 951l-114 -170h-87l64 170h137z" />
    <glyph glyph-name="oslashacute" unicode="&#x1ff;" 
d="M492 261c0 -94 -20 -162 -59 -203c-40 -43 -94 -64 -162 -64c-37 0 -72 8 -104 23l-36 -61h-79l59 101c-40 41 -60 109 -60 204c0 93 20 161 59 202c40 43 94 64 161 64c41 0 76 -7 105 -22l35 60h80l-59 -100c40 -44 60 -112 60 -204zM362 261c0 34 -3 62 -8 85
l-131 -222c13 -9 29 -13 48 -13c25 0 46 8 61 23c20 20 30 62 30 127zM188 175l132 222c-13 9 -30 13 -49 13c-25 0 -45 -8 -60 -23c-20 -20 -30 -62 -30 -126c0 -39 2 -68 7 -86zM418 774l-114 -170h-87l64 170h137z" />
    <glyph glyph-name="uni0218" unicode="&#x218;" horiz-adv-x="591" 
d="M543 210c0 -68 -25 -121 -76 -160c-49 -37 -111 -56 -188 -56c-111 0 -198 31 -260 94l90 90c40 -40 97 -60 171 -60c85 0 127 30 127 89c0 25 -7 44 -22 59c-13 12 -35 20 -64 24l-85 13c-61 9 -107 29 -138 59c-34 33 -51 80 -51 140c0 65 22 117 66 156
c45 40 106 60 182 60c96 0 173 -28 230 -83l-88 -87c-33 33 -81 49 -146 49c-35 0 -63 -9 -82 -27c-18 -16 -27 -37 -27 -63c0 -21 7 -38 20 -51c15 -14 36 -23 65 -27l85 -13c61 -9 107 -28 136 -56c37 -34 55 -84 55 -150zM370 -60l-44 -146h-121l69 146h96z" />
    <glyph glyph-name="uni0219" unicode="&#x219;" horiz-adv-x="501" 
d="M465 164c0 -55 -21 -98 -64 -128c-40 -28 -92 -42 -157 -42c-97 0 -171 25 -222 75l85 85c32 -33 78 -49 139 -49s92 18 92 54c0 29 -18 45 -55 48l-84 8c-100 10 -150 59 -150 146c0 52 20 93 61 124c37 28 84 42 140 42c89 0 156 -20 199 -61l-80 -81
c-27 23 -67 35 -121 35c-49 0 -74 -17 -74 -50c0 -26 18 -41 54 -45l82 -8c103 -10 155 -61 155 -153zM325 -60l-44 -146h-121l69 146h96z" />
    <glyph glyph-name="uni021A" unicode="&#x21a;" horiz-adv-x="571" 
d="M541 588h-186v-588h-139v588h-186v124h511v-124zM333 -60l-44 -146h-121l69 146h96z" />
    <glyph glyph-name="uni021B" unicode="&#x21b;" horiz-adv-x="352" 
d="M307 0h-71c-49 0 -88 16 -115 47c-24 27 -36 61 -36 102v258h-55v99h55v154h130v-154h92v-99h-92v-250c0 -31 15 -47 45 -47h47v-110zM251 -60l-44 -146h-121l69 146h96z" />
    <glyph glyph-name="uni0237" unicode="&#x237;" horiz-adv-x="275" 
d="M203 506v-552c0 -41 -12 -75 -36 -102c-27 -31 -66 -47 -116 -47h-74v110h50c31 0 46 16 46 47v544h130z" />
    <glyph glyph-name="uni0259" unicode="&#x259;" horiz-adv-x="548" 
d="M47 301h326c0 35 -10 63 -29 84c-21 21 -50 32 -85 32c-45 0 -85 -16 -118 -49l-79 77c53 55 119 82 198 82c161 0 241 -89 241 -267c0 -83 -21 -149 -63 -197c-41 -46 -95 -69 -164 -69c-71 0 -127 24 -168 71c-39 45 -59 106 -59 181v55zM373 212h-198
c1 -22 5 -41 12 -56c16 -36 45 -54 87 -54s71 18 87 54c7 15 11 34 12 56z" />
    <glyph glyph-name="uni02BB" unicode="&#x2bb;" horiz-adv-x="273" 
d="M204 589h-136v123l136 105v-228z" />
    <glyph glyph-name="uni02BC" unicode="&#x2bc;" horiz-adv-x="273" 
d="M204 588l-136 -103v227h136v-124z" />
    <glyph glyph-name="circumflex" unicode="&#x2c6;" horiz-adv-x="500" 
d="M434 604h-101l-83 91l-83 -91h-101l132 169h104z" />
    <glyph glyph-name="caron" unicode="&#x2c7;" horiz-adv-x="500" 
d="M434 773l-132 -169h-104l-132 169h101l83 -90l83 90h101z" />
    <glyph glyph-name="breve" unicode="&#x2d8;" horiz-adv-x="500" 
d="M327 748h87c-3 -51 -21 -90 -52 -116c-29 -23 -66 -35 -112 -35s-84 12 -113 35c-32 26 -49 65 -51 116h87c5 -40 31 -60 77 -60c47 0 72 20 77 60z" />
    <glyph glyph-name="dotaccent" unicode="&#x2d9;" horiz-adv-x="500" 
d="M308 612h-116v116h116v-116z" />
    <glyph glyph-name="ring" unicode="&#x2da;" horiz-adv-x="500" 
d="M381 715c0 -36 -13 -67 -38 -92c-26 -26 -57 -39 -93 -39s-67 13 -92 39c-26 25 -39 56 -39 92s13 67 39 93c25 25 56 38 92 38c35 0 66 -13 93 -38c25 -25 38 -56 38 -93zM308 715c0 16 -6 30 -17 41s-25 17 -41 17s-30 -6 -41 -17s-17 -25 -17 -41s6 -30 17 -41
c11 -12 25 -18 41 -18c17 0 30 6 41 18c11 11 17 25 17 41z" />
    <glyph glyph-name="ogonek" unicode="&#x2db;" horiz-adv-x="500" 
d="M407 -60l-44 -146h-121l69 146h96z" />
    <glyph glyph-name="tilde" unicode="&#x2dc;" horiz-adv-x="500" 
d="M389 728l58 -57c-39 -39 -76 -58 -113 -58c-26 0 -52 7 -77 22c-21 12 -39 18 -56 18c-20 0 -39 -9 -58 -28l-57 57c39 39 76 58 112 58c27 0 53 -7 78 -22c19 -13 38 -19 55 -19c19 0 39 10 58 29z" />
    <glyph glyph-name="hungarumlaut" unicode="&#x2dd;" horiz-adv-x="500" 
d="M260 774l-113 -170h-88l64 170h137zM462 774l-115 -170h-86l63 170h138z" />
    <glyph glyph-name="gravecomb" unicode="&#x300;" horiz-adv-x="0" 
d="M-141 604h-87l-114 170h137z" />
    <glyph glyph-name="acutecomb" unicode="&#x301;" horiz-adv-x="0" 
d="M-126 774l-114 -170h-87l64 170h137z" />
    <glyph glyph-name="tildecomb" unicode="&#x303;" horiz-adv-x="0" 
d="M-68 728l58 -57c-39 -39 -76 -58 -113 -58c-26 0 -52 7 -77 22c-21 12 -40 18 -56 18c-20 0 -39 -9 -58 -28l-57 57c39 39 76 58 112 58c27 0 53 -7 78 -22c19 -13 38 -19 55 -19c19 0 39 10 58 29z" />
    <glyph glyph-name="uni0306" unicode="&#x306;" horiz-adv-x="0" 
d="M-130 748h87c-3 -51 -21 -90 -52 -116c-29 -23 -66 -35 -112 -35s-84 12 -113 35c-32 26 -49 65 -51 116h87c5 -40 30 -60 77 -60c46 0 72 20 77 60z" />
    <glyph glyph-name="hookabovecomb" unicode="&#x309;" horiz-adv-x="0" 
d="M63 649l-60 8c5 39 17 66 36 81c19 14 40 20 65 17c25 -2 44 -12 59 -31c29 -37 25 -78 -11 -122l-27 -28h-89l48 51c19 24 29 38 30 43c1 7 -1 12 -4 17c-3 3 -8 6 -15 7c-6 1 -11 0 -14 -3c-10 -9 -16 -23 -18 -40z" />
    <glyph glyph-name="uni031B" unicode="&#x31b;" horiz-adv-x="0" 
d="M96 783v69c43 0 73 -9 92 -27c19 -17 28 -39 28 -68s-9 -51 -28 -68c-19 -18 -49 -27 -92 -27v69c21 0 34 2 39 7s8 12 8 19s-3 13 -8 18s-18 8 -39 8z" />
    <glyph glyph-name="dotbelowcomb" unicode="&#x323;" horiz-adv-x="0" 
d="M-124 -232h-149v148h149v-148z" />
    <glyph glyph-name="uni037E" unicode="&#x37e;" horiz-adv-x="309" 
d="M238 -55l-142 -110v307h142v-197zM241 271h-148v148h148v-148z" />
    <glyph glyph-name="tonos" unicode="&#x384;" horiz-adv-x="360" 
d="M242 622l-116 -49v158h116v-109z" />
    <glyph glyph-name="dieresistonos" unicode="&#x385;" horiz-adv-x="481" 
d="M454 590h-111v125h111v-125zM301 639l-115 -49v158h115v-109zM138 590h-111v125h111v-125z" />
    <glyph glyph-name="Alphatonos" unicode="&#x386;" horiz-adv-x="638" 
d="M633 0h-145l-42 126h-253l-43 -126h-145l259 712h109zM409 243l-87 259l-90 -259h177zM90 603l-116 -49v158h116v-109z" />
    <glyph glyph-name="anoteleia" unicode="&#x387;" horiz-adv-x="285" 
d="M217 212h-149v148h149v-148z" />
    <glyph glyph-name="Epsilontonos" unicode="&#x388;" horiz-adv-x="605" 
d="M552 0h-469v712h469v-124h-330v-167h281v-124h-281v-173h330v-124zM10 603l-116 -49v158h116v-109z" />
    <glyph glyph-name="Etatonos" unicode="&#x389;" horiz-adv-x="685" 
d="M602 0h-139v298h-241v-298h-139v712h139v-291h241v291h139v-712zM10 603l-116 -49v158h116v-109z" />
    <glyph glyph-name="Iotatonos" unicode="&#x38a;" horiz-adv-x="305" 
d="M222 0h-139v712h139v-712zM10 603l-116 -49v158h116v-109z" />
    <glyph glyph-name="Omicrontonos" unicode="&#x38c;" horiz-adv-x="644" 
d="M585 356c0 -81 -3 -137 -10 -168c-9 -46 -30 -86 -63 -119c-50 -50 -113 -75 -190 -75s-141 25 -191 75c-33 33 -54 73 -63 119c-6 31 -9 87 -9 168s3 137 9 168c9 46 30 86 63 119c50 50 114 75 191 75s140 -25 190 -75c33 -33 54 -73 63 -119c7 -31 10 -87 10 -168z
M446 356c0 106 -12 173 -35 200c-22 25 -52 38 -89 38s-67 -13 -90 -38s-34 -92 -34 -200c0 -107 11 -174 34 -199c24 -26 54 -39 90 -39c37 0 66 13 89 39c23 27 35 94 35 199zM30 603l-116 -49v158h116v-109z" />
    <glyph glyph-name="Upsilontonos" unicode="&#x38e;" horiz-adv-x="572" 
d="M569 712l-214 -420v-292h-138v292l-214 420h151l133 -287l131 287h151zM-30 603l-116 -49v158h116v-109z" />
    <glyph glyph-name="Omegatonos" unicode="&#x38f;" horiz-adv-x="644" 
d="M585 356c0 -80 -8 -139 -23 -178c-9 -21 -21 -39 -36 -54h59v-124h-219v110c25 12 42 26 53 43c18 25 27 91 27 196c0 111 -12 179 -35 206c-23 26 -52 39 -89 39c-36 0 -66 -13 -90 -39c-23 -25 -34 -94 -34 -206c0 -105 9 -171 26 -196c12 -17 30 -32 54 -43v-110h-219
v124h59c-15 15 -28 33 -37 54c-15 37 -22 97 -22 178s3 137 9 168c9 46 30 86 63 119c51 50 115 75 191 75c77 0 140 -25 190 -75c33 -33 54 -73 63 -119c7 -31 10 -87 10 -168zM30 603l-116 -49v158h116v-109z" />
    <glyph glyph-name="iotadieresistonos" unicode="&#x390;" horiz-adv-x="325" 
d="M294 0h-74c-50 0 -89 16 -116 47c-24 27 -36 61 -36 102v372h130v-364c0 -31 15 -47 46 -47h50v-110zM354 590h-111v125h111v-125zM201 639l-115 -49v158h115v-109zM38 590h-111v125h111v-125z" />
    <glyph glyph-name="Alpha" unicode="&#x391;" horiz-adv-x="638" 
d="M633 0h-145l-42 126h-253l-43 -126h-145l259 712h109zM409 243l-87 259l-90 -259h177z" />
    <glyph glyph-name="Beta" unicode="&#x392;" horiz-adv-x="658" 
d="M599 205c0 -65 -20 -115 -61 -152c-39 -35 -92 -53 -157 -53h-298v712h286c69 0 123 -18 162 -54s58 -85 58 -146c0 -70 -29 -119 -88 -147c65 -31 98 -85 98 -160zM450 506c0 55 -31 82 -92 82h-136v-164h136c61 0 92 27 92 82zM460 212c0 25 -8 45 -23 62
c-17 17 -40 25 -70 25h-145v-175h145c29 0 53 9 70 26c15 17 23 37 23 62z" />
    <glyph glyph-name="Gamma" unicode="&#x393;" horiz-adv-x="568" 
d="M539 588h-317v-588h-139v712h456v-124z" />
    <glyph glyph-name="uni0394" unicode="&#x394;" horiz-adv-x="634" 
d="M631 0h-628l260 712h108zM450 117l-130 385l-134 -385h264z" />
    <glyph glyph-name="Epsilon" unicode="&#x395;" horiz-adv-x="605" 
d="M552 0h-469v712h469v-124h-330v-167h281v-124h-281v-173h330v-124z" />
    <glyph glyph-name="Zeta" unicode="&#x396;" horiz-adv-x="548" 
d="M508 0h-468v112l304 476h-291v124h455v-110l-305 -478h305v-124z" />
    <glyph glyph-name="Eta" unicode="&#x397;" horiz-adv-x="685" 
d="M602 0h-139v298h-241v-298h-139v712h139v-291h241v291h139v-712z" />
    <glyph glyph-name="Theta" unicode="&#x398;" horiz-adv-x="644" 
d="M585 356c0 -81 -3 -137 -10 -168c-9 -46 -30 -86 -63 -119c-50 -50 -113 -75 -190 -75c-76 0 -140 25 -191 75c-33 33 -54 73 -63 119c-6 31 -9 87 -9 168s3 137 9 168c9 46 30 86 63 119c51 50 115 75 191 75c77 0 140 -25 190 -75c33 -33 54 -73 63 -119
c7 -31 10 -87 10 -168zM411 157c22 24 33 72 34 143h-247c3 -73 15 -120 34 -143c24 -26 54 -39 90 -39c37 0 66 13 89 39zM232 556c-21 -23 -32 -68 -33 -137h246c-3 69 -14 114 -34 137c-22 25 -52 38 -89 38s-67 -13 -90 -38z" />
    <glyph glyph-name="Iota" unicode="&#x399;" horiz-adv-x="305" 
d="M222 0h-139v712h139v-712z" />
    <glyph glyph-name="Kappa" unicode="&#x39a;" horiz-adv-x="665" 
d="M659 0h-162l-183 324l-92 -110v-214h-139v712h139v-310l251 310h169l-236 -283z" />
    <glyph glyph-name="Lambda" unicode="&#x39b;" horiz-adv-x="611" 
d="M603 0h-145l-149 498l-156 -498h-145l240 712h114z" />
    <glyph glyph-name="Mu" unicode="&#x39c;" horiz-adv-x="811" 
d="M728 0h-139v415l-136 -270h-94l-137 270v-415h-139v712h137l186 -385l185 385h137v-712z" />
    <glyph glyph-name="Nu" unicode="&#x39d;" horiz-adv-x="711" 
d="M628 0h-124l-282 437v-437h-139v712h124l282 -436v436h139v-712z" />
    <glyph glyph-name="Xi" unicode="&#x39e;" horiz-adv-x="597" 
d="M544 0h-491v124h176v173h-128v124h128v167h-176v124h491v-124h-176v-167h128v-124h-128v-173h176v-124z" />
    <glyph glyph-name="Omicron" unicode="&#x39f;" horiz-adv-x="644" 
d="M585 356c0 -81 -3 -137 -10 -168c-9 -46 -30 -86 -63 -119c-50 -50 -113 -75 -190 -75s-141 25 -191 75c-33 33 -54 73 -63 119c-6 31 -9 87 -9 168s3 137 9 168c9 46 30 86 63 119c50 50 114 75 191 75s140 -25 190 -75c33 -33 54 -73 63 -119c7 -31 10 -87 10 -168z
M446 356c0 106 -12 173 -35 200c-22 25 -52 38 -89 38s-67 -13 -90 -38s-34 -92 -34 -200c0 -107 11 -174 34 -199c24 -26 54 -39 90 -39c37 0 66 13 89 39c23 27 35 94 35 199z" />
    <glyph glyph-name="Pi" unicode="&#x3a0;" horiz-adv-x="682" 
d="M599 0h-139v588h-238v-588h-139v712h516v-712z" />
    <glyph glyph-name="Rho" unicode="&#x3a1;" horiz-adv-x="628" 
d="M594 490c0 -63 -21 -115 -62 -156c-43 -44 -100 -66 -173 -66h-137v-268h-139v712h276c73 0 130 -22 173 -66c41 -41 62 -93 62 -156zM455 490c0 29 -9 53 -28 71s-44 27 -75 27h-130v-195h130c31 0 56 9 75 27c19 17 28 40 28 70z" />
    <glyph glyph-name="Sigma" unicode="&#x3a3;" horiz-adv-x="547" 
d="M511 588h-287l131 -212l-152 -252h305v-124h-468v111l161 263l-145 232v106h455v-124z" />
    <glyph glyph-name="Tau" unicode="&#x3a4;" horiz-adv-x="571" 
d="M541 588h-186v-588h-139v588h-186v124h511v-124z" />
    <glyph glyph-name="Upsilon" unicode="&#x3a5;" horiz-adv-x="572" 
d="M569 712l-214 -420v-292h-138v292l-214 420h151l133 -287l131 287h151z" />
    <glyph glyph-name="Phi" unicode="&#x3a6;" horiz-adv-x="777" 
d="M729 359c0 -102 -24 -177 -71 -224c-52 -52 -119 -78 -200 -78v-57h-139v57c-81 0 -148 26 -200 78c-47 47 -71 122 -71 224s24 177 71 224c52 52 119 78 200 78v51h139v-51c81 0 148 -26 200 -78c47 -47 71 -122 71 -224zM590 359c0 65 -11 111 -33 137
c-23 27 -56 41 -99 41v-356c43 0 76 13 99 40c22 26 33 72 33 138zM319 181v356c-43 0 -76 -14 -99 -41c-22 -26 -33 -72 -33 -137c0 -66 11 -112 33 -138c23 -27 56 -40 99 -40z" />
    <glyph glyph-name="Chi" unicode="&#x3a7;" horiz-adv-x="603" 
d="M598 0h-159l-138 248l-137 -248h-159l221 365l-207 347h158l124 -230l125 230h157l-207 -347z" />
    <glyph glyph-name="Psi" unicode="&#x3a8;" horiz-adv-x="745" 
d="M695 712v-349c0 -66 -22 -121 -65 -164c-51 -51 -113 -77 -188 -78v-121h-139v121c-75 1 -137 27 -188 78c-43 43 -65 98 -65 164v349h138v-349c0 -32 10 -59 30 -80c23 -24 52 -37 85 -38v467h139v-467c33 1 62 14 85 38c20 21 30 48 30 80v349h138z" />
    <glyph glyph-name="uni03A9" unicode="&#x3a9;" horiz-adv-x="644" 
d="M585 356c0 -80 -8 -139 -23 -178c-9 -21 -21 -39 -36 -54h59v-124h-219v110c25 12 42 26 53 43c18 25 27 91 27 196c0 111 -12 179 -35 206c-23 26 -52 39 -89 39c-36 0 -66 -13 -90 -39c-23 -25 -34 -94 -34 -206c0 -105 9 -171 26 -196c12 -17 30 -32 54 -43v-110h-219
v124h59c-15 15 -28 33 -37 54c-15 37 -22 97 -22 178s3 137 9 168c9 46 30 86 63 119c51 50 115 75 191 75c77 0 140 -25 190 -75c33 -33 54 -73 63 -119c7 -31 10 -87 10 -168z" />
    <glyph glyph-name="Iotadieresis" unicode="&#x3aa;" horiz-adv-x="305" 
d="M222 0h-139v712h139v-712zM316 783h-111v125h111v-125zM95 783h-111v125h111v-125z" />
    <glyph glyph-name="Upsilondieresis" unicode="&#x3ab;" horiz-adv-x="572" 
d="M569 712l-214 -420v-292h-138v292l-214 420h151l133 -287l131 287h151zM451 783h-111v125h111v-125zM230 783h-111v125h111v-125z" />
    <glyph glyph-name="alphatonos" unicode="&#x3ac;" horiz-adv-x="561" 
d="M488 0h-127v49c-33 -37 -76 -55 -129 -55c-54 0 -97 16 -128 47c-35 35 -53 109 -53 220s18 184 53 219c31 31 74 47 127 47c54 0 97 -18 129 -54v48h128v-521zM358 261c0 50 -5 85 -15 106c-13 29 -37 43 -73 43c-37 0 -61 -14 -74 -43c-10 -22 -15 -57 -15 -106
s5 -85 15 -106c13 -29 38 -44 74 -44c35 0 60 15 73 44c10 21 15 57 15 106zM342 622l-116 -49v158h116v-109z" />
    <glyph glyph-name="epsilontonos" unicode="&#x3ad;" horiz-adv-x="510" 
d="M406 163l84 -78c-63 -60 -140 -90 -232 -90c-58 0 -107 12 -146 36c-45 28 -67 68 -67 120c0 55 26 95 77 119c-42 20 -63 56 -63 107c0 45 21 82 62 110c39 27 86 40 143 40c73 0 139 -24 200 -72l-73 -88c-43 35 -84 52 -121 52c-24 0 -44 -5 -59 -15
c-15 -11 -23 -25 -23 -41c0 -14 6 -26 18 -35c13 -9 28 -14 47 -14h98v-99h-99c-50 0 -75 -17 -75 -51c0 -17 9 -32 27 -43c17 -11 38 -16 65 -16c48 0 94 19 137 58zM332 622l-116 -49v158h116v-109z" />
    <glyph glyph-name="etatonos" unicode="&#x3ae;" horiz-adv-x="573" 
d="M506 0h-130v315c0 33 -9 57 -28 74c-15 14 -34 21 -58 21s-44 -7 -59 -21c-19 -17 -28 -41 -28 -74v-315h-130v521h127v-48c34 36 77 54 130 54c51 0 92 -15 123 -46c35 -35 53 -85 53 -148v-333zM352 622l-116 -49v158h116v-109z" />
    <glyph glyph-name="iotatonos" unicode="&#x3af;" horiz-adv-x="325" 
d="M294 0h-74c-50 0 -89 16 -116 47c-24 27 -36 61 -36 102v372h130v-364c0 -31 15 -47 46 -47h50v-110zM194 622l-116 -49v158h116v-109z" />
    <glyph glyph-name="upsilondieresistonos" unicode="&#x3b0;" horiz-adv-x="545" 
d="M489 521v-281c0 -84 -18 -145 -55 -184c-40 -41 -94 -62 -162 -62c-67 0 -121 21 -161 62c-37 39 -55 100 -55 184v281h130v-314c0 -64 29 -96 86 -96c58 0 87 32 87 96v314h130zM486 590h-111v125h111v-125zM333 639l-115 -49v158h115v-109zM170 590h-111v125h111v-125z
" />
    <glyph glyph-name="alpha" unicode="&#x3b1;" horiz-adv-x="561" 
d="M488 0h-127v49c-33 -37 -76 -55 -129 -55c-54 0 -97 16 -128 47c-35 35 -53 109 -53 220s18 184 53 219c31 31 74 47 127 47c54 0 97 -18 129 -54v48h128v-521zM358 261c0 50 -5 85 -15 106c-13 29 -37 43 -73 43c-37 0 -61 -14 -74 -43c-10 -22 -15 -57 -15 -106
s5 -85 15 -106c13 -29 38 -44 74 -44c35 0 60 15 73 44c10 21 15 57 15 106z" />
    <glyph glyph-name="beta" unicode="&#x3b2;" horiz-adv-x="579" 
d="M531 218c0 -74 -19 -130 -58 -169c-37 -37 -83 -55 -140 -55c-55 0 -100 18 -134 55v-49h-126v520c0 62 21 110 63 145c41 33 93 50 158 50c63 0 114 -15 153 -46c40 -33 60 -77 60 -134c0 -43 -10 -78 -29 -103c-15 -19 -33 -33 -52 -41c26 -9 47 -22 63 -40
c28 -32 42 -76 42 -133zM402 228c0 46 -15 76 -44 89c-18 9 -42 13 -72 13h-51v103h61c58 0 87 29 87 88c0 25 -7 44 -21 59c-15 17 -36 25 -65 25c-62 0 -93 -33 -93 -99v-295c0 -29 9 -54 26 -73s39 -28 67 -28c29 0 52 7 69 21c24 21 36 54 36 97z" />
    <glyph glyph-name="gamma" unicode="&#x3b3;" horiz-adv-x="494" 
d="M490 521l-179 -506v-206h-129v206l-178 506h138l106 -340l104 340h138z" />
    <glyph glyph-name="delta" unicode="&#x3b4;" horiz-adv-x="537" 
d="M486 265c0 -91 -18 -159 -54 -202c-38 -46 -93 -69 -166 -69c-70 0 -123 22 -160 67c-37 43 -55 108 -55 195c0 91 22 158 65 199c29 29 65 43 106 43c16 0 28 -1 35 -4l-147 121v97h344v-101h-180l110 -92c68 -57 102 -141 102 -254zM354 256c0 65 -11 107 -33 126
c-13 11 -29 16 -50 16c-19 0 -36 -5 -51 -15c-26 -19 -39 -61 -39 -127s12 -109 36 -128c13 -11 30 -16 51 -16c22 0 39 5 51 15c23 18 35 61 35 129z" />
    <glyph glyph-name="epsilon" unicode="&#x3b5;" horiz-adv-x="510" 
d="M406 163l84 -78c-63 -60 -140 -90 -232 -90c-58 0 -107 12 -146 36c-45 28 -67 68 -67 120c0 55 26 95 77 119c-42 20 -63 56 -63 107c0 45 21 82 62 110c39 27 86 40 143 40c73 0 139 -24 200 -72l-73 -88c-43 35 -84 52 -121 52c-24 0 -44 -5 -59 -15
c-15 -11 -23 -25 -23 -41c0 -14 6 -26 18 -35c13 -9 28 -14 47 -14h98v-99h-99c-50 0 -75 -17 -75 -51c0 -17 9 -32 27 -43c17 -11 38 -16 65 -16c48 0 94 19 137 58z" />
    <glyph glyph-name="zeta" unicode="&#x3b6;" horiz-adv-x="500" 
d="M472 -19c0 -33 -10 -62 -29 -87c-31 -39 -81 -59 -150 -59v101c38 0 57 14 57 41c0 17 -16 26 -49 26h-44c-143 0 -214 53 -214 158c0 95 64 176 191 243h-158v117h384v-117h-19c-173 -75 -260 -152 -260 -229c0 -39 33 -59 98 -59h29c109 0 164 -45 164 -135z" />
    <glyph glyph-name="eta" unicode="&#x3b7;" horiz-adv-x="573" 
d="M506 0h-130v315c0 33 -9 57 -28 74c-15 14 -34 21 -58 21s-44 -7 -59 -21c-19 -17 -28 -41 -28 -74v-315h-130v521h127v-48c34 36 77 54 130 54c51 0 92 -15 123 -46c35 -35 53 -85 53 -148v-333z" />
    <glyph glyph-name="theta" unicode="&#x3b8;" horiz-adv-x="575" 
d="M513 356c0 -148 -21 -246 -63 -293c-40 -46 -94 -69 -162 -69c-69 0 -123 23 -163 69c-42 47 -63 145 -63 293c0 149 21 246 63 293c41 46 96 69 163 69s121 -23 162 -69c42 -47 63 -144 63 -293zM382 311h-189c0 -90 9 -146 27 -167c17 -22 40 -33 68 -33s50 11 67 33
c18 21 27 77 27 167zM193 420h189c0 78 -9 127 -27 148c-17 22 -39 33 -67 33s-51 -11 -68 -33c-18 -21 -27 -70 -27 -148z" />
    <glyph glyph-name="iota" unicode="&#x3b9;" horiz-adv-x="325" 
d="M294 0h-74c-50 0 -89 16 -116 47c-24 27 -36 61 -36 102v372h130v-364c0 -31 15 -47 46 -47h50v-110z" />
    <glyph glyph-name="kappa" unicode="&#x3ba;" horiz-adv-x="560" 
d="M548 0h-162l-128 217l-55 -62v-155h-131v521h131v-213l173 213h157l-186 -210z" />
    <glyph glyph-name="lambda" unicode="&#x3bb;" horiz-adv-x="514" 
d="M522 0h-54c-74 0 -124 42 -150 127l-60 193l-113 -320h-137l188 486l-21 74c-8 28 -27 42 -57 42h-32v115h48c48 0 86 -14 113 -41c15 -15 28 -37 38 -66l152 -458c9 -28 25 -42 48 -42h37v-110z" />
    <glyph glyph-name="uni03BC" unicode="&#x3bc;" horiz-adv-x="576" 
d="M503 0h-127v48c-34 -36 -77 -54 -130 -54c-17 0 -33 5 -46 14v-199h-130v712h130v-315c0 -33 9 -57 28 -74c15 -14 35 -21 58 -21c25 0 44 7 59 21c19 17 28 41 28 74v315h130v-521z" />
    <glyph glyph-name="nu" unicode="&#x3bd;" horiz-adv-x="494" 
d="M490 521l-192 -521h-102l-192 521h138l106 -321l104 321h138z" />
    <glyph glyph-name="xi" unicode="&#x3be;" horiz-adv-x="509" 
d="M497 628l-72 -84c-41 45 -85 67 -134 67c-29 0 -52 -8 -69 -25s-26 -41 -26 -70c0 -57 31 -86 93 -86h120v-109h-110c-26 0 -50 -6 -71 -18c-33 -19 -50 -50 -50 -91c0 -64 34 -96 103 -96h44c103 0 155 -45 155 -135c0 -33 -10 -62 -29 -87c-31 -39 -81 -59 -150 -59
v101c38 0 57 14 57 41c0 17 -18 26 -53 26h-44c-67 0 -120 17 -159 50s-59 81 -59 143c0 93 41 154 122 183c-63 21 -95 68 -95 140c0 61 21 110 62 147c41 36 93 54 155 54c85 0 155 -31 210 -92z" />
    <glyph glyph-name="omicron" unicode="&#x3bf;" 
d="M492 261c0 -95 -20 -162 -59 -203c-41 -43 -95 -64 -162 -64s-120 21 -161 64c-39 43 -59 110 -59 203c0 92 20 159 59 202c41 43 94 64 161 64c68 0 122 -21 162 -64c39 -43 59 -110 59 -202zM362 261c0 65 -10 107 -30 126c-15 15 -36 23 -61 23s-45 -8 -60 -23
c-20 -19 -30 -61 -30 -126s10 -108 30 -127c15 -15 35 -23 60 -23s46 8 61 23c20 19 30 62 30 127z" />
    <glyph glyph-name="pi" unicode="&#x3c0;" horiz-adv-x="578" 
d="M511 0h-129v399h-180v-399h-130v521h439v-521z" />
    <glyph glyph-name="rho" unicode="&#x3c1;" horiz-adv-x="536" 
d="M485 259c0 -93 -20 -161 -60 -204c-37 -41 -84 -61 -142 -61c-33 0 -67 15 -102 46v-231h-130v451c0 91 16 155 49 192c42 50 97 75 164 75c69 0 123 -21 163 -64c39 -41 58 -109 58 -204zM355 260c0 56 -6 94 -19 115c-15 23 -38 34 -70 34c-29 0 -51 -11 -65 -33
c-13 -21 -20 -60 -20 -115c0 -53 5 -89 15 -108c15 -27 38 -40 71 -40c59 0 88 49 88 147z" />
    <glyph glyph-name="sigma1" unicode="&#x3c2;" horiz-adv-x="480" 
d="M452 457l-89 -88c-25 27 -53 41 -82 41c-31 0 -56 -11 -75 -34s-28 -61 -28 -115c0 -85 39 -131 116 -139c97 -11 146 -58 146 -141c0 -33 -10 -62 -29 -87c-31 -39 -81 -59 -150 -59v101c38 0 57 14 57 41c0 19 -21 31 -64 35c-63 5 -111 27 -146 64
c-41 43 -61 104 -61 185c0 95 26 166 78 212c41 36 93 54 156 54c69 0 126 -23 171 -70z" />
    <glyph glyph-name="sigma" unicode="&#x3c3;" horiz-adv-x="567" 
d="M521 410h-83c37 -29 55 -78 55 -149c0 -92 -20 -160 -60 -203c-41 -43 -94 -64 -161 -64s-120 21 -161 64c-40 43 -60 111 -60 203s20 159 59 200c39 40 93 60 160 60h251v-111zM363 261c0 66 -10 109 -31 130c-15 15 -35 22 -61 22c-24 0 -44 -8 -60 -24
c-20 -20 -30 -63 -30 -128s10 -107 30 -127c15 -15 36 -23 61 -23s46 8 61 23c20 20 30 62 30 127z" />
    <glyph glyph-name="tau" unicode="&#x3c4;" horiz-adv-x="405" 
d="M383 404h-115v-404h-131v404h-115v117h361v-117z" />
    <glyph glyph-name="upsilon" unicode="&#x3c5;" horiz-adv-x="545" 
d="M489 521v-281c0 -84 -18 -145 -55 -184c-40 -41 -94 -62 -162 -62c-67 0 -121 21 -161 62c-37 39 -55 100 -55 184v281h130v-314c0 -64 29 -96 86 -96c58 0 87 32 87 96v314h130z" />
    <glyph glyph-name="phi" unicode="&#x3c6;" horiz-adv-x="699" 
d="M648 263c0 -177 -77 -266 -232 -269v-185h-130v185c-79 3 -140 30 -181 83c-36 46 -54 107 -54 184c0 123 53 210 158 262l46 -96c-49 -31 -73 -87 -73 -170c0 -94 35 -144 104 -149v413h115c88 0 151 -21 190 -63c38 -41 57 -106 57 -195zM517 265c0 48 -6 83 -17 104
c-15 27 -43 40 -84 40v-301c41 1 69 16 84 46c11 23 17 60 17 111z" />
    <glyph glyph-name="chi" unicode="&#x3c7;" horiz-adv-x="527" 
d="M515 0h-156l-96 156l-95 -156h-156l180 266l-173 255h156l88 -149l89 149h156l-173 -255z" />
    <glyph glyph-name="psi" unicode="&#x3c8;" horiz-adv-x="700" 
d="M642 521v-260c0 -93 -19 -161 -56 -202s-94 -62 -170 -62v-188h-131v188c-76 0 -133 21 -170 62c-38 41 -57 109 -57 202v260h131v-284c0 -84 32 -126 96 -126v410h131v-410c63 0 95 42 95 126v284h131z" />
    <glyph glyph-name="omega" unicode="&#x3c9;" horiz-adv-x="759" 
d="M708 261c0 -86 -14 -149 -43 -190c-37 -51 -88 -77 -151 -77c-59 0 -104 24 -135 71c-31 -47 -76 -71 -135 -71c-63 0 -113 26 -150 77c-29 41 -43 104 -43 190c0 91 19 158 56 199c42 45 96 67 161 67v-118c-25 0 -46 -10 -62 -29c-17 -19 -25 -59 -25 -119
c0 -58 7 -98 22 -121c13 -19 29 -28 49 -28c27 0 45 17 55 51c5 16 7 37 7 64v142h130v-142c0 -29 2 -50 6 -64c9 -34 28 -51 56 -51c20 0 36 9 49 28c15 23 22 63 22 121c0 61 -8 100 -24 119s-37 29 -63 29v118c65 0 119 -22 161 -67c38 -41 57 -107 57 -199z" />
    <glyph glyph-name="iotadieresis" unicode="&#x3ca;" horiz-adv-x="325" 
d="M294 0h-74c-50 0 -89 16 -116 47c-24 27 -36 61 -36 102v372h130v-364c0 -31 15 -47 46 -47h50v-110zM304 606h-111v125h111v-125zM83 606h-111v125h111v-125z" />
    <glyph glyph-name="upsilondieresis" unicode="&#x3cb;" horiz-adv-x="545" 
d="M489 521v-281c0 -84 -18 -145 -55 -184c-40 -41 -94 -62 -162 -62c-67 0 -121 21 -161 62c-37 39 -55 100 -55 184v281h130v-314c0 -64 29 -96 86 -96c58 0 87 32 87 96v314h130zM443 606h-111v125h111v-125zM222 606h-111v125h111v-125z" />
    <glyph glyph-name="omicrontonos" unicode="&#x3cc;" 
d="M492 261c0 -95 -20 -162 -59 -203c-41 -43 -95 -64 -162 -64s-120 21 -161 64c-39 43 -59 110 -59 203c0 92 20 159 59 202c41 43 94 64 161 64c68 0 122 -21 162 -64c39 -43 59 -110 59 -202zM362 261c0 65 -10 107 -30 126c-15 15 -36 23 -61 23s-45 -8 -60 -23
c-20 -19 -30 -61 -30 -126s10 -108 30 -127c15 -15 35 -23 60 -23s46 8 61 23c20 19 30 62 30 127zM332 622l-116 -49v158h116v-109z" />
    <glyph glyph-name="upsilontonos" unicode="&#x3cd;" horiz-adv-x="545" 
d="M489 521v-281c0 -84 -18 -145 -55 -184c-40 -41 -94 -62 -162 -62c-67 0 -121 21 -161 62c-37 39 -55 100 -55 184v281h130v-314c0 -64 29 -96 86 -96c58 0 87 32 87 96v314h130zM332 622l-116 -49v158h116v-109z" />
    <glyph glyph-name="omegatonos" unicode="&#x3ce;" horiz-adv-x="759" 
d="M708 261c0 -86 -14 -149 -43 -190c-37 -51 -88 -77 -151 -77c-59 0 -104 24 -135 71c-31 -47 -76 -71 -135 -71c-63 0 -113 26 -150 77c-29 41 -43 104 -43 190c0 91 19 158 56 199c42 45 96 67 161 67v-118c-25 0 -46 -10 -62 -29c-17 -19 -25 -59 -25 -119
c0 -58 7 -98 22 -121c13 -19 29 -28 49 -28c27 0 45 17 55 51c5 16 7 37 7 64v142h130v-142c0 -29 2 -50 6 -64c9 -34 28 -51 56 -51c20 0 36 9 49 28c15 23 22 63 22 121c0 61 -8 100 -24 119s-37 29 -63 29v118c65 0 119 -22 161 -67c38 -41 57 -107 57 -199zM440 622
l-116 -49v158h116v-109z" />
    <glyph glyph-name="uni03D0" unicode="&#x3d0;" horiz-adv-x="579" 
d="M531 218c0 -74 -19 -130 -58 -169c-37 -37 -83 -55 -140 -55c-55 0 -98 17 -130 52v-237h-130v712c0 61 21 109 63 144c41 33 93 50 158 50c63 0 114 -15 153 -46c40 -33 60 -77 60 -134c0 -43 -10 -78 -29 -103c-15 -19 -33 -33 -52 -41c26 -9 47 -22 63 -40
c28 -32 42 -76 42 -133zM402 228c0 46 -15 76 -44 89c-18 9 -42 13 -72 13h-51v103h61c58 0 87 29 87 88c0 25 -7 44 -21 59c-15 17 -36 25 -65 25c-63 0 -94 -33 -94 -99v-295c0 -29 9 -54 27 -73c17 -19 39 -28 67 -28c29 0 52 7 69 21c24 21 36 54 36 97z" />
    <glyph glyph-name="uni0400" unicode="&#x400;" horiz-adv-x="605" 
d="M365 781h-87l-114 170h137zM552 0h-469v712h469v-124h-330v-167h281v-124h-281v-173h330v-124z" />
    <glyph glyph-name="uni0401" unicode="&#x401;" horiz-adv-x="605" 
d="M552 0h-469v712h469v-124h-330v-167h281v-124h-281v-173h330v-124zM476 783h-111v125h111v-125zM255 783h-111v125h111v-125z" />
    <glyph glyph-name="uni0402" unicode="&#x402;" horiz-adv-x="748" 
d="M684 225c0 -69 -21 -124 -64 -165c-42 -40 -98 -60 -167 -60h-42v119h31c31 0 56 9 75 27c19 19 28 45 28 78c0 69 -34 104 -103 104h-119v-328h-138v588h-157v124h512v-124h-217v-140h130c70 0 126 -20 167 -59c43 -40 64 -95 64 -164z" />
    <glyph glyph-name="uni0403" unicode="&#x403;" horiz-adv-x="561" 
d="M534 588h-309v-588h-139v712h448v-124zM440 951l-114 -170h-87l64 170h137z" />
    <glyph glyph-name="uni0404" unicode="&#x404;" horiz-adv-x="619" 
d="M444 216h138c-12 -72 -42 -127 -90 -166c-47 -37 -104 -56 -171 -56c-75 0 -139 25 -190 75c-33 33 -54 73 -63 119c-6 31 -9 87 -9 168s3 137 9 168c9 46 30 86 63 119c51 50 115 75 190 75c67 0 124 -19 171 -56c48 -39 78 -94 90 -166h-139c-16 67 -56 101 -121 101
c-37 0 -68 -13 -91 -39c-20 -22 -32 -69 -35 -140h218v-121h-218c3 -73 15 -121 35 -143c23 -26 54 -39 91 -39c64 0 105 34 122 101z" />
    <glyph glyph-name="uni0405" unicode="&#x405;" horiz-adv-x="591" 
d="M543 210c0 -68 -25 -121 -76 -160c-49 -37 -111 -56 -188 -56c-111 0 -198 31 -260 94l90 90c40 -40 97 -60 171 -60c85 0 127 30 127 89c0 25 -7 44 -22 59c-13 12 -35 20 -64 24l-85 13c-61 9 -107 29 -138 59c-34 33 -51 80 -51 140c0 65 22 117 66 156
c45 40 106 60 182 60c96 0 173 -28 230 -83l-88 -87c-33 33 -81 49 -146 49c-35 0 -63 -9 -82 -27c-18 -16 -27 -37 -27 -63c0 -21 7 -38 20 -51c15 -14 36 -23 65 -27l85 -13c61 -9 107 -28 136 -56c37 -34 55 -84 55 -150z" />
    <glyph glyph-name="uni0406" unicode="&#x406;" horiz-adv-x="305" 
d="M222 0h-139v712h139v-712z" />
    <glyph glyph-name="uni0407" unicode="&#x407;" horiz-adv-x="305" 
d="M222 0h-139v712h139v-712zM319 783h-111v125h111v-125zM98 783h-111v125h111v-125z" />
    <glyph glyph-name="uni0408" unicode="&#x408;" horiz-adv-x="511" 
d="M437 712v-478c0 -75 -25 -135 -76 -179c-47 -41 -105 -61 -175 -61c-73 0 -134 24 -183 73l92 91c27 -27 57 -40 91 -40c75 0 112 41 112 122v472h139z" />
    <glyph glyph-name="uni0409" unicode="&#x409;" horiz-adv-x="1008" 
d="M732 319h-130v-195h130c31 0 56 9 75 27s28 42 28 71c0 30 -9 53 -28 70c-19 18 -44 27 -75 27zM159 712h443v-268h141c69 0 125 -21 168 -62c42 -41 63 -94 63 -160s-21 -119 -64 -160s-99 -62 -167 -62h-280v588h-170v-207c0 -145 -18 -246 -55 -303
c-33 -52 -88 -78 -166 -78h-55v124h20c40 0 69 16 88 49c23 41 34 113 34 216v323z" />
    <glyph glyph-name="uni040A" unicode="&#x40a;" horiz-adv-x="1008" 
d="M974 222c0 -66 -21 -119 -64 -160s-99 -62 -167 -62h-280v320h-241v-320h-139v712h139v-268h241v268h139v-268h141c69 0 125 -21 168 -62c42 -41 63 -94 63 -160zM732 319h-130v-195h130c31 0 56 9 75 27s28 42 28 71c0 30 -9 53 -28 70c-19 18 -44 27 -75 27z" />
    <glyph glyph-name="uni040B" unicode="&#x40b;" horiz-adv-x="748" 
d="M684 0h-139v231c0 30 -9 53 -28 70c-19 18 -44 27 -75 27h-119v-328h-138v588h-156v124h511v-124h-217v-140h130c69 0 125 -20 167 -60c43 -40 64 -92 64 -157v-231z" />
    <glyph glyph-name="uni040C" unicode="&#x40c;" horiz-adv-x="641" 
d="M224 0h-139v712h139v-712zM645 0h-170l-250 373l230 339h166l-239 -334zM487 951l-114 -170h-87l64 170h137z" />
    <glyph glyph-name="uni040D" unicode="&#x40d;" horiz-adv-x="706" 
d="M623 0h-139v457l-277 -457h-124v712h139v-456l277 456h124v-712zM401 781h-87l-114 170h137z" />
    <glyph glyph-name="uni040E" unicode="&#x40e;" horiz-adv-x="581" 
d="M362 893h98c-2 -49 -20 -87 -53 -112c-27 -21 -64 -31 -109 -31s-82 10 -109 31c-33 25 -51 63 -53 112h98c3 -41 25 -62 64 -62s61 21 64 62zM577 712l-252 -592c-34 -80 -87 -120 -159 -120h-85v124h56c37 0 61 15 74 45l21 49l-228 494h145l149 -343l135 343h144z" />
    <glyph glyph-name="uni040F" unicode="&#x40f;" horiz-adv-x="686" 
d="M602 0h-192v-158h-134v158h-193v712h139v-588h241v588h139v-712z" />
    <glyph glyph-name="uni0410" unicode="&#x410;" horiz-adv-x="638" 
d="M633 0h-145l-42 126h-253l-43 -126h-145l259 712h109zM409 243l-87 259l-90 -259h177z" />
    <glyph glyph-name="uni0411" unicode="&#x411;" horiz-adv-x="654" 
d="M599 222c0 -66 -20 -119 -61 -160c-43 -41 -100 -62 -170 -62h-285v712h471v-124h-332v-144h146c70 0 126 -21 169 -62c41 -41 62 -95 62 -160zM460 222c0 29 -9 52 -26 71c-18 18 -42 27 -73 27h-139v-196h139c31 0 55 9 73 27c17 17 26 41 26 71z" />
    <glyph glyph-name="uni0412" unicode="&#x412;" horiz-adv-x="658" 
d="M501 365c22 -11 40 -24 54 -38c29 -31 44 -72 44 -123c0 -62 -20 -112 -59 -149s-92 -55 -159 -55h-298v712h286c67 0 121 -18 160 -53c40 -35 60 -82 60 -143c0 -68 -29 -118 -88 -151zM222 424h136c61 0 92 27 92 82s-31 82 -92 82h-136v-164zM222 124h145
c29 0 51 8 68 24s25 37 25 64s-8 48 -25 64c-17 15 -40 23 -68 23h-145v-175z" />
    <glyph glyph-name="uni0413" unicode="&#x413;" horiz-adv-x="561" 
d="M534 588h-309v-588h-139v712h448v-124z" />
    <glyph glyph-name="uni0414" unicode="&#x414;" horiz-adv-x="705" 
d="M677 -158h-134v158h-395v-158h-134v282h67c57 87 85 222 85 406v182h429v-588h82v-282zM456 124v464h-157v-103c0 -155 -21 -276 -63 -361h220z" />
    <glyph glyph-name="uni0415" unicode="&#x415;" horiz-adv-x="605" 
d="M552 0h-469v712h469v-124h-330v-167h281v-124h-281v-173h330v-124z" />
    <glyph glyph-name="uni0416" unicode="&#x416;" horiz-adv-x="941" 
d="M947 0h-168l-238 373l218 339h164l-233 -334zM162 0h-168l257 378l-233 334h164l218 -339zM540 0h-139v712h139v-712z" />
    <glyph glyph-name="uni0417" unicode="&#x417;" horiz-adv-x="606" 
d="M293 -6c-66 0 -122 19 -169 56c-48 39 -78 94 -90 166h138c18 -67 59 -101 122 -101c35 0 62 9 83 27c21 17 31 40 31 69c0 64 -36 96 -108 96h-92v114h93c65 0 97 30 97 90c0 27 -9 49 -28 65c-19 15 -44 23 -75 23c-64 0 -104 -34 -121 -103h-139c12 72 42 127 90 166
c47 37 104 56 171 56c70 0 128 -18 173 -53c45 -37 68 -85 68 -144c0 -69 -31 -120 -93 -153c69 -31 103 -85 103 -162c0 -63 -24 -115 -72 -154c-47 -39 -107 -58 -182 -58z" />
    <glyph glyph-name="uni0418" unicode="&#x418;" horiz-adv-x="706" 
d="M623 0h-139v457l-277 -457h-124v712h139v-456l277 456h124v-712z" />
    <glyph glyph-name="uni0419" unicode="&#x419;" horiz-adv-x="706" 
d="M418 893h98c-2 -49 -20 -87 -53 -112c-27 -21 -64 -31 -109 -31s-82 10 -109 31c-33 25 -51 63 -53 112h98c3 -41 25 -62 64 -62s61 21 64 62zM623 0h-139v457l-277 -457h-124v712h139v-456l277 456h124v-712z" />
    <glyph glyph-name="uni041A" unicode="&#x41a;" horiz-adv-x="641" 
d="M224 0h-139v712h139v-712zM645 0h-170l-250 373l230 339h166l-239 -334z" />
    <glyph glyph-name="uni041B" unicode="&#x41b;" horiz-adv-x="686" 
d="M602 0h-139v588h-170v-207c0 -145 -18 -246 -55 -303c-33 -52 -88 -78 -166 -78h-55v124h20c40 0 69 16 88 49c23 41 34 113 34 216v323h443v-712z" />
    <glyph glyph-name="uni041C" unicode="&#x41c;" horiz-adv-x="811" 
d="M728 0h-139v415l-136 -270h-94l-137 270v-415h-139v712h137l186 -385l185 385h137v-712z" />
    <glyph glyph-name="uni041D" unicode="&#x41d;" horiz-adv-x="685" 
d="M602 0h-139v298h-241v-298h-139v712h139v-291h241v291h139v-712z" />
    <glyph glyph-name="uni041E" unicode="&#x41e;" horiz-adv-x="644" 
d="M585 356c0 -81 -3 -137 -10 -168c-9 -46 -30 -86 -63 -119c-50 -50 -113 -75 -190 -75s-141 25 -191 75c-33 33 -54 73 -63 119c-6 31 -9 87 -9 168s3 137 9 168c9 46 30 86 63 119c50 50 114 75 191 75s140 -25 190 -75c33 -33 54 -73 63 -119c7 -31 10 -87 10 -168z
M446 356c0 106 -12 173 -35 200c-22 25 -52 38 -89 38s-67 -13 -90 -38s-34 -92 -34 -200c0 -107 11 -174 34 -199c24 -26 54 -39 90 -39c37 0 66 13 89 39c23 27 35 94 35 199z" />
    <glyph glyph-name="uni041F" unicode="&#x41f;" horiz-adv-x="685" 
d="M602 0h-139v588h-241v-588h-139v712h519v-712z" />
    <glyph glyph-name="uni0420" unicode="&#x420;" horiz-adv-x="628" 
d="M594 490c0 -63 -21 -115 -62 -156c-43 -44 -100 -66 -173 -66h-137v-268h-139v712h276c73 0 130 -22 173 -66c41 -41 62 -93 62 -156zM455 490c0 29 -9 53 -28 71s-44 27 -75 27h-130v-195h130c31 0 56 9 75 27c19 17 28 40 28 70z" />
    <glyph glyph-name="uni0421" unicode="&#x421;" horiz-adv-x="620" 
d="M442 219h141c-13 -73 -44 -129 -91 -168c-45 -38 -101 -57 -170 -57c-76 0 -140 25 -191 75c-33 33 -54 73 -63 119c-6 31 -9 87 -9 168s3 137 9 168c9 46 30 86 63 119c51 50 115 75 191 75c68 0 125 -19 171 -57c47 -39 77 -95 90 -168h-142c-16 67 -56 101 -119 101
c-39 0 -68 -12 -89 -37c-23 -27 -35 -94 -35 -201s12 -174 35 -201c21 -25 50 -37 89 -37c64 0 104 34 120 101z" />
    <glyph glyph-name="uni0422" unicode="&#x422;" horiz-adv-x="571" 
d="M541 588h-186v-588h-139v588h-186v124h511v-124z" />
    <glyph glyph-name="uni0423" unicode="&#x423;" horiz-adv-x="581" 
d="M577 712l-252 -592c-34 -80 -87 -120 -159 -120h-85v124h56c37 0 61 15 74 45l21 49l-228 494h145l149 -343l135 343h144z" />
    <glyph glyph-name="uni0424" unicode="&#x424;" horiz-adv-x="814" 
d="M778 378c0 -191 -100 -289 -301 -296v-87h-139v87c-200 7 -300 106 -300 296c0 189 100 287 300 296v70h139v-70c201 -9 301 -107 301 -296zM340 200v356c-59 -3 -101 -19 -126 -48c-25 -27 -37 -70 -37 -130s12 -104 37 -131c25 -28 67 -44 126 -47zM639 378
c0 60 -12 103 -37 130c-26 29 -68 45 -127 48v-356c59 3 102 19 127 47c25 27 37 71 37 131z" />
    <glyph glyph-name="uni0425" unicode="&#x425;" horiz-adv-x="603" 
d="M598 0h-159l-138 248l-137 -248h-159l221 365l-207 347h158l124 -230l125 230h157l-207 -347z" />
    <glyph glyph-name="uni0426" unicode="&#x426;" horiz-adv-x="712" 
d="M685 -158h-134v158h-468v712h139v-588h241v588h139v-588h83v-282z" />
    <glyph glyph-name="uni0427" unicode="&#x427;" horiz-adv-x="648" 
d="M565 0h-138v267c-79 -13 -138 -19 -181 -19c-50 0 -92 14 -125 42c-38 32 -57 76 -57 131v291h139v-255c0 -57 30 -85 89 -85c42 0 87 5 135 15v325h138v-712z" />
    <glyph glyph-name="uni0428" unicode="&#x428;" horiz-adv-x="988" 
d="M905 0h-822v712h139v-588h203v588h139v-588h202v588h139v-712z" />
    <glyph glyph-name="uni0429" unicode="&#x429;" horiz-adv-x="1014" 
d="M987 -158h-134v158h-770v712h139v-588h203v588h139v-588h202v588h139v-588h82v-282z" />
    <glyph glyph-name="uni042A" unicode="&#x42a;" horiz-adv-x="727" 
d="M693 222c0 -66 -21 -119 -64 -160s-99 -62 -167 -62h-280v588h-152v124h291v-268h141c68 0 124 -21 167 -62s64 -94 64 -160zM554 222c0 29 -9 53 -28 71s-44 27 -75 27h-130v-196h130c31 0 56 9 75 27s28 42 28 71z" />
    <glyph glyph-name="uni042B" unicode="&#x42b;" horiz-adv-x="893" 
d="M810 0h-139v712h139v-712zM594 222c0 -66 -21 -119 -64 -160s-99 -62 -167 -62h-280v712h139v-268h141c69 0 125 -21 168 -62c42 -41 63 -94 63 -160zM455 222c0 29 -9 53 -28 71s-44 27 -75 27h-130v-196h130c31 0 56 9 75 27s28 42 28 71z" />
    <glyph glyph-name="uni042C" unicode="&#x42c;" horiz-adv-x="628" 
d="M594 222c0 -66 -21 -119 -64 -160s-99 -62 -167 -62h-280v712h139v-268h141c69 0 125 -21 168 -62c42 -41 63 -94 63 -160zM455 222c0 29 -9 53 -28 71s-44 27 -75 27h-130v-196h130c31 0 56 9 75 27s28 42 28 71z" />
    <glyph glyph-name="uni042D" unicode="&#x42d;" horiz-adv-x="619" 
d="M37 216h138c17 -67 58 -101 122 -101c38 0 68 13 91 39c20 22 32 70 35 143h-221v121h221c-3 71 -15 118 -35 140c-23 26 -53 39 -91 39c-65 0 -105 -34 -121 -101h-139c12 72 42 127 90 166c47 37 104 56 171 56c76 0 139 -25 190 -75c33 -33 54 -73 63 -119
c6 -31 9 -87 9 -168s-3 -137 -9 -168c-9 -46 -30 -86 -63 -119c-51 -50 -114 -75 -190 -75c-67 0 -124 19 -171 56c-48 39 -78 94 -90 166z" />
    <glyph glyph-name="uni042E" unicode="&#x42e;" horiz-adv-x="914" 
d="M855 356c0 -81 -3 -137 -10 -168c-9 -46 -30 -86 -63 -119c-50 -50 -113 -75 -190 -75s-141 25 -191 75c-47 46 -71 122 -72 229h-107v-298h-139v712h139v-290h107c2 101 26 175 72 221c50 50 114 75 191 75s140 -25 190 -75c33 -33 54 -73 63 -119c7 -31 10 -87 10 -168
zM716 356c0 106 -12 173 -35 200c-22 25 -52 38 -89 38s-67 -13 -90 -38s-34 -92 -34 -200c0 -107 11 -174 34 -199c24 -26 54 -39 90 -39c37 0 66 13 89 39c23 27 35 94 35 199z" />
    <glyph glyph-name="uni042F" unicode="&#x42f;" horiz-adv-x="650" 
d="M314 268l-117 -268h-165l147 296c-81 37 -122 102 -122 194c0 67 22 121 66 162c43 40 99 60 168 60h276v-712h-139v268h-114zM428 391v199h-130c-31 0 -56 -9 -75 -27s-28 -42 -28 -71s9 -53 28 -72s44 -29 75 -29h130z" />
    <glyph glyph-name="uni0430" unicode="&#x430;" horiz-adv-x="534" 
d="M467 0h-127v45c-33 -33 -76 -50 -128 -50c-58 0 -102 15 -133 46c-29 29 -43 68 -43 117c0 44 15 80 44 107c33 29 78 44 136 44h121v26c0 55 -32 82 -97 82c-41 0 -74 -15 -100 -45l-82 81c45 49 108 74 187 74c148 0 222 -61 222 -184v-343zM337 192v28h-99
c-51 0 -77 -20 -77 -60c0 -39 26 -59 79 -59c35 0 60 8 77 25c13 11 20 33 20 66z" />
    <glyph glyph-name="uni0431" unicode="&#x431;" horiz-adv-x="548" 
d="M280 111c27 0 48 9 63 26c18 22 27 63 27 123c0 57 -9 97 -26 118c-14 19 -35 28 -64 28c-28 0 -50 -9 -65 -27c-17 -23 -26 -63 -26 -118c0 -62 10 -104 29 -125c14 -17 35 -25 62 -25zM282 -6c-85 0 -146 27 -181 81c-28 44 -42 120 -42 229c0 118 6 201 17 250
c11 43 33 79 66 106c50 38 154 57 313 58v-112c-121 -9 -192 -19 -213 -30c-44 -23 -66 -63 -66 -120c23 40 67 60 130 60c55 0 97 -14 128 -42c44 -41 66 -111 66 -211c0 -95 -21 -164 -64 -209c-38 -40 -89 -60 -154 -60z" />
    <glyph glyph-name="uni0432" unicode="&#x432;" horiz-adv-x="550" 
d="M498 150c0 -46 -14 -82 -43 -109s-68 -41 -117 -41h-266v521h257c49 0 88 -13 117 -39s44 -61 44 -104c0 -48 -22 -85 -66 -110c49 -25 74 -65 74 -118zM298 425h-97v-112h97c42 0 63 19 63 57c0 37 -21 55 -63 55zM369 157c0 41 -22 61 -65 61h-103v-122h103
c43 0 65 20 65 61z" />
    <glyph glyph-name="uni0433" unicode="&#x433;" horiz-adv-x="434" 
d="M421 406h-215v-406h-130v521h345v-115z" />
    <glyph glyph-name="uni0434" unicode="&#x434;" horiz-adv-x="580" 
d="M557 -128h-123v128h-298v-128h-123v243h53c34 61 51 144 51 247v159h374v-406h66v-243zM361 115v291h-119v-68c0 -95 -13 -169 -40 -223h159z" />
    <glyph glyph-name="uni0435" unicode="&#x435;" horiz-adv-x="548" 
d="M501 220h-326c0 -34 10 -62 29 -83c21 -22 50 -33 85 -33c45 0 85 16 118 49l79 -77c-53 -55 -119 -82 -198 -82c-161 0 -241 89 -241 267c0 83 21 149 63 197c41 46 96 69 164 69c71 0 127 -23 168 -70c39 -47 59 -107 59 -182v-55zM175 309h198c-1 22 -5 41 -12 56
c-16 36 -45 54 -87 54s-71 -18 -87 -54c-7 -15 -11 -34 -12 -56z" />
    <glyph glyph-name="uni0436" unicode="&#x436;" horiz-adv-x="763" 
d="M769 0h-152l-169 273l161 248h149l-171 -243zM447 0h-131v521h131v-521zM147 0h-153l183 278l-171 243h149l160 -248z" />
    <glyph glyph-name="uni0437" unicode="&#x437;" horiz-adv-x="496" 
d="M444 154c0 -47 -20 -86 -60 -116c-39 -29 -85 -44 -139 -44c-97 0 -173 25 -228 74l75 81c34 -30 78 -45 131 -45c26 0 47 5 64 15c19 11 28 25 28 44c0 37 -25 56 -75 56h-79v93h77c47 0 71 19 71 57c0 35 -30 53 -89 53c-41 0 -79 -12 -113 -36l-72 80
c51 41 121 61 210 61c54 0 98 -12 133 -36c39 -26 58 -61 58 -105c0 -51 -24 -89 -71 -113c53 -21 79 -60 79 -119z" />
    <glyph glyph-name="uni0438" unicode="&#x438;" horiz-adv-x="589" 
d="M517 0h-131v318l-183 -318h-131v521h131v-310l183 310h131v-521z" />
    <glyph glyph-name="uni0439" unicode="&#x439;" horiz-adv-x="589" 
d="M358 722h98c-1 -49 -18 -87 -52 -112c-29 -21 -65 -31 -110 -31s-82 10 -109 31c-33 25 -51 63 -53 112h98c3 -41 25 -62 64 -62s61 21 64 62zM517 0h-131v318l-183 -318h-131v521h131v-310l183 310h131v-521z" />
    <glyph glyph-name="uni043A" unicode="&#x43a;" horiz-adv-x="534" 
d="M204 0h-131v521h131v-521zM540 0h-156l-179 273l171 248h152l-184 -243z" />
    <glyph glyph-name="uni043B" unicode="&#x43b;" horiz-adv-x="571" 
d="M498 0h-130v406h-125v-125c0 -106 -15 -181 -44 -224c-25 -38 -66 -57 -123 -57h-62v115h16c28 0 48 9 60 27c18 29 27 85 27 168v211h381v-521z" />
    <glyph glyph-name="uni043C" unicode="&#x43c;" horiz-adv-x="677" 
d="M604 0h-130v301l-98 -193h-74l-99 193v-301h-131v521h129l138 -274l137 274h128v-521z" />
    <glyph glyph-name="uni043D" unicode="&#x43d;" horiz-adv-x="573" 
d="M501 0h-131v209h-167v-209h-131v521h131v-197h167v197h131v-521z" />
    <glyph glyph-name="uni043E" unicode="&#x43e;" 
d="M492 261c0 -95 -20 -162 -59 -203c-41 -43 -95 -64 -162 -64s-120 21 -161 64c-39 43 -59 110 -59 203c0 92 20 159 59 202c41 43 94 64 161 64c68 0 122 -21 162 -64c39 -43 59 -110 59 -202zM362 261c0 65 -10 107 -30 126c-15 15 -36 23 -61 23s-45 -8 -60 -23
c-20 -19 -30 -61 -30 -126s10 -108 30 -127c15 -15 35 -23 60 -23s46 8 61 23c20 19 30 62 30 127z" />
    <glyph glyph-name="uni043F" unicode="&#x43f;" horiz-adv-x="568" 
d="M501 0h-131v406h-167v-406h-131v521h429v-521z" />
    <glyph glyph-name="uni0440" unicode="&#x440;" horiz-adv-x="560" 
d="M509 261c0 -109 -18 -183 -54 -220c-30 -31 -72 -47 -126 -47s-96 17 -126 52v-237h-130v712h126v-49c33 37 76 55 130 55s96 -16 126 -47c36 -37 54 -110 54 -219zM379 261c0 50 -5 85 -15 106c-13 29 -37 43 -73 43s-60 -14 -73 -43c-10 -21 -15 -56 -15 -106
c0 -49 5 -85 15 -106c13 -29 38 -44 73 -44s60 15 73 44c10 21 15 57 15 106z" />
    <glyph glyph-name="uni0441" unicode="&#x441;" horiz-adv-x="480" 
d="M364 152l88 -87c-45 -47 -103 -71 -172 -71c-63 0 -115 18 -155 54c-52 47 -78 118 -78 213s26 166 78 212c40 36 92 54 155 54c70 0 127 -23 172 -70l-88 -88c-25 27 -53 41 -84 41s-55 -11 -74 -34c-19 -25 -29 -63 -29 -115c0 -53 10 -91 29 -116
c19 -23 43 -34 74 -34s59 14 84 41z" />
    <glyph glyph-name="uni0442" unicode="&#x442;" horiz-adv-x="456" 
d="M445 406h-150v-406h-131v406h-153v115h434v-115z" />
    <glyph glyph-name="uni0443" unicode="&#x443;" horiz-adv-x="494" 
d="M490 521l-223 -605c-27 -71 -78 -107 -151 -107h-51v117h30c32 0 54 16 65 47l22 64l-178 484h137l108 -322l104 322h137z" />
    <glyph glyph-name="uni0444" unicode="&#x444;" horiz-adv-x="726" 
d="M681 264c0 -169 -84 -259 -253 -269v-186h-130v186c-169 10 -253 100 -253 269c0 165 84 252 253 262v186h130v-186c169 -10 253 -97 253 -262zM550 263c0 97 -41 146 -124 147v-299c83 2 124 53 124 152zM300 111v299c-83 -1 -124 -50 -124 -147c0 -99 41 -150 124 -152
z" />
    <glyph glyph-name="uni0445" unicode="&#x445;" horiz-adv-x="527" 
d="M515 0h-156l-96 156l-95 -156h-156l180 266l-173 255h156l88 -149l89 149h156l-173 -255z" />
    <glyph glyph-name="uni0446" unicode="&#x446;" horiz-adv-x="594" 
d="M571 -128h-124v128h-375v521h131v-406h167v406h131v-406h70v-243z" />
    <glyph glyph-name="uni0447" unicode="&#x447;" horiz-adv-x="548" 
d="M476 0h-130v183c-53 -9 -99 -14 -142 -14s-77 12 -104 37c-28 26 -42 61 -42 105v210h130v-174c0 -42 21 -63 64 -63c17 0 48 3 94 9v228h130v-521z" />
    <glyph glyph-name="uni0448" unicode="&#x448;" horiz-adv-x="822" 
d="M749 0h-677v521h131v-406h143v406h130v-406h143v406h130v-521z" />
    <glyph glyph-name="uni0449" unicode="&#x449;" horiz-adv-x="843" 
d="M819 -128h-123v128h-624v521h131v-406h143v406h130v-406h143v406h130v-406h70v-243z" />
    <glyph glyph-name="uni044A" unicode="&#x44a;" horiz-adv-x="590" 
d="M558 167c0 -49 -16 -89 -48 -120c-33 -31 -74 -47 -125 -47h-251v406h-122v115h253v-188h120c52 0 94 -15 125 -46c32 -31 48 -71 48 -120zM361 231h-100v-129h100c46 0 69 22 69 65s-23 64 -69 64z" />
    <glyph glyph-name="uni044B" unicode="&#x44b;" horiz-adv-x="763" 
d="M687 0h-131v521h131v-521zM495 167c0 -49 -16 -89 -48 -120c-33 -31 -75 -47 -126 -47h-249v521h131v-188h118c51 0 93 -15 126 -46c32 -31 48 -71 48 -120zM297 231h-98v-129h98c46 0 69 22 69 65s-23 64 -69 64z" />
    <glyph glyph-name="uni044C" unicode="&#x44c;" horiz-adv-x="529" 
d="M496 167c0 -49 -16 -89 -48 -120c-33 -31 -75 -47 -125 -47h-251v521h131v-188h120c52 0 94 -15 125 -46c32 -31 48 -71 48 -120zM299 231h-100v-129h100c45 0 68 22 68 65s-23 64 -68 64z" />
    <glyph glyph-name="uni044D" unicode="&#x44d;" horiz-adv-x="480" 
d="M199 527c75 0 132 -23 173 -69c41 -45 61 -110 61 -194c0 -87 -20 -153 -61 -200s-98 -70 -173 -70c-63 0 -120 23 -171 70l87 86c28 -28 56 -42 85 -42c61 0 95 37 103 111h-153v89h153c-10 70 -45 105 -104 105c-28 0 -56 -14 -84 -42l-87 86c51 47 108 70 171 70z" />
    <glyph glyph-name="uni044E" unicode="&#x44e;" horiz-adv-x="774" 
d="M722 261c0 -95 -20 -162 -59 -203c-41 -43 -95 -64 -162 -64s-120 21 -161 64c-34 36 -53 87 -58 153h-79v-211h-131v521h131v-200h80c5 59 24 106 57 142c41 43 94 64 161 64c68 0 122 -21 162 -64c39 -43 59 -110 59 -202zM592 261c0 65 -10 107 -30 126
c-15 15 -36 23 -61 23s-45 -8 -60 -23c-20 -19 -30 -61 -30 -126s10 -108 30 -127c15 -15 35 -23 60 -23s46 8 61 23c20 19 30 62 30 127z" />
    <glyph glyph-name="uni044F" unicode="&#x44f;" horiz-adv-x="535" 
d="M335 288v129h-102c-46 0 -69 -22 -69 -65s23 -64 69 -64h102zM177 0h-148l105 213c-65 25 -97 73 -97 145c0 47 16 86 48 117c33 31 74 46 125 46h253v-521h-130v185h-70z" />
    <glyph glyph-name="uni0450" unicode="&#x450;" horiz-adv-x="548" 
d="M332 604h-87l-114 170h137zM501 220h-326c0 -34 10 -62 29 -83c21 -22 50 -33 85 -33c45 0 85 16 118 49l79 -77c-53 -55 -119 -82 -198 -82c-161 0 -241 89 -241 267c0 83 21 149 63 197c41 46 96 69 164 69c71 0 127 -23 168 -70c39 -47 59 -107 59 -182v-55zM175 309
h198c-1 22 -5 41 -12 56c-16 36 -45 54 -87 54s-71 -18 -87 -54c-7 -15 -11 -34 -12 -56z" />
    <glyph glyph-name="uni0451" unicode="&#x451;" horiz-adv-x="548" 
d="M501 220h-326c0 -34 10 -62 29 -83c21 -22 50 -33 85 -33c45 0 85 16 118 49l79 -77c-53 -55 -119 -82 -198 -82c-161 0 -241 89 -241 267c0 83 21 149 63 197c41 46 96 69 164 69c71 0 127 -23 168 -70c39 -47 59 -107 59 -182v-55zM175 309h198c-1 22 -5 41 -12 56
c-16 36 -45 54 -87 54s-71 -18 -87 -54c-7 -15 -11 -34 -12 -56zM443 606h-111v125h111v-125zM222 606h-111v125h111v-125z" />
    <glyph glyph-name="uni0452" unicode="&#x452;" horiz-adv-x="573" 
d="M506 282v-308c0 -113 -57 -169 -171 -169h-60v110h36c21 0 38 7 50 22c10 13 15 28 15 46v281c0 33 -9 57 -28 74c-15 14 -34 21 -58 21s-44 -7 -59 -21c-19 -17 -28 -41 -28 -74v-264h-130v525h-47v100h47v87h130v-87h229v-100h-229v-103c33 36 76 54 127 54
s92 -15 123 -46c35 -35 53 -85 53 -148z" />
    <glyph glyph-name="uni0453" unicode="&#x453;" horiz-adv-x="434" 
d="M421 406h-215v-406h-130v521h345v-115zM368 774l-114 -170h-87l64 170h137z" />
    <glyph glyph-name="uni0454" unicode="&#x454;" horiz-adv-x="480" 
d="M366 150l86 -86c-49 -47 -106 -70 -171 -70c-75 0 -132 23 -173 70s-61 113 -61 200c0 82 21 147 62 194c41 46 99 69 172 69c63 0 120 -23 171 -70l-86 -86c-29 28 -57 42 -85 42c-59 0 -94 -35 -103 -105h155v-89h-155c8 -74 42 -111 103 -111c29 0 57 14 85 42z" />
    <glyph glyph-name="uni0455" unicode="&#x455;" horiz-adv-x="501" 
d="M465 164c0 -55 -21 -98 -64 -128c-40 -28 -92 -42 -157 -42c-98 0 -172 25 -222 75l85 85c33 -33 79 -49 139 -49c61 0 92 18 92 54c0 29 -18 45 -55 48l-82 8c-101 10 -152 59 -152 146c0 52 20 93 61 124c37 28 84 42 140 42c90 0 156 -20 199 -61l-80 -81
c-27 23 -67 35 -121 35c-49 0 -74 -17 -74 -50c0 -27 18 -42 54 -45l82 -8c103 -10 155 -61 155 -153z" />
    <glyph glyph-name="uni0456" unicode="&#x456;" horiz-adv-x="275" 
d="M203 0h-130v506h130v-506zM204 610h-133v106h133v-106z" />
    <glyph glyph-name="uni0457" unicode="&#x457;" horiz-adv-x="275" 
d="M203 0h-130v506h130v-506zM304 606h-111v125h111v-125zM83 606h-111v125h111v-125z" />
    <glyph glyph-name="uni0458" unicode="&#x458;" horiz-adv-x="275" 
d="M203 506v-552c0 -41 -12 -75 -36 -102c-27 -31 -66 -47 -116 -47h-74v110h50c31 0 46 16 46 47v544h130zM204 610h-133v106h133v-106z" />
    <glyph glyph-name="uni0459" unicode="&#x459;" horiz-adv-x="824" 
d="M664 167c0 43 -23 64 -69 64h-100v-129h100c46 0 69 22 69 65zM117 521h381v-188h121c51 0 93 -15 126 -46c32 -31 48 -71 48 -120s-16 -89 -48 -120c-33 -31 -75 -47 -126 -47h-251v406h-125v-125c0 -106 -15 -181 -44 -224c-25 -38 -66 -57 -123 -57h-62v115h16
c28 0 48 9 60 27c18 29 27 85 27 168v211z" />
    <glyph glyph-name="uni045A" unicode="&#x45a;" horiz-adv-x="827" 
d="M795 167c0 -49 -16 -89 -48 -120c-33 -31 -75 -47 -125 -47h-252v218h-167v-218h-131v521h131v-188h167v188h131v-188h121c52 0 94 -15 125 -46c32 -31 48 -71 48 -120zM666 167c0 43 -23 64 -69 64h-100v-129h100c46 0 69 22 69 65z" />
    <glyph glyph-name="uni045B" unicode="&#x45b;" horiz-adv-x="573" 
d="M506 0h-130v264c0 33 -9 57 -28 74c-15 14 -34 21 -58 21s-44 -7 -59 -21c-19 -17 -28 -41 -28 -74v-264h-130v525h-47v100h47v87h130v-87h229v-100h-229v-103c33 36 76 54 127 54s92 -15 123 -46c35 -35 53 -85 53 -148v-282z" />
    <glyph glyph-name="uni045C" unicode="&#x45c;" horiz-adv-x="534" 
d="M204 0h-131v521h131v-521zM540 0h-156l-179 273l171 248h152l-184 -243zM426 774l-114 -170h-87l64 170h137z" />
    <glyph glyph-name="uni045D" unicode="&#x45d;" horiz-adv-x="589" 
d="M517 0h-131v318l-183 -318h-131v521h131v-310l183 310h131v-521zM343 604h-87l-114 170h137z" />
    <glyph glyph-name="uni045E" unicode="&#x45e;" horiz-adv-x="494" 
d="M313 722h98c-1 -49 -18 -87 -52 -112c-29 -21 -65 -31 -110 -31s-82 10 -109 31c-33 25 -51 63 -53 112h98c3 -41 25 -62 64 -62s61 21 64 62zM490 521l-223 -605c-27 -71 -78 -107 -151 -107h-51v117h30c32 0 54 16 65 47l22 64l-178 484h137l108 -322l104 322h137z" />
    <glyph glyph-name="uni045F" unicode="&#x45f;" horiz-adv-x="573" 
d="M501 0h-154v-128h-123v128h-152v521h131v-406h167v406h131v-521z" />
    <glyph glyph-name="uni0462" unicode="&#x462;" horiz-adv-x="651" 
d="M617 222c0 -66 -21 -119 -64 -160s-99 -62 -167 -62h-280v528h-69v106h69v78h139v-78h116v-106h-116v-84h141c69 0 125 -21 168 -62c42 -41 63 -94 63 -160zM478 222c0 29 -9 53 -28 71s-44 27 -75 27h-130v-196h130c31 0 56 9 75 27s28 42 28 71z" />
    <glyph glyph-name="uni0463" unicode="&#x463;" horiz-adv-x="553" 
d="M520 167c0 -49 -16 -89 -48 -120c-33 -31 -75 -47 -125 -47h-251v400h-59v82h59v39h131v-39h89v-82h-89v-67h120c52 0 94 -15 125 -46c32 -31 48 -71 48 -120zM323 231h-100v-129h100c45 0 68 22 68 65s-23 64 -68 64z" />
    <glyph glyph-name="uni0472" unicode="&#x472;" horiz-adv-x="644" 
d="M585 356c0 -81 -3 -137 -10 -168c-9 -46 -30 -86 -63 -119c-50 -50 -113 -75 -190 -75c-76 0 -140 25 -191 75c-33 33 -54 73 -63 119c-6 31 -9 87 -9 168s3 137 9 168c9 46 30 86 63 119c51 50 115 75 191 75c77 0 140 -25 190 -75c33 -33 54 -73 63 -119
c7 -31 10 -87 10 -168zM411 157c22 24 33 72 34 143h-247c3 -73 15 -120 34 -143c24 -26 54 -39 90 -39c37 0 66 13 89 39zM232 556c-21 -23 -32 -68 -33 -137h246c-3 69 -14 114 -34 137c-22 25 -52 38 -89 38s-67 -13 -90 -38z" />
    <glyph glyph-name="uni0473" unicode="&#x473;" 
d="M492 261c0 -94 -20 -162 -59 -203c-40 -43 -94 -64 -162 -64c-67 0 -121 21 -161 64c-39 41 -59 109 -59 203c0 93 20 161 59 202c40 43 94 64 161 64c68 0 122 -21 162 -64c39 -41 59 -109 59 -202zM332 134c17 17 26 45 29 86h-179c2 -40 12 -69 29 -86
c15 -15 35 -23 60 -23s46 8 61 23zM211 387c-17 -17 -26 -43 -29 -78h178c-2 35 -11 61 -28 78c-15 15 -36 23 -61 23s-45 -8 -60 -23z" />
    <glyph glyph-name="uni0474" unicode="&#x474;" horiz-adv-x="581" 
d="M290 248l106 344c24 80 77 120 159 120h85v-124h-44c-39 0 -64 -15 -74 -45l-180 -543h-104l-235 712h144z" />
    <glyph glyph-name="uni0475" unicode="&#x475;" horiz-adv-x="493" 
d="M429 357l-131 -357h-102l-192 521h137l106 -322l70 215c23 71 74 107 151 107h51v-117h-25c-31 0 -53 -16 -65 -47z" />
    <glyph glyph-name="uni0490" unicode="&#x490;" horiz-adv-x="561" 
d="M534 588h-309v-588h-139v712h314v158h134v-282z" />
    <glyph glyph-name="uni0491" unicode="&#x491;" horiz-adv-x="434" 
d="M421 406h-215v-406h-130v521h222v128h123v-243z" />
    <glyph glyph-name="uni0492" unicode="&#x492;" horiz-adv-x="581" 
d="M554 588h-309v-176h116v-106h-116v-306h-139v306h-69v106h69v300h448v-124z" />
    <glyph glyph-name="uni0493" unicode="&#x493;" horiz-adv-x="455" 
d="M316 245h-89v-245h-130v245h-60v82h60v194h345v-115h-215v-79h89v-82z" />
    <glyph glyph-name="uni0496" unicode="&#x496;" horiz-adv-x="941" 
d="M923 712l-233 -334l172 -254h85v-282h-134v158h-34l-238 373l218 339h164zM162 0h-168l257 378l-233 334h164l218 -339zM540 0h-139v712h139v-712z" />
    <glyph glyph-name="uni0497" unicode="&#x497;" horiz-adv-x="763" 
d="M758 521l-171 -243l106 -163h76v-243h-123v128h-29l-169 273l161 248h149zM147 0h-153l183 278l-171 243h149l160 -248zM447 0h-131v521h131v-521z" />
    <glyph glyph-name="uni049A" unicode="&#x49a;" horiz-adv-x="640" 
d="M621 712l-239 -334l176 -254h87v-282h-134v158h-36l-250 373l230 339h166zM224 0h-139v712h139v-712z" />
    <glyph glyph-name="uni049B" unicode="&#x49b;" horiz-adv-x="533" 
d="M540 -128h-123v128h-33l-179 273l171 248h152l-184 -243l115 -163h81v-243zM204 0h-131v521h131v-521z" />
    <glyph glyph-name="uni049C" unicode="&#x49c;" horiz-adv-x="721" 
d="M725 0h-167l-171 301h-27v-138h-92v138h-44v-301h-139v712h139v-287h44v138h92v-138h27l151 287h163l-199 -346z" />
    <glyph glyph-name="uni049D" unicode="&#x49d;" horiz-adv-x="609" 
d="M615 0h-155l-101 211h-29v-117h-91v117h-36v-211h-130v521h130v-202h36v117h91v-117h24l98 202h152l-134 -244z" />
    <glyph glyph-name="uni04A2" unicode="&#x4a2;" horiz-adv-x="685" 
d="M602 712v-588h64v-282h-134v158h-69v298h-241v-298h-139v712h139v-291h241v291h139z" />
    <glyph glyph-name="uni04A3" unicode="&#x4a3;" horiz-adv-x="573" 
d="M501 521v-406h57v-243h-123v128h-65v209h-167v-209h-131v521h131v-197h167v197h131z" />
    <glyph glyph-name="uni04AE" unicode="&#x4ae;" horiz-adv-x="572" 
d="M569 712l-214 -420v-292h-138v292l-214 420h151l133 -287l131 287h151z" />
    <glyph glyph-name="uni04AF" unicode="&#x4af;" horiz-adv-x="494" 
d="M490 521l-179 -506v-206h-129v206l-178 506h138l106 -340l104 340h138z" />
    <glyph glyph-name="uni04B0" unicode="&#x4b0;" horiz-adv-x="572" 
d="M569 712l-214 -420h94v-106h-94v-186h-138v186h-92v106h92l-214 420h151l133 -287l131 287h151z" />
    <glyph glyph-name="uni04B1" unicode="&#x4b1;" horiz-adv-x="494" 
d="M490 521l-179 -506h77v-82h-77v-124h-129v124h-73v82h73l-178 506h138l106 -340l104 340h138z" />
    <glyph glyph-name="uni04B2" unicode="&#x4b2;" horiz-adv-x="603" 
d="M583 712l-207 -347l146 -241h76v-282h-134v158h-25l-138 248l-137 -248h-159l221 365l-207 347h158l124 -230l125 230h157z" />
    <glyph glyph-name="uni04B3" unicode="&#x4b3;" horiz-adv-x="527" 
d="M508 521l-173 -255l102 -151h78v-243h-123v128h-33l-96 156l-95 -156h-156l180 266l-173 255h156l88 -149l89 149h156z" />
    <glyph glyph-name="uni04B6" unicode="&#x4b6;" horiz-adv-x="649" 
d="M565 712v-588h65v-282h-134v158h-69v267c-79 -13 -138 -19 -181 -19c-50 0 -92 14 -125 42c-38 32 -57 76 -57 131v291h139v-255c0 -57 30 -85 89 -85c42 0 87 5 135 15v325h138z" />
    <glyph glyph-name="uni04B7" unicode="&#x4b7;" horiz-adv-x="548" 
d="M476 521v-406h58v-243h-123v128h-65v183c-53 -9 -99 -14 -142 -14s-77 12 -104 37c-28 26 -42 61 -42 105v210h130v-174c0 -42 21 -63 64 -63c17 0 48 3 94 9v228h130z" />
    <glyph glyph-name="uni04B8" unicode="&#x4b8;" horiz-adv-x="664" 
d="M371 111h-99v137h-19c-51 0 -95 14 -130 42c-39 32 -59 76 -59 131v291h139v-255c0 -45 23 -72 69 -81v134h99v-134c24 2 47 6 70 11v325h139v-712h-139v267c-21 -5 -45 -8 -70 -11v-145z" />
    <glyph glyph-name="uni04B9" unicode="&#x4b9;" horiz-adv-x="564" 
d="M315 55h-80v114h-14c-48 0 -87 12 -116 37c-31 26 -47 61 -47 105v210h130v-174c0 -29 16 -48 47 -57v108h80v-111c16 1 32 4 47 7v227h130v-521h-130v183c-19 -4 -34 -7 -47 -8v-120z" />
    <glyph glyph-name="uni04BA" unicode="&#x4ba;" horiz-adv-x="648" 
d="M83 712h138v-267c79 13 138 19 181 19c51 0 92 -14 125 -42c38 -32 57 -76 57 -131v-291h-139v255c0 57 -30 85 -89 85c-41 0 -86 -5 -135 -15v-325h-138v712z" />
    <glyph glyph-name="uni04BB" unicode="&#x4bb;" horiz-adv-x="548" 
d="M72 521h130v-183c53 9 99 14 142 14s77 -12 104 -37c28 -26 42 -61 42 -105v-210h-130v174c0 42 -21 63 -64 63c-17 0 -48 -3 -94 -9v-228h-130v521z" />
    <glyph glyph-name="uni04C0" unicode="&#x4c0;" horiz-adv-x="305" 
d="M222 0h-139v712h139v-712z" />
    <glyph glyph-name="uni04CF" unicode="&#x4cf;" horiz-adv-x="266" 
d="M198 0h-130v712h130v-712z" />
    <glyph glyph-name="uni04D8" unicode="&#x4d8;" horiz-adv-x="649" 
d="M590 356c0 -81 -3 -137 -9 -168c-9 -47 -30 -87 -63 -119c-51 -50 -114 -75 -190 -75c-83 0 -150 27 -201 81c-45 49 -68 121 -68 217v104h391c-1 82 -13 135 -34 160c-22 25 -51 38 -88 38c-69 0 -112 -35 -128 -104h-140c10 65 36 118 79 159c48 46 111 69 189 69
c76 0 139 -25 190 -75c31 -31 52 -71 62 -118c7 -33 10 -89 10 -169zM449 279h-252v-26c0 -39 11 -70 32 -95c23 -27 56 -40 99 -40c38 0 67 12 88 37c19 21 30 62 33 124z" />
    <glyph glyph-name="uni04D9" unicode="&#x4d9;" horiz-adv-x="548" 
d="M47 301h326c0 35 -10 63 -29 84c-21 21 -50 32 -85 32c-45 0 -85 -16 -118 -49l-79 77c53 55 119 82 198 82c161 0 241 -89 241 -267c0 -83 -21 -149 -63 -197c-41 -46 -95 -69 -164 -69c-71 0 -127 24 -168 71c-39 45 -59 106 -59 181v55zM373 212h-198
c1 -22 5 -41 12 -56c16 -36 45 -54 87 -54s71 18 87 54c7 15 11 34 12 56z" />
    <glyph glyph-name="uni04E2" unicode="&#x4e2;" horiz-adv-x="706" 
d="M623 0h-139v457l-277 -457h-124v712h139v-456l277 456h124v-712zM194 793v88h317v-88h-317z" />
    <glyph glyph-name="uni04E3" unicode="&#x4e3;" horiz-adv-x="589" 
d="M517 0h-131v318l-183 -318h-131v521h131v-310l183 310h131v-521zM453 623h-317v88h317v-88z" />
    <glyph glyph-name="uni04E8" unicode="&#x4e8;" horiz-adv-x="644" 
d="M585 356c0 -81 -3 -137 -10 -168c-9 -46 -30 -86 -63 -119c-50 -50 -113 -75 -190 -75c-76 0 -140 25 -191 75c-33 33 -54 73 -63 119c-6 31 -9 87 -9 168s3 137 9 168c9 46 30 86 63 119c51 50 115 75 191 75c77 0 140 -25 190 -75c33 -33 54 -73 63 -119
c7 -31 10 -87 10 -168zM411 157c22 24 33 72 34 143h-247c3 -73 15 -120 34 -143c24 -26 54 -39 90 -39c37 0 66 13 89 39zM232 556c-21 -23 -32 -68 -33 -137h246c-3 69 -14 114 -34 137c-22 25 -52 38 -89 38s-67 -13 -90 -38z" />
    <glyph glyph-name="uni04E9" unicode="&#x4e9;" 
d="M492 261c0 -94 -20 -162 -59 -203c-40 -43 -94 -64 -162 -64c-67 0 -121 21 -161 64c-39 41 -59 109 -59 203c0 93 20 161 59 202c40 43 94 64 161 64c68 0 122 -21 162 -64c39 -41 59 -109 59 -202zM332 134c17 17 26 45 29 86h-179c2 -40 12 -69 29 -86
c15 -15 35 -23 60 -23s46 8 61 23zM211 387c-17 -17 -26 -43 -29 -78h178c-2 35 -11 61 -28 78c-15 15 -36 23 -61 23s-45 -8 -60 -23z" />
    <glyph glyph-name="uni04EE" unicode="&#x4ee;" horiz-adv-x="581" 
d="M577 712l-252 -592c-34 -80 -87 -120 -159 -120h-85v124h56c37 0 61 15 74 45l21 49l-228 494h145l149 -343l135 343h144zM141 793v88h317v-88h-317z" />
    <glyph glyph-name="uni04EF" unicode="&#x4ef;" horiz-adv-x="494" 
d="M490 521l-223 -605c-27 -71 -78 -107 -151 -107h-51v117h30c32 0 54 16 65 47l22 64l-178 484h137l108 -322l104 322h137zM406 623h-317v88h317v-88z" />
    <glyph glyph-name="Wgrave" unicode="&#x1e80;" horiz-adv-x="887" 
d="M881 712l-191 -712h-116l-131 432l-131 -432h-116l-190 712h145l110 -449l130 449h104l130 -449l111 449h145zM488 781h-87l-114 170h137z" />
    <glyph glyph-name="wgrave" unicode="&#x1e81;" horiz-adv-x="759" 
d="M755 521l-159 -521h-107l-109 327l-109 -327h-107l-160 521h138l84 -322l106 322h95l107 -322l84 322h137zM424 604h-87l-114 170h137z" />
    <glyph glyph-name="Wacute" unicode="&#x1e82;" horiz-adv-x="887" 
d="M881 712l-191 -712h-116l-131 432l-131 -432h-116l-190 712h145l110 -449l130 449h104l130 -449l111 449h145zM600 951l-114 -170h-87l64 170h137z" />
    <glyph glyph-name="wacute" unicode="&#x1e83;" horiz-adv-x="759" 
d="M755 521l-159 -521h-107l-109 327l-109 -327h-107l-160 521h138l84 -322l106 322h95l107 -322l84 322h137zM537 774l-114 -170h-87l64 170h137z" />
    <glyph glyph-name="Wdieresis" unicode="&#x1e84;" horiz-adv-x="887" 
d="M881 712l-191 -712h-116l-131 432l-131 -432h-116l-190 712h145l110 -449l130 449h104l130 -449l111 449h145zM609 783h-111v125h111v-125zM388 783h-111v125h111v-125z" />
    <glyph glyph-name="wdieresis" unicode="&#x1e85;" horiz-adv-x="759" 
d="M755 521l-159 -521h-107l-109 327l-109 -327h-107l-160 521h138l84 -322l106 322h95l107 -322l84 322h137zM545 606h-111v125h111v-125zM324 606h-111v125h111v-125z" />
    <glyph glyph-name="uni1E8A" unicode="&#x1e8a;" horiz-adv-x="603" 
d="M598 0h-159l-138 248l-137 -248h-159l221 365l-207 347h158l124 -230l125 230h157l-207 -347zM244 789v116h115v-116h-115z" />
    <glyph glyph-name="uni1E8B" unicode="&#x1e8b;" horiz-adv-x="527" 
d="M515 0h-156l-96 156l-95 -156h-156l180 266l-173 255h156l88 -149l89 149h156l-173 -255zM206 612v115h115v-115h-115z" />
    <glyph glyph-name="uni1EA0" unicode="&#x1ea0;" horiz-adv-x="638" 
d="M633 0h-145l-42 126h-253l-43 -126h-145l259 712h109zM409 243l-87 259l-90 -259h177zM394 -232h-149v148h149v-148z" />
    <glyph glyph-name="uni1EA1" unicode="&#x1ea1;" horiz-adv-x="534" 
d="M467 0h-127v45c-33 -33 -76 -50 -128 -50c-58 0 -102 15 -133 46c-29 29 -43 68 -43 117c0 44 15 80 44 107c33 29 78 44 136 44h121v26c0 55 -32 82 -97 82c-41 0 -74 -15 -100 -45l-82 81c45 49 108 74 187 74c148 0 222 -61 222 -184v-343zM337 192v28h-99
c-51 0 -77 -20 -77 -60c0 -39 26 -59 79 -59c35 0 60 8 77 25c13 11 20 33 20 66zM326 -232h-149v148h149v-148z" />
    <glyph glyph-name="uni1EA2" unicode="&#x1ea2;" horiz-adv-x="638" 
d="M633 0h-145l-42 126h-253l-43 -126h-145l259 712h109zM409 243l-87 259l-90 -259h177zM289 840l-60 8c5 39 17 66 36 81c19 14 40 20 65 17c25 -2 44 -12 59 -31c29 -37 25 -78 -11 -122l-27 -28h-89l48 51c19 24 29 38 30 43c1 7 -1 12 -4 17c-3 3 -8 6 -15 7
c-6 1 -11 0 -14 -3c-10 -9 -16 -23 -18 -40z" />
    <glyph glyph-name="uni1EA3" unicode="&#x1ea3;" horiz-adv-x="534" 
d="M467 0h-127v45c-33 -33 -76 -50 -128 -50c-58 0 -102 15 -133 46c-29 29 -43 68 -43 117c0 44 15 80 44 107c33 29 78 44 136 44h121v26c0 55 -32 82 -97 82c-41 0 -74 -15 -100 -45l-82 81c45 49 108 74 187 74c148 0 222 -61 222 -184v-343zM337 192v28h-99
c-51 0 -77 -20 -77 -60c0 -39 26 -59 79 -59c35 0 60 8 77 25c13 11 20 33 20 66zM222 649l-60 8c5 39 17 66 36 81c19 14 40 20 65 17c25 -2 44 -12 59 -31c29 -37 25 -78 -11 -122l-27 -28h-89l48 51c19 24 29 38 30 43c1 7 -1 12 -4 17c-3 3 -8 6 -15 7
c-6 1 -11 0 -14 -3c-10 -9 -16 -23 -18 -40z" />
    <glyph glyph-name="uni1EA4" unicode="&#x1ea4;" horiz-adv-x="638" 
d="M633 0h-145l-42 126h-253l-43 -126h-145l259 712h109zM409 243l-87 259l-90 -259h177zM503 759h-101l-83 91l-83 -91h-101l132 169h104zM663 1037l-114 -170h-87l64 170h137z" />
    <glyph glyph-name="uni1EA5" unicode="&#x1ea5;" horiz-adv-x="534" 
d="M467 0h-127v45c-33 -33 -76 -50 -128 -50c-58 0 -102 15 -133 46c-29 29 -43 68 -43 117c0 44 15 80 44 107c33 29 78 44 136 44h121v26c0 55 -32 82 -97 82c-41 0 -74 -15 -100 -45l-82 81c45 49 108 74 187 74c148 0 222 -61 222 -184v-343zM337 192v28h-99
c-51 0 -77 -20 -77 -60c0 -39 26 -59 79 -59c35 0 60 8 77 25c13 11 20 33 20 66zM436 566h-101l-83 91l-83 -91h-101l132 169h104zM593 859l-114 -170h-87l64 170h137z" />
    <glyph glyph-name="uni1EA6" unicode="&#x1ea6;" horiz-adv-x="638" 
d="M633 0h-145l-42 126h-253l-43 -126h-145l259 712h109zM409 243l-87 259l-90 -259h177zM505 757h-101l-83 91l-83 -91h-101l132 169h104zM596 867h-87l-114 170h137z" />
    <glyph glyph-name="uni1EA7" unicode="&#x1ea7;" horiz-adv-x="534" 
d="M467 0h-127v45c-33 -33 -76 -50 -128 -50c-58 0 -102 15 -133 46c-29 29 -43 68 -43 117c0 44 15 80 44 107c33 29 78 44 136 44h121v26c0 55 -32 82 -97 82c-41 0 -74 -15 -100 -45l-82 81c45 49 108 74 187 74c148 0 222 -61 222 -184v-343zM337 192v28h-99
c-51 0 -77 -20 -77 -60c0 -39 26 -59 79 -59c35 0 60 8 77 25c13 11 20 33 20 66zM435 566h-101l-83 91l-83 -91h-101l132 169h104zM502 689h-87l-114 170h137z" />
    <glyph glyph-name="uni1EA8" unicode="&#x1ea8;" horiz-adv-x="638" 
d="M633 0h-145l-42 126h-253l-43 -126h-145l259 712h109zM409 243l-87 259l-90 -259h177zM503 762h-101l-83 91l-83 -91h-101l132 169h104zM475 978l-60 8c5 39 17 66 36 81c19 14 40 20 65 17c25 -2 44 -12 59 -31c29 -37 25 -78 -11 -122l-27 -28h-89l48 51
c19 24 29 38 30 43c1 7 -1 12 -4 17c-3 3 -8 6 -15 7c-6 1 -11 0 -14 -3c-10 -9 -16 -23 -18 -40z" />
    <glyph glyph-name="uni1EA9" unicode="&#x1ea9;" horiz-adv-x="534" 
d="M467 0h-127v45c-33 -33 -76 -50 -128 -50c-58 0 -102 15 -133 46c-29 29 -43 68 -43 117c0 44 15 80 44 107c33 29 78 44 136 44h121v26c0 55 -32 82 -97 82c-41 0 -74 -15 -100 -45l-82 81c45 49 108 74 187 74c148 0 222 -61 222 -184v-343zM337 192v28h-99
c-51 0 -77 -20 -77 -60c0 -39 26 -59 79 -59c35 0 60 8 77 25c13 11 20 33 20 66zM436 566h-101l-83 91l-83 -91h-101l132 169h104zM428 763l-60 8c5 39 17 66 36 81c19 14 40 20 65 17c25 -2 44 -12 59 -31c29 -37 25 -78 -11 -122l-27 -28h-89l48 51c19 24 29 38 30 43
c1 7 -1 12 -4 17c-3 3 -8 6 -15 7c-6 1 -11 0 -14 -3c-10 -9 -16 -23 -18 -40z" />
    <glyph glyph-name="uni1EAA" unicode="&#x1eaa;" horiz-adv-x="638" 
d="M633 0h-145l-42 126h-253l-43 -126h-145l259 712h109zM409 243l-87 259l-90 -259h177zM491 758h-101l-83 91l-83 -91h-101l132 169h104zM457 1058l58 -57c-39 -39 -76 -58 -113 -58c-26 0 -52 7 -77 22c-21 12 -39 18 -56 18c-20 0 -39 -9 -58 -28l-57 57
c39 39 76 58 112 58c27 0 53 -7 78 -22c19 -13 38 -19 55 -19c19 0 39 10 58 29z" />
    <glyph glyph-name="uni1EAB" unicode="&#x1eab;" horiz-adv-x="534" 
d="M467 0h-127v45c-33 -33 -76 -50 -128 -50c-58 0 -102 15 -133 46c-29 29 -43 68 -43 117c0 44 15 80 44 107c33 29 78 44 136 44h121v26c0 55 -32 82 -97 82c-41 0 -74 -15 -100 -45l-82 81c45 49 108 74 187 74c148 0 222 -61 222 -184v-343zM337 192v28h-99
c-51 0 -77 -20 -77 -60c0 -39 26 -59 79 -59c35 0 60 8 77 25c13 11 20 33 20 66zM436 566h-101l-83 91l-83 -91h-101l132 169h104zM374 897l58 -57c-39 -39 -76 -58 -113 -58c-26 0 -52 7 -77 22c-21 12 -39 18 -56 18c-20 0 -39 -9 -58 -28l-57 57c39 39 76 58 112 58
c27 0 53 -7 78 -22c19 -13 38 -19 55 -19c19 0 39 10 58 29z" />
    <glyph glyph-name="uni1EAC" unicode="&#x1eac;" horiz-adv-x="638" 
d="M633 0h-145l-42 126h-253l-43 -126h-145l259 712h109zM409 243l-87 259l-90 -259h177zM503 755h-101l-83 91l-83 -91h-101l132 169h104zM394 -232h-149v148h149v-148z" />
    <glyph glyph-name="uni1EAD" unicode="&#x1ead;" horiz-adv-x="534" 
d="M467 0h-127v45c-33 -33 -76 -50 -128 -50c-58 0 -102 15 -133 46c-29 29 -43 68 -43 117c0 44 15 80 44 107c33 29 78 44 136 44h121v26c0 55 -32 82 -97 82c-41 0 -74 -15 -100 -45l-82 81c45 49 108 74 187 74c148 0 222 -61 222 -184v-343zM337 192v28h-99
c-51 0 -77 -20 -77 -60c0 -39 26 -59 79 -59c35 0 60 8 77 25c13 11 20 33 20 66zM435 566h-101l-83 91l-83 -91h-101l132 169h104zM326 -232h-149v148h149v-148z" />
    <glyph glyph-name="uni1EAE" unicode="&#x1eae;" horiz-adv-x="638" 
d="M633 0h-145l-42 126h-253l-43 -126h-145l259 712h109zM409 243l-87 259l-90 -259h177zM395 910h87c-3 -51 -21 -90 -52 -116c-29 -23 -66 -35 -112 -35s-84 12 -113 35c-32 26 -49 65 -51 116h87c5 -40 31 -60 77 -60c47 0 72 20 77 60zM483 1106l-114 -170h-87l64 170
h137z" />
    <glyph glyph-name="uni1EAF" unicode="&#x1eaf;" horiz-adv-x="534" 
d="M467 0h-127v45c-33 -33 -76 -50 -128 -50c-58 0 -102 15 -133 46c-29 29 -43 68 -43 117c0 44 15 80 44 107c33 29 78 44 136 44h121v26c0 55 -32 82 -97 82c-41 0 -74 -15 -100 -45l-82 81c45 49 108 74 187 74c148 0 222 -61 222 -184v-343zM337 192v28h-99
c-51 0 -77 -20 -77 -60c0 -39 26 -59 79 -59c35 0 60 8 77 25c13 11 20 33 20 66zM329 748h87c-3 -51 -21 -90 -52 -116c-29 -23 -66 -35 -112 -35s-84 12 -113 35c-32 26 -49 65 -51 116h87c5 -40 31 -60 77 -60c47 0 72 20 77 60zM386 961l-114 -170h-87l64 170h137z" />
    <glyph glyph-name="uni1EB0" unicode="&#x1eb0;" horiz-adv-x="638" 
d="M633 0h-145l-42 126h-253l-43 -126h-145l259 712h109zM409 243l-87 259l-90 -259h177zM396 913h87c-3 -51 -21 -90 -52 -116c-29 -23 -66 -35 -112 -35s-84 12 -113 35c-32 26 -49 65 -51 116h87c5 -40 31 -60 77 -60c47 0 72 20 77 60zM374 943h-87l-114 170h137z" />
    <glyph glyph-name="uni1EB1" unicode="&#x1eb1;" horiz-adv-x="534" 
d="M467 0h-127v45c-33 -33 -76 -50 -128 -50c-58 0 -102 15 -133 46c-29 29 -43 68 -43 117c0 44 15 80 44 107c33 29 78 44 136 44h121v26c0 55 -32 82 -97 82c-41 0 -74 -15 -100 -45l-82 81c45 49 108 74 187 74c148 0 222 -61 222 -184v-343zM337 192v28h-99
c-51 0 -77 -20 -77 -60c0 -39 26 -59 79 -59c35 0 60 8 77 25c13 11 20 33 20 66zM329 748h87c-3 -51 -21 -90 -52 -116c-29 -23 -66 -35 -112 -35s-84 12 -113 35c-32 26 -49 65 -51 116h87c5 -40 31 -60 77 -60c47 0 72 20 77 60zM318 791h-87l-114 170h137z" />
    <glyph glyph-name="uni1EB2" unicode="&#x1eb2;" horiz-adv-x="638" 
d="M633 0h-145l-42 126h-253l-43 -126h-145l259 712h109zM409 243l-87 259l-90 -259h177zM396 909h87c-3 -51 -21 -90 -52 -116c-29 -23 -66 -35 -112 -35s-84 12 -113 35c-32 26 -49 65 -51 116h87c5 -40 31 -60 77 -60c47 0 72 20 77 60zM293 981l-60 7c5 34 17 58 36 71
c18 13 40 18 65 15c25 -2 44 -11 59 -27c29 -33 25 -69 -11 -107l-27 -25h-89l48 45c19 21 29 33 30 38s0 10 -4 14c-3 3 -8 6 -15 7c-6 1 -11 0 -14 -3c-10 -7 -16 -18 -18 -35z" />
    <glyph glyph-name="uni1EB3" unicode="&#x1eb3;" horiz-adv-x="534" 
d="M467 0h-127v45c-33 -33 -76 -50 -128 -50c-58 0 -102 15 -133 46c-29 29 -43 68 -43 117c0 44 15 80 44 107c33 29 78 44 136 44h121v26c0 55 -32 82 -97 82c-41 0 -74 -15 -100 -45l-82 81c45 49 108 74 187 74c148 0 222 -61 222 -184v-343zM337 192v28h-99
c-51 0 -77 -20 -77 -60c0 -39 26 -59 79 -59c35 0 60 8 77 25c13 11 20 33 20 66zM329 748h87c-3 -51 -21 -90 -52 -116c-29 -23 -66 -35 -112 -35s-84 12 -113 35c-32 26 -49 65 -51 116h87c5 -40 31 -60 77 -60c47 0 72 20 77 60zM222 868l-60 8c5 39 17 66 36 81
c19 14 40 20 65 17c25 -2 44 -12 59 -31c29 -37 25 -78 -11 -122l-27 -28h-89l48 51c19 24 29 38 30 43c1 7 -1 12 -4 17c-3 3 -8 6 -15 7c-6 1 -11 0 -14 -3c-10 -9 -16 -23 -18 -40z" />
    <glyph glyph-name="uni1EB4" unicode="&#x1eb4;" horiz-adv-x="638" 
d="M633 0h-145l-42 126h-253l-43 -126h-145l259 712h109zM409 243l-87 259l-90 -259h177zM390 908h87c-3 -51 -21 -90 -52 -116c-29 -23 -66 -35 -112 -35s-84 12 -113 35c-32 26 -49 65 -51 116h87c5 -40 31 -60 77 -60c47 0 72 20 77 60zM441 1053l58 -57
c-39 -39 -76 -58 -113 -58c-26 0 -52 7 -77 22c-21 12 -39 18 -56 18c-20 0 -39 -9 -58 -28l-57 57c39 39 76 58 112 58c27 0 53 -7 78 -22c19 -13 38 -19 55 -19c19 0 39 10 58 29z" />
    <glyph glyph-name="uni1EB5" unicode="&#x1eb5;" horiz-adv-x="534" 
d="M467 0h-127v45c-33 -33 -76 -50 -128 -50c-58 0 -102 15 -133 46c-29 29 -43 68 -43 117c0 44 15 80 44 107c33 29 78 44 136 44h121v26c0 55 -32 82 -97 82c-41 0 -74 -15 -100 -45l-82 81c45 49 108 74 187 74c148 0 222 -61 222 -184v-343zM337 192v28h-99
c-51 0 -77 -20 -77 -60c0 -39 26 -59 79 -59c35 0 60 8 77 25c13 11 20 33 20 66zM329 748h87c-3 -51 -21 -90 -52 -116c-29 -23 -66 -35 -112 -35s-84 12 -113 35c-32 26 -49 65 -51 116h87c5 -40 31 -60 77 -60c47 0 72 20 77 60zM374 895l58 -57
c-39 -39 -76 -58 -113 -58c-26 0 -52 7 -77 22c-21 12 -39 18 -56 18c-20 0 -39 -9 -58 -28l-57 57c39 39 76 58 112 58c27 0 53 -7 78 -22c19 -13 38 -19 55 -19c19 0 39 10 58 29z" />
    <glyph glyph-name="uni1EB6" unicode="&#x1eb6;" horiz-adv-x="638" 
d="M633 0h-145l-42 126h-253l-43 -126h-145l259 712h109zM409 243l-87 259l-90 -259h177zM396 939h87c-3 -51 -21 -90 -52 -116c-29 -23 -66 -35 -112 -35s-84 12 -113 35c-32 26 -49 65 -51 116h87c5 -40 31 -60 77 -60c47 0 72 20 77 60zM394 -232h-149v148h149v-148z" />
    <glyph glyph-name="uni1EB7" unicode="&#x1eb7;" horiz-adv-x="534" 
d="M467 0h-127v45c-33 -33 -76 -50 -128 -50c-58 0 -102 15 -133 46c-29 29 -43 68 -43 117c0 44 15 80 44 107c33 29 78 44 136 44h121v26c0 55 -32 82 -97 82c-41 0 -74 -15 -100 -45l-82 81c45 49 108 74 187 74c148 0 222 -61 222 -184v-343zM337 192v28h-99
c-51 0 -77 -20 -77 -60c0 -39 26 -59 79 -59c35 0 60 8 77 25c13 11 20 33 20 66zM329 748h87c-3 -51 -21 -90 -52 -116c-29 -23 -66 -35 -112 -35s-84 12 -113 35c-32 26 -49 65 -51 116h87c5 -40 31 -60 77 -60c47 0 72 20 77 60zM326 -232h-149v148h149v-148z" />
    <glyph glyph-name="uni1EB8" unicode="&#x1eb8;" horiz-adv-x="605" 
d="M552 0h-469v712h469v-124h-330v-167h281v-124h-281v-173h330v-124zM392 -232h-149v148h149v-148z" />
    <glyph glyph-name="uni1EB9" unicode="&#x1eb9;" horiz-adv-x="548" 
d="M501 220h-326c0 -34 10 -62 29 -83c21 -22 50 -33 85 -33c45 0 85 16 118 49l79 -77c-53 -55 -119 -82 -198 -82c-161 0 -241 89 -241 267c0 83 21 149 63 197c41 46 96 69 164 69c71 0 127 -23 168 -70c39 -47 59 -107 59 -182v-55zM175 309h198c-1 22 -5 41 -12 56
c-16 36 -45 54 -87 54s-71 -18 -87 -54c-7 -15 -11 -34 -12 -56zM349 -232h-149v148h149v-148z" />
    <glyph glyph-name="uni1EBA" unicode="&#x1eba;" horiz-adv-x="605" 
d="M552 0h-469v712h469v-124h-330v-167h281v-124h-281v-173h330v-124zM288 840l-60 8c5 39 17 66 36 81c19 14 40 20 65 17c25 -2 44 -12 59 -31c29 -37 25 -78 -11 -122l-27 -28h-89l48 51c19 24 29 38 30 43c1 7 -1 12 -4 17c-3 3 -8 6 -15 7c-6 1 -11 0 -14 -3
c-10 -9 -16 -23 -18 -40z" />
    <glyph glyph-name="uni1EBB" unicode="&#x1ebb;" horiz-adv-x="548" 
d="M501 220h-326c0 -34 10 -62 29 -83c21 -22 50 -33 85 -33c45 0 85 16 118 49l79 -77c-53 -55 -119 -82 -198 -82c-161 0 -241 89 -241 267c0 83 21 149 63 197c41 46 96 69 164 69c71 0 127 -23 168 -70c39 -47 59 -107 59 -182v-55zM175 309h198c-1 22 -5 41 -12 56
c-16 36 -45 54 -87 54s-71 -18 -87 -54c-7 -15 -11 -34 -12 -56zM245 649l-60 8c5 39 17 66 36 81c19 14 40 20 65 17c25 -2 44 -12 59 -31c29 -37 25 -78 -11 -122l-27 -28h-89l48 51c19 24 29 38 30 43c1 7 -1 12 -4 17c-3 3 -8 6 -15 7c-6 1 -11 0 -14 -3
c-10 -9 -16 -23 -18 -40z" />
    <glyph glyph-name="uni1EBC" unicode="&#x1ebc;" horiz-adv-x="605" 
d="M552 0h-469v712h469v-124h-330v-167h281v-124h-281v-173h330v-124zM440 919l58 -57c-39 -39 -76 -58 -113 -58c-26 0 -52 7 -77 22c-21 12 -39 18 -56 18c-20 0 -39 -9 -58 -28l-57 57c39 39 76 58 112 58c27 0 53 -7 78 -22c19 -13 38 -19 55 -19c19 0 39 10 58 29z" />
    <glyph glyph-name="uni1EBD" unicode="&#x1ebd;" horiz-adv-x="548" 
d="M501 220h-326c0 -34 10 -62 29 -83c21 -22 50 -33 85 -33c45 0 85 16 118 49l79 -77c-53 -55 -119 -82 -198 -82c-161 0 -241 89 -241 267c0 83 21 149 63 197c41 46 96 69 164 69c71 0 127 -23 168 -70c39 -47 59 -107 59 -182v-55zM175 309h198c-1 22 -5 41 -12 56
c-16 36 -45 54 -87 54s-71 -18 -87 -54c-7 -15 -11 -34 -12 -56zM397 728l58 -57c-39 -39 -76 -58 -113 -58c-26 0 -52 7 -77 22c-21 12 -39 18 -56 18c-20 0 -39 -9 -58 -28l-57 57c39 39 76 58 112 58c27 0 53 -7 78 -22c19 -13 38 -19 55 -19c19 0 39 10 58 29z" />
    <glyph glyph-name="uni1EBE" unicode="&#x1ebe;" horiz-adv-x="605" 
d="M552 0h-469v712h469v-124h-330v-167h281v-124h-281v-173h330v-124zM507 759h-101l-83 91l-83 -91h-101l132 169h104zM667 1037l-114 -170h-87l64 170h137z" />
    <glyph glyph-name="uni1EBF" unicode="&#x1ebf;" horiz-adv-x="548" 
d="M501 220h-326c0 -34 10 -62 29 -83c21 -22 50 -33 85 -33c45 0 85 16 118 49l79 -77c-53 -55 -119 -82 -198 -82c-161 0 -241 89 -241 267c0 83 21 149 63 197c41 46 96 69 164 69c71 0 127 -23 168 -70c39 -47 59 -107 59 -182v-55zM175 309h198c-1 22 -5 41 -12 56
c-16 36 -45 54 -87 54s-71 -18 -87 -54c-7 -15 -11 -34 -12 -56zM458 566h-101l-83 91l-83 -91h-101l132 169h104zM626 858l-114 -170h-87l64 170h137z" />
    <glyph glyph-name="uni1EC0" unicode="&#x1ec0;" horiz-adv-x="605" 
d="M552 0h-469v712h469v-124h-330v-167h281v-124h-281v-173h330v-124zM501 757h-101l-83 91l-83 -91h-101l132 169h104zM592 867h-87l-114 170h137z" />
    <glyph glyph-name="uni1EC1" unicode="&#x1ec1;" horiz-adv-x="548" 
d="M501 220h-326c0 -34 10 -62 29 -83c21 -22 50 -33 85 -33c45 0 85 16 118 49l79 -77c-53 -55 -119 -82 -198 -82c-161 0 -241 89 -241 267c0 83 21 149 63 197c41 46 96 69 164 69c71 0 127 -23 168 -70c39 -47 59 -107 59 -182v-55zM175 309h198c-1 22 -5 41 -12 56
c-16 36 -45 54 -87 54s-71 -18 -87 -54c-7 -15 -11 -34 -12 -56zM458 568h-101l-83 91l-83 -91h-101l132 169h104zM534 688h-87l-114 170h137z" />
    <glyph glyph-name="uni1EC2" unicode="&#x1ec2;" horiz-adv-x="605" 
d="M552 0h-469v712h469v-124h-330v-167h281v-124h-281v-173h330v-124zM503 762h-101l-83 91l-83 -91h-101l132 169h104zM475 978l-60 8c5 39 17 66 36 81c19 14 40 20 65 17c25 -2 44 -12 59 -31c29 -37 25 -78 -11 -122l-27 -28h-89l48 51c19 24 29 38 30 43
c1 7 -1 12 -4 17c-3 3 -8 6 -15 7c-6 1 -11 0 -14 -3c-10 -9 -16 -23 -18 -40z" />
    <glyph glyph-name="uni1EC3" unicode="&#x1ec3;" horiz-adv-x="548" 
d="M501 220h-326c0 -34 10 -62 29 -83c21 -22 50 -33 85 -33c45 0 85 16 118 49l79 -77c-53 -55 -119 -82 -198 -82c-161 0 -241 89 -241 267c0 83 21 149 63 197c41 46 96 69 164 69c71 0 127 -23 168 -70c39 -47 59 -107 59 -182v-55zM175 309h198c-1 22 -5 41 -12 56
c-16 36 -45 54 -87 54s-71 -18 -87 -54c-7 -15 -11 -34 -12 -56zM458 566h-101l-83 91l-83 -91h-101l132 169h104zM441 764l-60 8c5 39 17 66 36 81c19 14 40 20 65 17c25 -2 44 -12 59 -31c29 -37 25 -78 -11 -122l-27 -28h-89l48 51c19 24 29 38 30 43c1 7 -1 12 -4 17
c-3 3 -8 6 -15 7c-6 1 -11 0 -14 -3c-10 -9 -16 -23 -18 -40z" />
    <glyph glyph-name="uni1EC4" unicode="&#x1ec4;" horiz-adv-x="605" 
d="M552 0h-469v712h469v-124h-330v-167h281v-124h-281v-173h330v-124zM490 758h-101l-83 91l-83 -91h-101l132 169h104zM456 1058l58 -57c-39 -39 -76 -58 -113 -58c-26 0 -52 7 -77 22c-21 12 -39 18 -56 18c-20 0 -39 -9 -58 -28l-57 57c39 39 76 58 112 58
c27 0 53 -7 78 -22c19 -13 38 -19 55 -19c19 0 39 10 58 29z" />
    <glyph glyph-name="uni1EC5" unicode="&#x1ec5;" horiz-adv-x="548" 
d="M501 220h-326c0 -34 10 -62 29 -83c21 -22 50 -33 85 -33c45 0 85 16 118 49l79 -77c-53 -55 -119 -82 -198 -82c-161 0 -241 89 -241 267c0 83 21 149 63 197c41 46 96 69 164 69c71 0 127 -23 168 -70c39 -47 59 -107 59 -182v-55zM175 309h198c-1 22 -5 41 -12 56
c-16 36 -45 54 -87 54s-71 -18 -87 -54c-7 -15 -11 -34 -12 -56zM458 568h-101l-83 91l-83 -91h-101l132 169h104zM396 899l58 -57c-39 -39 -76 -58 -113 -58c-26 0 -52 7 -77 22c-21 12 -39 18 -56 18c-20 0 -39 -9 -58 -28l-57 57c39 39 76 58 112 58c27 0 53 -7 78 -22
c19 -13 38 -19 55 -19c19 0 39 10 58 29z" />
    <glyph glyph-name="uni1EC6" unicode="&#x1ec6;" horiz-adv-x="605" 
d="M552 0h-469v712h469v-124h-330v-167h281v-124h-281v-173h330v-124zM501 757h-101l-83 91l-83 -91h-101l132 169h104zM392 -232h-149v148h149v-148z" />
    <glyph glyph-name="uni1EC7" unicode="&#x1ec7;" horiz-adv-x="548" 
d="M501 220h-326c0 -34 10 -62 29 -83c21 -22 50 -33 85 -33c45 0 85 16 118 49l79 -77c-53 -55 -119 -82 -198 -82c-161 0 -241 89 -241 267c0 83 21 149 63 197c41 46 96 69 164 69c71 0 127 -23 168 -70c39 -47 59 -107 59 -182v-55zM175 309h198c-1 22 -5 41 -12 56
c-16 36 -45 54 -87 54s-71 -18 -87 -54c-7 -15 -11 -34 -12 -56zM458 566h-101l-83 91l-83 -91h-101l132 169h104zM349 -232h-149v148h149v-148z" />
    <glyph glyph-name="uni1EC8" unicode="&#x1ec8;" horiz-adv-x="305" 
d="M222 0h-139v712h139v-712zM123 840l-60 8c5 39 17 66 36 81c19 14 40 20 65 17c25 -2 44 -12 59 -31c29 -37 25 -78 -11 -122l-27 -28h-89l48 51c19 24 29 38 30 43c1 7 -1 12 -4 17c-3 3 -8 6 -15 7c-6 1 -11 0 -14 -3c-10 -9 -16 -23 -18 -40z" />
    <glyph glyph-name="uni1EC9" unicode="&#x1ec9;" horiz-adv-x="275" 
d="M203 0h-130v506h130v-506zM109 649l-60 8c5 39 17 66 36 81c19 14 40 20 65 17c25 -2 44 -12 59 -31c29 -37 25 -78 -11 -122l-27 -28h-89l48 51c19 24 29 38 30 43c1 7 -1 12 -4 17c-3 3 -8 6 -15 7c-6 1 -11 0 -14 -3c-10 -9 -16 -23 -18 -40z" />
    <glyph glyph-name="uni1ECA" unicode="&#x1eca;" horiz-adv-x="305" 
d="M222 0h-139v712h139v-712zM227 -232h-149v148h149v-148z" />
    <glyph glyph-name="uni1ECB" unicode="&#x1ecb;" horiz-adv-x="275" 
d="M203 0h-130v506h130v-506zM204 610h-133v106h133v-106zM212 -232h-149v148h149v-148z" />
    <glyph glyph-name="uni1ECC" unicode="&#x1ecc;" horiz-adv-x="644" 
d="M585 356c0 -81 -3 -137 -10 -168c-9 -46 -30 -86 -63 -119c-50 -50 -113 -75 -190 -75s-141 25 -191 75c-33 33 -54 73 -63 119c-6 31 -9 87 -9 168s3 137 9 168c9 46 30 86 63 119c50 50 114 75 191 75s140 -25 190 -75c33 -33 54 -73 63 -119c7 -31 10 -87 10 -168z
M446 356c0 106 -12 173 -35 200c-22 25 -52 38 -89 38s-67 -13 -90 -38s-34 -92 -34 -200c0 -107 11 -174 34 -199c24 -26 54 -39 90 -39c37 0 66 13 89 39c23 27 35 94 35 199zM397 -232h-149v148h149v-148z" />
    <glyph glyph-name="uni1ECD" unicode="&#x1ecd;" 
d="M492 261c0 -95 -20 -162 -59 -203c-41 -43 -95 -64 -162 -64s-120 21 -161 64c-39 43 -59 110 -59 203c0 92 20 159 59 202c41 43 94 64 161 64c68 0 122 -21 162 -64c39 -43 59 -110 59 -202zM362 261c0 65 -10 107 -30 126c-15 15 -36 23 -61 23s-45 -8 -60 -23
c-20 -19 -30 -61 -30 -126s10 -108 30 -127c15 -15 35 -23 60 -23s46 8 61 23c20 19 30 62 30 127zM346 -232h-149v148h149v-148z" />
    <glyph glyph-name="uni1ECE" unicode="&#x1ece;" horiz-adv-x="644" 
d="M585 356c0 -81 -3 -137 -10 -168c-9 -46 -30 -86 -63 -119c-50 -50 -113 -75 -190 -75s-141 25 -191 75c-33 33 -54 73 -63 119c-6 31 -9 87 -9 168s3 137 9 168c9 46 30 86 63 119c50 50 114 75 191 75s140 -25 190 -75c33 -33 54 -73 63 -119c7 -31 10 -87 10 -168z
M446 356c0 106 -12 173 -35 200c-22 25 -52 38 -89 38s-67 -13 -90 -38s-34 -92 -34 -200c0 -107 11 -174 34 -199c24 -26 54 -39 90 -39c37 0 66 13 89 39c23 27 35 94 35 199zM293 840l-60 8c5 39 17 66 36 81c19 14 40 20 65 17c25 -2 44 -12 59 -31
c29 -37 25 -78 -11 -122l-27 -28h-89l48 51c19 24 29 38 30 43c1 7 -1 12 -4 17c-3 3 -8 6 -15 7c-6 1 -11 0 -14 -3c-10 -9 -16 -23 -18 -40z" />
    <glyph glyph-name="uni1ECF" unicode="&#x1ecf;" 
d="M492 261c0 -95 -20 -162 -59 -203c-41 -43 -95 -64 -162 -64s-120 21 -161 64c-39 43 -59 110 -59 203c0 92 20 159 59 202c41 43 94 64 161 64c68 0 122 -21 162 -64c39 -43 59 -110 59 -202zM362 261c0 65 -10 107 -30 126c-15 15 -36 23 -61 23s-45 -8 -60 -23
c-20 -19 -30 -61 -30 -126s10 -108 30 -127c15 -15 35 -23 60 -23s46 8 61 23c20 19 30 62 30 127zM242 649l-60 8c5 39 17 66 36 81c19 14 40 20 65 17c25 -2 44 -12 59 -31c29 -37 25 -78 -11 -122l-27 -28h-89l48 51c19 24 29 38 30 43c1 7 -1 12 -4 17c-3 3 -8 6 -15 7
c-6 1 -11 0 -14 -3c-10 -9 -16 -23 -18 -40z" />
    <glyph glyph-name="uni1ED0" unicode="&#x1ed0;" horiz-adv-x="644" 
d="M585 356c0 -81 -3 -137 -10 -168c-9 -46 -30 -86 -63 -119c-50 -50 -113 -75 -190 -75s-141 25 -191 75c-33 33 -54 73 -63 119c-6 31 -9 87 -9 168s3 137 9 168c9 46 30 86 63 119c50 50 114 75 191 75s140 -25 190 -75c33 -33 54 -73 63 -119c7 -31 10 -87 10 -168z
M446 356c0 106 -12 173 -35 200c-22 25 -52 38 -89 38s-67 -13 -90 -38s-34 -92 -34 -200c0 -107 11 -174 34 -199c24 -26 54 -39 90 -39c37 0 66 13 89 39c23 27 35 94 35 199zM508 759h-101l-83 91l-83 -91h-101l132 169h104zM668 1037l-114 -170h-87l64 170h137z" />
    <glyph glyph-name="uni1ED1" unicode="&#x1ed1;" 
d="M492 261c0 -95 -20 -162 -59 -203c-41 -43 -95 -64 -162 -64s-120 21 -161 64c-39 43 -59 110 -59 203c0 92 20 159 59 202c41 43 94 64 161 64c68 0 122 -21 162 -64c39 -43 59 -110 59 -202zM362 261c0 65 -10 107 -30 126c-15 15 -36 23 -61 23s-45 -8 -60 -23
c-20 -19 -30 -61 -30 -126s10 -108 30 -127c15 -15 35 -23 60 -23s46 8 61 23c20 19 30 62 30 127zM456 564h-101l-83 91l-83 -91h-101l132 169h104zM611 859l-114 -170h-87l64 170h137z" />
    <glyph glyph-name="uni1ED2" unicode="&#x1ed2;" horiz-adv-x="644" 
d="M585 356c0 -81 -3 -137 -10 -168c-9 -46 -30 -86 -63 -119c-50 -50 -113 -75 -190 -75s-141 25 -191 75c-33 33 -54 73 -63 119c-6 31 -9 87 -9 168s3 137 9 168c9 46 30 86 63 119c50 50 114 75 191 75s140 -25 190 -75c33 -33 54 -73 63 -119c7 -31 10 -87 10 -168z
M446 356c0 106 -12 173 -35 200c-22 25 -52 38 -89 38s-67 -13 -90 -38s-34 -92 -34 -200c0 -107 11 -174 34 -199c24 -26 54 -39 90 -39c37 0 66 13 89 39c23 27 35 94 35 199zM510 757h-101l-83 91l-83 -91h-101l132 169h104zM601 867h-87l-114 170h137z" />
    <glyph glyph-name="uni1ED3" unicode="&#x1ed3;" 
d="M492 261c0 -95 -20 -162 -59 -203c-41 -43 -95 -64 -162 -64s-120 21 -161 64c-39 43 -59 110 -59 203c0 92 20 159 59 202c41 43 94 64 161 64c68 0 122 -21 162 -64c39 -43 59 -110 59 -202zM362 261c0 65 -10 107 -30 126c-15 15 -36 23 -61 23s-45 -8 -60 -23
c-20 -19 -30 -61 -30 -126s10 -108 30 -127c15 -15 35 -23 60 -23s46 8 61 23c20 19 30 62 30 127zM456 569h-101l-83 91l-83 -91h-101l132 169h104zM529 689h-87l-114 170h137z" />
    <glyph glyph-name="uni1ED4" unicode="&#x1ed4;" horiz-adv-x="644" 
d="M585 356c0 -81 -3 -137 -10 -168c-9 -46 -30 -86 -63 -119c-50 -50 -113 -75 -190 -75s-141 25 -191 75c-33 33 -54 73 -63 119c-6 31 -9 87 -9 168s3 137 9 168c9 46 30 86 63 119c50 50 114 75 191 75s140 -25 190 -75c33 -33 54 -73 63 -119c7 -31 10 -87 10 -168z
M446 356c0 106 -12 173 -35 200c-22 25 -52 38 -89 38s-67 -13 -90 -38s-34 -92 -34 -200c0 -107 11 -174 34 -199c24 -26 54 -39 90 -39c37 0 66 13 89 39c23 27 35 94 35 199zM517 763h-101l-83 91l-83 -91h-101l132 169h104zM489 979l-60 8c5 39 17 66 36 81
c19 14 40 20 65 17c25 -2 44 -12 59 -31c29 -37 25 -78 -11 -122l-27 -28h-89l48 51c19 24 29 38 30 43c1 7 -1 12 -4 17c-3 3 -8 6 -15 7c-6 1 -11 0 -14 -3c-10 -9 -16 -23 -18 -40z" />
    <glyph glyph-name="uni1ED5" unicode="&#x1ed5;" 
d="M492 261c0 -95 -20 -162 -59 -203c-41 -43 -95 -64 -162 -64s-120 21 -161 64c-39 43 -59 110 -59 203c0 92 20 159 59 202c41 43 94 64 161 64c68 0 122 -21 162 -64c39 -43 59 -110 59 -202zM362 261c0 65 -10 107 -30 126c-15 15 -36 23 -61 23s-45 -8 -60 -23
c-20 -19 -30 -61 -30 -126s10 -108 30 -127c15 -15 35 -23 60 -23s46 8 61 23c20 19 30 62 30 127zM455 568h-101l-83 91l-83 -91h-101l132 169h104zM439 764l-60 8c5 39 17 66 36 81c19 14 40 20 65 17c25 -2 44 -12 59 -31c29 -37 25 -78 -11 -122l-27 -28h-89l48 51
c19 24 29 38 30 43c1 7 -1 12 -4 17c-3 3 -8 6 -15 7c-6 1 -11 0 -14 -3c-10 -9 -16 -23 -18 -40z" />
    <glyph glyph-name="uni1ED6" unicode="&#x1ed6;" horiz-adv-x="644" 
d="M585 356c0 -81 -3 -137 -10 -168c-9 -46 -30 -86 -63 -119c-50 -50 -113 -75 -190 -75s-141 25 -191 75c-33 33 -54 73 -63 119c-6 31 -9 87 -9 168s3 137 9 168c9 46 30 86 63 119c50 50 114 75 191 75s140 -25 190 -75c33 -33 54 -73 63 -119c7 -31 10 -87 10 -168z
M446 356c0 106 -12 173 -35 200c-22 25 -52 38 -89 38s-67 -13 -90 -38s-34 -92 -34 -200c0 -107 11 -174 34 -199c24 -26 54 -39 90 -39c37 0 66 13 89 39c23 27 35 94 35 199zM494 758h-101l-83 91l-83 -91h-101l132 169h104zM460 1058l58 -57c-39 -39 -76 -58 -113 -58
c-26 0 -52 7 -77 22c-21 12 -39 18 -56 18c-20 0 -39 -9 -58 -28l-57 57c39 39 76 58 112 58c27 0 53 -7 78 -22c19 -13 38 -19 55 -19c19 0 39 10 58 29z" />
    <glyph glyph-name="uni1ED7" unicode="&#x1ed7;" 
d="M492 261c0 -95 -20 -162 -59 -203c-41 -43 -95 -64 -162 -64s-120 21 -161 64c-39 43 -59 110 -59 203c0 92 20 159 59 202c41 43 94 64 161 64c68 0 122 -21 162 -64c39 -43 59 -110 59 -202zM362 261c0 65 -10 107 -30 126c-15 15 -36 23 -61 23s-45 -8 -60 -23
c-20 -19 -30 -61 -30 -126s10 -108 30 -127c15 -15 35 -23 60 -23s46 8 61 23c20 19 30 62 30 127zM456 564h-101l-83 91l-83 -91h-101l132 169h104zM394 894l58 -57c-39 -39 -76 -58 -113 -58c-26 0 -52 7 -77 22c-21 12 -39 18 -56 18c-20 0 -39 -9 -58 -28l-57 57
c39 39 76 58 112 58c27 0 53 -7 78 -22c19 -13 38 -19 55 -19c19 0 39 10 58 29z" />
    <glyph glyph-name="uni1ED8" unicode="&#x1ed8;" horiz-adv-x="644" 
d="M585 356c0 -81 -3 -137 -10 -168c-9 -46 -30 -86 -63 -119c-50 -50 -113 -75 -190 -75s-141 25 -191 75c-33 33 -54 73 -63 119c-6 31 -9 87 -9 168s3 137 9 168c9 46 30 86 63 119c50 50 114 75 191 75s140 -25 190 -75c33 -33 54 -73 63 -119c7 -31 10 -87 10 -168z
M446 356c0 106 -12 173 -35 200c-22 25 -52 38 -89 38s-67 -13 -90 -38s-34 -92 -34 -200c0 -107 11 -174 34 -199c24 -26 54 -39 90 -39c37 0 66 13 89 39c23 27 35 94 35 199zM506 757h-101l-83 91l-83 -91h-101l132 169h104zM397 -232h-149v148h149v-148z" />
    <glyph glyph-name="uni1ED9" unicode="&#x1ed9;" 
d="M492 261c0 -95 -20 -162 -59 -203c-41 -43 -95 -64 -162 -64s-120 21 -161 64c-39 43 -59 110 -59 203c0 92 20 159 59 202c41 43 94 64 161 64c68 0 122 -21 162 -64c39 -43 59 -110 59 -202zM362 261c0 65 -10 107 -30 126c-15 15 -36 23 -61 23s-45 -8 -60 -23
c-20 -19 -30 -61 -30 -126s10 -108 30 -127c15 -15 35 -23 60 -23s46 8 61 23c20 19 30 62 30 127zM455 566h-101l-83 91l-83 -91h-101l132 169h104zM346 -232h-149v148h149v-148z" />
    <glyph glyph-name="uni1EDA" unicode="&#x1eda;" horiz-adv-x="644" 
d="M411 556c-22 25 -52 38 -89 38s-67 -13 -90 -38s-34 -92 -34 -200c0 -107 11 -174 34 -199c24 -26 54 -39 90 -39c37 0 66 13 89 39c23 27 35 94 35 199c0 106 -12 173 -35 200zM517 638c29 -31 49 -69 58 -114c7 -31 10 -87 10 -168s-3 -137 -10 -168
c-9 -46 -30 -86 -63 -119c-50 -50 -113 -75 -190 -75s-141 25 -191 75c-33 33 -54 73 -63 119c-6 31 -9 87 -9 168s3 137 9 168c9 46 30 86 63 119c50 50 114 75 191 75c26 0 50 -3 73 -9c49 -5 82 -3 97 7c9 9 14 18 14 26c0 9 -3 16 -10 21c-5 7 -20 10 -46 10v82
c50 0 86 -11 109 -32s34 -48 34 -81s-11 -60 -34 -81c-11 -11 -25 -18 -42 -23zM460 965l-114 -170h-87l64 170h137z" />
    <glyph glyph-name="uni1EDB" unicode="&#x1edb;" 
d="M332 387c-15 15 -36 23 -61 23s-45 -8 -60 -23c-20 -19 -30 -61 -30 -126s10 -108 30 -127c15 -15 35 -23 60 -23s46 8 61 23c20 19 30 62 30 127s-10 107 -30 126zM443 451c33 -41 49 -105 49 -190c0 -95 -20 -162 -59 -203c-41 -43 -95 -64 -162 -64s-120 21 -161 64
c-39 43 -59 110 -59 203c0 92 20 159 59 202c41 43 94 64 161 64c21 0 41 -2 59 -6c41 -2 69 1 82 8c7 7 10 14 10 23s-3 16 -10 21c-5 7 -20 10 -46 10v82c50 0 86 -11 109 -32s34 -48 34 -81s-11 -60 -34 -81c-9 -8 -19 -15 -32 -20zM382 774l-114 -170h-87l64 170h137z
" />
    <glyph glyph-name="uni1EDC" unicode="&#x1edc;" horiz-adv-x="644" 
d="M411 556c-22 25 -52 38 -89 38s-67 -13 -90 -38s-34 -92 -34 -200c0 -107 11 -174 34 -199c24 -26 54 -39 90 -39c37 0 66 13 89 39c23 27 35 94 35 199c0 106 -12 173 -35 200zM517 638c29 -31 49 -69 58 -114c7 -31 10 -87 10 -168s-3 -137 -10 -168
c-9 -46 -30 -86 -63 -119c-50 -50 -113 -75 -190 -75s-141 25 -191 75c-33 33 -54 73 -63 119c-6 31 -9 87 -9 168s3 137 9 168c9 46 30 86 63 119c50 50 114 75 191 75c26 0 50 -3 73 -9c49 -5 82 -3 97 7c9 9 14 18 14 26c0 9 -3 16 -10 21c-5 7 -20 10 -46 10v82
c50 0 86 -11 109 -32s34 -48 34 -81s-11 -60 -34 -81c-11 -11 -25 -18 -42 -23zM393 795h-87l-114 170h137z" />
    <glyph glyph-name="uni1EDD" unicode="&#x1edd;" 
d="M332 387c-15 15 -36 23 -61 23s-45 -8 -60 -23c-20 -19 -30 -61 -30 -126s10 -108 30 -127c15 -15 35 -23 60 -23s46 8 61 23c20 19 30 62 30 127s-10 107 -30 126zM443 451c33 -41 49 -105 49 -190c0 -95 -20 -162 -59 -203c-41 -43 -95 -64 -162 -64s-120 21 -161 64
c-39 43 -59 110 -59 203c0 92 20 159 59 202c41 43 94 64 161 64c21 0 41 -2 59 -6c41 -2 69 1 82 8c7 7 10 14 10 23s-3 16 -10 21c-5 7 -20 10 -46 10v82c50 0 86 -11 109 -32s34 -48 34 -81s-11 -60 -34 -81c-9 -8 -19 -15 -32 -20zM308 604h-87l-114 170h137z" />
    <glyph glyph-name="uni1EDE" unicode="&#x1ede;" horiz-adv-x="644" 
d="M411 556c-22 25 -52 38 -89 38s-67 -13 -90 -38s-34 -92 -34 -200c0 -107 11 -174 34 -199c24 -26 54 -39 90 -39c37 0 66 13 89 39c23 27 35 94 35 199c0 106 -12 173 -35 200zM517 638c29 -31 49 -69 58 -114c7 -31 10 -87 10 -168s-3 -137 -10 -168
c-9 -46 -30 -86 -63 -119c-50 -50 -113 -75 -190 -75s-141 25 -191 75c-33 33 -54 73 -63 119c-6 31 -9 87 -9 168s3 137 9 168c9 46 30 86 63 119c50 50 114 75 191 75c26 0 50 -3 73 -9c49 -5 82 -3 97 7c9 9 14 18 14 26c0 9 -3 16 -10 21c-5 7 -20 10 -46 10v82
c50 0 86 -11 109 -32s34 -48 34 -81s-11 -60 -34 -81c-11 -11 -25 -18 -42 -23zM297 840l-60 8c5 39 17 66 36 81c19 14 40 20 65 17c25 -2 44 -12 59 -31c29 -37 25 -78 -11 -122l-27 -28h-89l48 51c19 24 29 38 30 43c1 7 -1 12 -4 17c-3 3 -8 6 -15 7c-6 1 -11 0 -14 -3
c-10 -9 -16 -23 -18 -40z" />
    <glyph glyph-name="uni1EDF" unicode="&#x1edf;" 
d="M332 387c-15 15 -36 23 -61 23s-45 -8 -60 -23c-20 -19 -30 -61 -30 -126s10 -108 30 -127c15 -15 35 -23 60 -23s46 8 61 23c20 19 30 62 30 127s-10 107 -30 126zM443 451c33 -41 49 -105 49 -190c0 -95 -20 -162 -59 -203c-41 -43 -95 -64 -162 -64s-120 21 -161 64
c-39 43 -59 110 -59 203c0 92 20 159 59 202c41 43 94 64 161 64c21 0 41 -2 59 -6c41 -2 69 1 82 8c7 7 10 14 10 23s-3 16 -10 21c-5 7 -20 10 -46 10v82c50 0 86 -11 109 -32s34 -48 34 -81s-11 -60 -34 -81c-9 -8 -19 -15 -32 -20zM234 649l-60 8c5 39 17 66 36 81
c19 14 40 20 65 17c25 -2 44 -12 59 -31c29 -37 25 -78 -11 -122l-27 -28h-89l48 51c19 24 29 38 30 43c1 7 -1 12 -4 17c-3 3 -8 6 -15 7c-6 1 -11 0 -14 -3c-10 -9 -16 -23 -18 -40z" />
    <glyph glyph-name="uni1EE0" unicode="&#x1ee0;" horiz-adv-x="644" 
d="M411 556c-22 25 -52 38 -89 38s-67 -13 -90 -38s-34 -92 -34 -200c0 -107 11 -174 34 -199c24 -26 54 -39 90 -39c37 0 66 13 89 39c23 27 35 94 35 199c0 106 -12 173 -35 200zM517 638c29 -31 49 -69 58 -114c7 -31 10 -87 10 -168s-3 -137 -10 -168
c-9 -46 -30 -86 -63 -119c-50 -50 -113 -75 -190 -75s-141 25 -191 75c-33 33 -54 73 -63 119c-6 31 -9 87 -9 168s3 137 9 168c9 46 30 86 63 119c50 50 114 75 191 75c26 0 50 -3 73 -9c49 -5 82 -3 97 7c9 9 14 18 14 26c0 9 -3 16 -10 21c-5 7 -20 10 -46 10v82
c50 0 86 -11 109 -32s34 -48 34 -81s-11 -60 -34 -81c-11 -11 -25 -18 -42 -23zM388 919l58 -57c-39 -39 -76 -58 -113 -58c-26 0 -52 7 -77 22c-21 12 -39 18 -56 18c-20 0 -39 -9 -58 -28l-57 57c39 39 76 58 112 58c27 0 53 -7 78 -22c19 -13 38 -19 55 -19
c19 0 39 10 58 29z" />
    <glyph glyph-name="uni1EE1" unicode="&#x1ee1;" 
d="M332 387c-15 15 -36 23 -61 23s-45 -8 -60 -23c-20 -19 -30 -61 -30 -126s10 -108 30 -127c15 -15 35 -23 60 -23s46 8 61 23c20 19 30 62 30 127s-10 107 -30 126zM443 451c33 -41 49 -105 49 -190c0 -95 -20 -162 -59 -203c-41 -43 -95 -64 -162 -64s-120 21 -161 64
c-39 43 -59 110 -59 203c0 92 20 159 59 202c41 43 94 64 161 64c21 0 41 -2 59 -6c41 -2 69 1 82 8c7 7 10 14 10 23s-3 16 -10 21c-5 7 -20 10 -46 10v82c50 0 86 -11 109 -32s34 -48 34 -81s-11 -60 -34 -81c-9 -8 -19 -15 -32 -20zM366 777l58 -57
c-39 -39 -76 -58 -113 -58c-26 0 -52 7 -77 22c-21 12 -39 18 -56 18c-20 0 -39 -9 -58 -28l-57 57c39 39 76 58 112 58c27 0 53 -7 78 -22c19 -13 38 -19 55 -19c19 0 39 10 58 29z" />
    <glyph glyph-name="uni1EE2" unicode="&#x1ee2;" horiz-adv-x="644" 
d="M411 556c-22 25 -52 38 -89 38s-67 -13 -90 -38s-34 -92 -34 -200c0 -107 11 -174 34 -199c24 -26 54 -39 90 -39c37 0 66 13 89 39c23 27 35 94 35 199c0 106 -12 173 -35 200zM517 638c29 -31 49 -69 58 -114c7 -31 10 -87 10 -168s-3 -137 -10 -168
c-9 -46 -30 -86 -63 -119c-50 -50 -113 -75 -190 -75s-141 25 -191 75c-33 33 -54 73 -63 119c-6 31 -9 87 -9 168s3 137 9 168c9 46 30 86 63 119c50 50 114 75 191 75c26 0 50 -3 73 -9c49 -5 82 -3 97 7c9 9 14 18 14 26c0 9 -3 16 -10 21c-5 7 -20 10 -46 10v82
c50 0 86 -11 109 -32s34 -48 34 -81s-11 -60 -34 -81c-11 -11 -25 -18 -42 -23zM401 -232h-149v148h149v-148z" />
    </font>
</defs>
</svg>
